TwilioSansMono-RetinaItalic.ufo
<glyph name="exclam" format="2">
	<unicode hex="0021"/>
	<advance width="600"/>
	<outline>
		<contour>
			<point x="257" y="203" type="line"/>
			<point x="324" y="203" type="line"/>
			<point x="389" y="541" type="line"/>
			<point x="410" y="684" type="line"/>
			<point x="306" y="684" type="line"/>
			<point x="287" y="542" type="line"/>
		</contour>
		<contour>
			<point x="267" y="-12" type="curve" smooth="yes"/>
			<point x="315" y="-12"/>
			<point x="335" y="7"/>
			<point x="340" y="47" type="curve" smooth="yes"/>
			<point x="346" y="90"/>
			<point x="326" y="115"/>
			<point x="274" y="115" type="curve" smooth="yes"/>
			<point x="227" y="115"/>
			<point x="206" y="95"/>
			<point x="201" y="56" type="curve" smooth="yes"/>
			<point x="195" y="12"/>
			<point x="215" y="-12"/>
		</contour>
	</outline>
</glyph>
<glyph name="dollar" format="2">
	<unicode hex="0024"/>
	<advance width="600"/>
	<outline>
		<contour>
			<point x="141" y="-93" type="line"/>
			<point x="216" y="-93" type="line"/>
			<point x="241" y="-9" type="line"/>
			<point x="255" y="-11"/>
			<point x="269" y="-11"/>
			<point x="283" y="-11" type="curve" smooth="yes"/>
			<point x="432" y="-11"/>
			<point x="538" y="72"/>
			<point x="538" y="211" type="curve" smooth="yes"/>
			<point x="538" y="320"/>
			<point x="467" y="350"/>
			<point x="355" y="378" type="curve"/>
			<point x="425" y="609" type="line"/>
			<point x="479" y="597"/>
			<point x="531" y="574"/>
			<point x="567" y="542" type="curve"/>
			<point x="579" y="625" type="line"/>
			<point x="546" y="650"/>
			<point x="502" y="671"/>
			<point x="449" y="683" type="curve"/>
			<point x="476" y="774" type="line"/>
			<point x="402" y="774" type="line"/>
			<point x="378" y="694" type="line"/>
			<point x="365" y="695"/>
			<point x="353" y="695"/>
			<point x="340" y="695" type="curve" smooth="yes"/>
			<point x="182" y="695"/>
			<point x="88" y="610"/>
			<point x="88" y="479" type="curve" smooth="yes"/>
			<point x="88" y="362"/>
			<point x="170" y="329"/>
			<point x="263" y="307" type="curve"/>
			<point x="195" y="79" type="line"/>
			<point x="143" y="94"/>
			<point x="93" y="122"/>
			<point x="52" y="163" type="curve"/>
			<point x="39" y="74" type="line"/>
			<point x="73" y="43"/>
			<point x="118" y="19"/>
			<point x="170" y="4" type="curve"/>
		</contour>
		<contour>
			<point x="181" y="495" type="curve" smooth="yes"/>
			<point x="181" y="573"/>
			<point x="239" y="619"/>
			<point x="337" y="619" type="curve" smooth="yes"/>
			<point x="343" y="619"/>
			<point x="350" y="619"/>
			<point x="356" y="618" type="curve"/>
			<point x="289" y="394" type="line"/>
			<point x="220" y="413"/>
			<point x="181" y="432"/>
		</contour>
		<contour>
			<point x="445" y="193" type="curve" smooth="yes"/>
			<point x="445" y="113"/>
			<point x="381" y="66"/>
			<point x="285" y="66" type="curve" smooth="yes"/>
			<point x="278" y="66"/>
			<point x="270" y="67"/>
			<point x="262" y="67" type="curve"/>
			<point x="330" y="292" type="line"/>
			<point x="401" y="276"/>
			<point x="445" y="259"/>
		</contour>
	</outline>
</glyph>
<glyph name="percent" format="2">
	<unicode hex="0025"/>
	<advance width="600"/>
	<outline>
		<contour>
			<point x="188" y="338" type="curve" smooth="yes"/>
			<point x="271" y="338"/>
			<point x="326" y="396"/>
			<point x="341" y="506" type="curve" smooth="yes"/>
			<point x="357" y="620"/>
			<point x="318" y="696"/>
			<point x="220" y="696" type="curve" smooth="yes"/>
			<point x="136" y="696"/>
			<point x="82" y="636"/>
			<point x="67" y="528" type="curve" smooth="yes"/>
			<point x="50" y="410"/>
			<point x="91" y="338"/>
		</contour>
		<contour>
			<point x="409" y="417" type="line"/>
			<point x="484" y="417" type="line"/>
			<point x="634" y="684" type="line"/>
			<point x="542" y="684" type="line"/>
		</contour>
		<contour>
			<point x="190" y="390" type="curve" smooth="yes"/>
			<point x="143" y="390"/>
			<point x="126" y="440"/>
			<point x="138" y="524" type="curve" smooth="yes"/>
			<point x="149" y="605"/>
			<point x="175" y="644"/>
			<point x="218" y="644" type="curve" smooth="yes"/>
			<point x="265" y="644"/>
			<point x="281" y="592"/>
			<point x="270" y="510" type="curve" smooth="yes"/>
			<point x="258" y="429"/>
			<point x="233" y="390"/>
		</contour>
		<contour>
			<point x="403" y="-12" type="curve" smooth="yes"/>
			<point x="486" y="-12"/>
			<point x="541" y="46"/>
			<point x="556" y="156" type="curve" smooth="yes"/>
			<point x="572" y="270"/>
			<point x="534" y="346"/>
			<point x="435" y="346" type="curve" smooth="yes"/>
			<point x="351" y="346"/>
			<point x="297" y="286"/>
			<point x="282" y="178" type="curve" smooth="yes"/>
			<point x="266" y="60"/>
			<point x="307" y="-12"/>
		</contour>
		<contour>
			<point x="405" y="40" type="curve" smooth="yes"/>
			<point x="358" y="40"/>
			<point x="342" y="90"/>
			<point x="353" y="174" type="curve" smooth="yes"/>
			<point x="365" y="255"/>
			<point x="390" y="294"/>
			<point x="433" y="294" type="curve" smooth="yes"/>
			<point x="480" y="294"/>
			<point x="496" y="242"/>
			<point x="485" y="160" type="curve" smooth="yes"/>
			<point x="473" y="79"/>
			<point x="448" y="40"/>
		</contour>
		<contour>
			<point x="-12" y="0" type="line"/>
			<point x="81" y="0" type="line"/>
			<point x="215" y="267" type="line"/>
			<point x="139" y="267" type="line"/>
		</contour>
	</outline>
</glyph>
<glyph name="ampersand" format="2">
	<unicode hex="0026"/>
	<advance width="600"/>
	<outline>
		<contour>
			<point x="215" y="-14" type="curve" smooth="yes"/>
			<point x="292" y="-14"/>
			<point x="358" y="13"/>
			<point x="412" y="62" type="curve"/>
			<point x="460" y="0" type="line"/>
			<point x="572" y="0" type="line"/>
			<point x="472" y="129" type="line"/>
			<point x="521" y="197"/>
			<point x="556" y="286"/>
			<point x="580" y="389" type="curve"/>
			<point x="494" y="389" type="line"/>
			<point x="475" y="310"/>
			<point x="451" y="244"/>
			<point x="422" y="194" type="curve"/>
			<point x="279" y="378" type="line" smooth="yes"/>
			<point x="245" y="421"/>
			<point x="223" y="454"/>
			<point x="223" y="504" type="curve" smooth="yes"/>
			<point x="223" y="574"/>
			<point x="269" y="621"/>
			<point x="349" y="621" type="curve" smooth="yes"/>
			<point x="411" y="621"/>
			<point x="480" y="594"/>
			<point x="523" y="560" type="curve"/>
			<point x="535" y="642" type="line"/>
			<point x="493" y="671"/>
			<point x="423" y="698"/>
			<point x="347" y="698" type="curve" smooth="yes"/>
			<point x="211" y="698"/>
			<point x="131" y="609"/>
			<point x="131" y="496" type="curve" smooth="yes"/>
			<point x="131" y="463"/>
			<point x="140" y="432"/>
			<point x="154" y="404" type="curve"/>
			<point x="75" y="362"/>
			<point x="6" y="286"/>
			<point x="6" y="177" type="curve" smooth="yes"/>
			<point x="6" y="62"/>
			<point x="82" y="-14"/>
		</contour>
		<contour>
			<point x="96" y="188" type="curve" smooth="yes"/>
			<point x="95" y="262"/>
			<point x="139" y="315"/>
			<point x="196" y="340" type="curve"/>
			<point x="196" y="339"/>
			<point x="197" y="338"/>
			<point x="198" y="337" type="curve" smooth="yes"/>
			<point x="366" y="121" type="line"/>
			<point x="327" y="83"/>
			<point x="281" y="63"/>
			<point x="231" y="63" type="curve" smooth="yes"/>
			<point x="144" y="63"/>
			<point x="97" y="113"/>
		</contour>
	</outline>
</glyph>
<glyph name="quotesingle" format="2">
	<unicode hex="0027"/>
	<advance width="600"/>
	<outline>
		<contour>
			<point x="298" y="496" type="line"/>
			<point x="367" y="496" type="line"/>
			<point x="427" y="750" type="line"/>
			<point x="311" y="750" type="line"/>
		</contour>
	</outline>
</glyph>
<glyph name="parenleft" format="2">
	<unicode hex="0028"/>
	<advance width="600"/>
	<outline>
		<contour>
			<point x="405" y="-168" type="curve"/>
			<point x="443" y="-92" type="line"/>
			<point x="286" y="-24"/>
			<point x="233" y="122"/>
			<point x="263" y="331" type="curve" smooth="yes"/>
			<point x="291" y="537"/>
			<point x="377" y="666"/>
			<point x="560" y="719" type="curve"/>
			<point x="540" y="798" type="line"/>
			<point x="314" y="734"/>
			<point x="208" y="572"/>
			<point x="176" y="341" type="curve" smooth="yes"/>
			<point x="143" y="101"/>
			<point x="206" y="-78"/>
		</contour>
	</outline>
</glyph>
<glyph name="asterisk" format="2">
	<unicode hex="002A"/>
	<advance width="600"/>
	<outline>
		<contour>
			<point x="101" y="160" type="line"/>
			<point x="282" y="282" type="line"/>
			<point x="229" y="80" type="line"/>
			<point x="322" y="80" type="line"/>
			<point x="326" y="280" type="line"/>
			<point x="472" y="161" type="line"/>
			<point x="529" y="240" type="line"/>
			<point x="355" y="320" type="line"/>
			<point x="552" y="401" type="line"/>
			<point x="518" y="480" type="line"/>
			<point x="338" y="360" type="line"/>
			<point x="389" y="561" type="line"/>
			<point x="297" y="561" type="line"/>
			<point x="292" y="359" type="line"/>
			<point x="145" y="481" type="line"/>
			<point x="88" y="401" type="line"/>
			<point x="265" y="320" type="line"/>
			<point x="66" y="240" type="line"/>
		</contour>
	</outline>
</glyph>
<glyph name="hyphen" format="2">
	<unicode hex="002D"/>
	<advance width="600"/>
	<outline>
		<contour>
			<point x="487" y="345" type="line"/>
			<point x="137" y="345" type="line"/>
			<point x="124" y="261" type="line"/>
			<point x="475" y="261" type="line"/>
		</contour>
	</outline>
</glyph>
<glyph name="two" format="2">
	<unicode hex="0032"/>
	<advance width="600"/>
	<outline>
		<contour>
			<point x="34" y="0" type="line"/>
			<point x="489" y="0" type="line"/>
			<point x="499" y="84" type="line"/>
			<point x="186" y="84" type="line"/>
			<point x="254" y="128" type="line" smooth="yes"/>
			<point x="400" y="222"/>
			<point x="544" y="324"/>
			<point x="544" y="503" type="curve" smooth="yes"/>
			<point x="544" y="624"/>
			<point x="471" y="698"/>
			<point x="331" y="698" type="curve" smooth="yes"/>
			<point x="238" y="698"/>
			<point x="168" y="663"/>
			<point x="124" y="630" type="curve"/>
			<point x="112" y="537" type="line"/>
			<point x="172" y="587"/>
			<point x="239" y="616"/>
			<point x="312" y="616" type="curve" smooth="yes"/>
			<point x="402" y="616"/>
			<point x="447" y="568"/>
			<point x="447" y="489" type="curve" smooth="yes"/>
			<point x="447" y="352"/>
			<point x="328" y="272"/>
			<point x="180" y="169" type="curve" smooth="yes"/>
			<point x="45" y="74" type="line"/>
		</contour>
	</outline>
</glyph>
<glyph name="four" format="2">
	<unicode hex="0034"/>
	<advance width="600"/>
	<outline>
		<contour>
			<point x="341" y="0" type="line"/>
			<point x="434" y="0" type="line"/>
			<point x="454" y="144" type="line"/>
			<point x="533" y="144" type="line"/>
			<point x="544" y="223" type="line"/>
			<point x="466" y="223" type="line"/>
			<point x="531" y="687" type="line"/>
			<point x="394" y="687" type="line"/>
			<point x="29" y="223" type="line"/>
			<point x="18" y="145" type="line"/>
			<point x="362" y="145" type="line"/>
		</contour>
		<contour>
			<point x="127" y="223" type="line"/>
			<point x="427" y="605" type="line"/>
			<point x="373" y="223" type="line"/>
		</contour>
	</outline>
</glyph>
<glyph name="five" format="2">
	<unicode hex="0035"/>
	<advance width="600"/>
	<outline>
		<contour>
			<point x="265" y="-13" type="curve" smooth="yes"/>
			<point x="421" y="-13"/>
			<point x="521" y="84"/>
			<point x="520" y="238" type="curve" smooth="yes"/>
			<point x="519" y="367"/>
			<point x="437" y="418"/>
			<point x="307" y="418" type="curve" smooth="yes"/>
			<point x="267" y="418"/>
			<point x="236" y="413"/>
			<point x="206" y="405" type="curve"/>
			<point x="234" y="605" type="line"/>
			<point x="563" y="605" type="line"/>
			<point x="574" y="684" type="line"/>
			<point x="157" y="684" type="line"/>
			<point x="105" y="308" type="line"/>
			<point x="158" y="328"/>
			<point x="208" y="342"/>
			<point x="272" y="342" type="curve" smooth="yes"/>
			<point x="376" y="342"/>
			<point x="422" y="305"/>
			<point x="424" y="227" type="curve" smooth="yes"/>
			<point x="425" y="124"/>
			<point x="361" y="67"/>
			<point x="263" y="67" type="curve" smooth="yes"/>
			<point x="197" y="67"/>
			<point x="122" y="92"/>
			<point x="59" y="152" type="curve"/>
			<point x="46" y="66" type="line"/>
			<point x="94" y="21"/>
			<point x="169" y="-13"/>
		</contour>
	</outline>
</glyph>
<glyph name="seven" format="2">
	<unicode hex="0037"/>
	<advance width="600"/>
	<outline>
		<contour>
			<point x="107" y="0" type="line"/>
			<point x="214" y="0" type="line"/>
			<point x="597" y="595" type="line"/>
			<point x="609" y="684" type="line"/>
			<point x="122" y="684" type="line"/>
			<point x="92" y="477" type="line"/>
			<point x="178" y="477" type="line"/>
			<point x="197" y="608" type="line"/>
			<point x="501" y="608" type="line"/>
		</contour>
	</outline>
</glyph>
<glyph name="eight" format="2">
	<unicode hex="0038"/>
	<advance width="600"/>
	<outline>
		<contour>
			<point x="278" y="-14" type="curve" smooth="yes"/>
			<point x="446" y="-14"/>
			<point x="540" y="70"/>
			<point x="540" y="199" type="curve" smooth="yes"/>
			<point x="540" y="278"/>
			<point x="496" y="329"/>
			<point x="412" y="347" type="curve"/>
			<point x="515" y="368"/>
			<point x="575" y="432"/>
			<point x="575" y="532" type="curve" smooth="yes"/>
			<point x="575" y="639"/>
			<point x="490" y="698"/>
			<point x="346" y="698" type="curve" smooth="yes"/>
			<point x="194" y="698"/>
			<point x="101" y="627"/>
			<point x="101" y="500" type="curve" smooth="yes"/>
			<point x="101" y="421"/>
			<point x="150" y="372"/>
			<point x="214" y="354" type="curve"/>
			<point x="103" y="339"/>
			<point x="38" y="273"/>
			<point x="38" y="165" type="curve" smooth="yes"/>
			<point x="38" y="39"/>
			<point x="142" y="-14"/>
		</contour>
		<contour>
			<point x="329" y="386" type="curve" smooth="yes"/>
			<point x="246" y="386"/>
			<point x="192" y="428"/>
			<point x="192" y="496" type="curve" smooth="yes"/>
			<point x="192" y="579"/>
			<point x="242" y="623"/>
			<point x="341" y="623" type="curve" smooth="yes"/>
			<point x="426" y="623"/>
			<point x="481" y="591"/>
			<point x="481" y="518" type="curve" smooth="yes"/>
			<point x="481" y="434"/>
			<point x="427" y="386"/>
		</contour>
		<contour>
			<point x="283" y="62" type="curve" smooth="yes"/>
			<point x="197" y="62"/>
			<point x="134" y="97"/>
			<point x="134" y="178" type="curve" smooth="yes"/>
			<point x="134" y="266"/>
			<point x="190" y="312"/>
			<point x="296" y="312" type="curve" smooth="yes"/>
			<point x="396" y="312"/>
			<point x="444" y="276"/>
			<point x="444" y="204" type="curve" smooth="yes"/>
			<point x="444" y="114"/>
			<point x="385" y="62"/>
		</contour>
	</outline>
</glyph>
<glyph name="question" format="2">
	<unicode hex="003F"/>
	<advance width="600"/>
	<outline>
		<contour>
			<point x="225" y="203" type="curve"/>
			<point x="308" y="203" type="line"/>
			<point x="311" y="233" type="line" smooth="yes"/>
			<point x="326" y="371"/>
			<point x="535" y="373"/>
			<point x="535" y="541" type="curve" smooth="yes"/>
			<point x="535" y="633"/>
			<point x="470" y="698"/>
			<point x="337" y="698" type="curve" smooth="yes"/>
			<point x="264" y="698"/>
			<point x="202" y="679"/>
			<point x="151" y="648" type="curve"/>
			<point x="139" y="560" type="line"/>
			<point x="188" y="594"/>
			<point x="254" y="619"/>
			<point x="324" y="619" type="curve" smooth="yes"/>
			<point x="402" y="619"/>
			<point x="442" y="589"/>
			<point x="442" y="530" type="curve" smooth="yes"/>
			<point x="442" y="412"/>
			<point x="244" y="412"/>
			<point x="226" y="242" type="curve" smooth="yes"/>
			<point x="223" y="223"/>
			<point x="224" y="207"/>
		</contour>
		<contour>
			<point x="246" y="-12" type="curve" smooth="yes"/>
			<point x="294" y="-12"/>
			<point x="315" y="7"/>
			<point x="320" y="46" type="curve" smooth="yes"/>
			<point x="326" y="90"/>
			<point x="306" y="115"/>
			<point x="254" y="115" type="curve" smooth="yes"/>
			<point x="206" y="115"/>
			<point x="185" y="95"/>
			<point x="181" y="57" type="curve" smooth="yes"/>
			<point x="174" y="12"/>
			<point x="194" y="-12"/>
		</contour>
	</outline>
</glyph>
<glyph name="A" format="2">
	<unicode hex="0041"/>
	<advance width="600"/>
	<outline>
		<contour>
			<point x="-15" y="0" type="line"/>
			<point x="85" y="0" type="line"/>
			<point x="159" y="171" type="line"/>
			<point x="417" y="171" type="line"/>
			<point x="444" y="0" type="line"/>
			<point x="541" y="0" type="line"/>
			<point x="422" y="687" type="line"/>
			<point x="295" y="687" type="line"/>
		</contour>
		<contour>
			<point x="193" y="249" type="line"/>
			<point x="349" y="609" type="line"/>
			<point x="405" y="249" type="line"/>
		</contour>
	</outline>
	<anchor name="bottom" x="281" y="0"/>
	<anchor name="ogonek" x="541" y="0"/>
	<anchor name="top" x="358" y="684"/>
</glyph>
<glyph name="B" format="2">
	<unicode hex="0042"/>
	<advance width="600"/>
	<outline>
		<contour>
			<point x="379" y="685" type="curve" smooth="yes"/>
			<point x="137" y="685" type="line"/>
			<point x="41" y="0" type="line"/>
			<point x="318" y="0" type="line" smooth="yes"/>
			<point x="448" y="0"/>
			<point x="536" y="74"/>
			<point x="536" y="198" type="curve" smooth="yes"/>
			<point x="536" y="281"/>
			<point x="495" y="330"/>
			<point x="407" y="349" type="curve"/>
			<point x="508" y="364"/>
			<point x="570" y="427"/>
			<point x="570" y="523" type="curve" smooth="yes"/>
			<point x="570" y="615"/>
			<point x="516" y="685"/>
		</contour>
		<contour>
			<point x="358" y="608" type="line" smooth="yes"/>
			<point x="437" y="608"/>
			<point x="473" y="574"/>
			<point x="473" y="506" type="curve" smooth="yes"/>
			<point x="473" y="427"/>
			<point x="419" y="384"/>
			<point x="335" y="384" type="curve" smooth="yes"/>
			<point x="188" y="384" type="line"/>
			<point x="220" y="608" type="line"/>
		</contour>
		<contour>
			<point x="317" y="308" type="line" smooth="yes"/>
			<point x="408" y="308"/>
			<point x="438" y="265"/>
			<point x="438" y="201" type="curve" smooth="yes"/>
			<point x="438" y="123"/>
			<point x="392" y="79"/>
			<point x="305" y="79" type="curve" smooth="yes"/>
			<point x="145" y="79" type="line"/>
			<point x="177" y="308" type="line"/>
		</contour>
	</outline>
	<anchor name="bottom" x="291" y="0"/>
	<anchor name="top" x="378" y="684"/>
</glyph>
<glyph name="D" format="2">
	<unicode hex="0044"/>
	<advance width="600"/>
	<outline>
		<contour>
			<point x="33" y="0" type="line"/>
			<point x="263" y="0" type="line" smooth="yes"/>
			<point x="423" y="0"/>
			<point x="529" y="94"/>
			<point x="558" y="299" type="curve" smooth="yes"/>
			<point x="561" y="319" type="line" smooth="yes"/>
			<point x="592" y="545"/>
			<point x="502" y="684"/>
			<point x="321" y="684" type="curve" smooth="yes"/>
			<point x="129" y="684" type="line"/>
		</contour>
		<contour>
			<point x="307" y="605" type="line" smooth="yes"/>
			<point x="426" y="605"/>
			<point x="490" y="518"/>
			<point x="464" y="327" type="curve" smooth="yes"/>
			<point x="462" y="315" type="line" smooth="yes"/>
			<point x="441" y="162"/>
			<point x="379" y="79"/>
			<point x="262" y="79" type="curve" smooth="yes"/>
			<point x="138" y="79" type="line"/>
			<point x="212" y="605" type="line"/>
		</contour>
	</outline>
	<anchor name="bottom" x="282" y="0"/>
	<anchor name="center" x="168" y="342"/>
	<anchor name="top" x="325" y="684"/>
</glyph>
<glyph name="F" format="2">
	<unicode hex="0046"/>
	<advance width="600"/>
	<outline>
		<contour>
			<point x="58" y="0" type="line"/>
			<point x="153" y="1" type="line"/>
			<point x="194" y="297" type="line"/>
			<point x="506" y="297" type="line"/>
			<point x="517" y="377" type="line"/>
			<point x="205" y="377" type="line"/>
			<point x="238" y="605" type="line"/>
			<point x="587" y="605" type="line"/>
			<point x="598" y="684" type="line"/>
			<point x="154" y="684" type="line"/>
		</contour>
	</outline>
	<anchor name="bottom" x="295" y="0"/>
	<anchor name="ogonek" x="528" y="0"/>
	<anchor name="top" x="380" y="684"/>
</glyph>
<glyph name="G" format="2">
	<unicode hex="0047"/>
	<advance width="600"/>
	<outline>
		<contour>
			<point x="284" y="-14" type="curve" smooth="yes"/>
			<point x="439" y="-14"/>
			<point x="526" y="82"/>
			<point x="556" y="289" type="curve" smooth="yes"/>
			<point x="568" y="377" type="line"/>
			<point x="300" y="377" type="line"/>
			<point x="289" y="300" type="line"/>
			<point x="464" y="300" type="line"/>
			<point x="463" y="286" type="line" smooth="yes"/>
			<point x="443" y="143"/>
			<point x="396" y="65"/>
			<point x="289" y="65" type="curve" smooth="yes"/>
			<point x="171" y="65"/>
			<point x="124" y="167"/>
			<point x="151" y="356" type="curve" smooth="yes"/>
			<point x="152" y="363" type="line" smooth="yes"/>
			<point x="176" y="531"/>
			<point x="240" y="620"/>
			<point x="373" y="620" type="curve" smooth="yes"/>
			<point x="449" y="620"/>
			<point x="519" y="587"/>
			<point x="555" y="550" type="curve"/>
			<point x="568" y="636" type="line"/>
			<point x="529" y="667"/>
			<point x="462" y="698"/>
			<point x="368" y="698" type="curve" smooth="yes"/>
			<point x="186" y="698"/>
			<point x="86" y="574"/>
			<point x="58" y="380" type="curve" smooth="yes"/>
			<point x="56" y="366" type="line" smooth="yes"/>
			<point x="24" y="137"/>
			<point x="89" y="-14"/>
		</contour>
	</outline>
	<anchor name="bottom" x="277" y="0"/>
	<anchor name="top" x="372" y="684"/>
</glyph>
<glyph name="J" format="2">
	<unicode hex="004A"/>
	<advance width="600"/>
	<outline>
		<contour>
			<point x="232" y="-13" type="curve" smooth="yes"/>
			<point x="378" y="-13"/>
			<point x="474" y="49"/>
			<point x="496" y="201" type="curve" smooth="yes"/>
			<point x="562" y="684" type="line"/>
			<point x="144" y="684" type="line"/>
			<point x="132" y="601" type="line"/>
			<point x="457" y="601" type="line"/>
			<point x="403" y="221" type="line" smooth="yes"/>
			<point x="386" y="101"/>
			<point x="323" y="66"/>
			<point x="225" y="66" type="curve" smooth="yes"/>
			<point x="161" y="66"/>
			<point x="106" y="85"/>
			<point x="64" y="110" type="curve"/>
			<point x="52" y="30" type="line"/>
			<point x="94" y="5"/>
			<point x="156" y="-13"/>
		</contour>
	</outline>
	<anchor name="bottom" x="84" y="0"/>
	<anchor name="top" x="359" y="684"/>
</glyph>
<glyph name="P" format="2">
	<unicode hex="0050"/>
	<advance width="600"/>
	<outline>
		<contour>
			<point x="45" y="0" type="line"/>
			<point x="139" y="0" type="line"/>
			<point x="171" y="223" type="line"/>
			<point x="334" y="223" type="line" smooth="yes"/>
			<point x="486" y="223"/>
			<point x="589" y="320"/>
			<point x="589" y="478" type="curve" smooth="yes"/>
			<point x="589" y="600"/>
			<point x="512" y="684"/>
			<point x="369" y="684" type="curve" smooth="yes"/>
			<point x="141" y="684" type="line"/>
		</contour>
		<contour>
			<point x="354" y="606" type="line" smooth="yes"/>
			<point x="452" y="606"/>
			<point x="492" y="545"/>
			<point x="492" y="470" type="curve" smooth="yes"/>
			<point x="492" y="364"/>
			<point x="430" y="301"/>
			<point x="328" y="301" type="curve" smooth="yes"/>
			<point x="181" y="301" type="line"/>
			<point x="225" y="606" type="line"/>
		</contour>
	</outline>
	<anchor name="bottom" x="149" y="0"/>
	<anchor name="top" x="396" y="684"/>
</glyph>
<glyph name="R" format="2">
	<unicode hex="0052"/>
	<advance width="600"/>
	<outline>
		<contour>
			<point x="38" y="0" type="line"/>
			<point x="132" y="0" type="line"/>
			<point x="169" y="265" type="line"/>
			<point x="299" y="265" type="line" smooth="yes"/>
			<point x="380" y="265"/>
			<point x="399" y="227"/>
			<point x="406" y="158" type="curve" smooth="yes"/>
			<point x="421" y="0" type="line"/>
			<point x="518" y="0" type="line"/>
			<point x="499" y="175" type="line" smooth="yes"/>
			<point x="491" y="247"/>
			<point x="466" y="290"/>
			<point x="409" y="303" type="curve"/>
			<point x="509" y="319"/>
			<point x="580" y="382"/>
			<point x="579" y="504" type="curve" smooth="yes"/>
			<point x="579" y="613"/>
			<point x="507" y="684"/>
			<point x="382" y="684" type="curve" smooth="yes"/>
			<point x="134" y="684" type="line"/>
		</contour>
		<contour>
			<point x="363" y="606" type="line" smooth="yes"/>
			<point x="441" y="606"/>
			<point x="484" y="561"/>
			<point x="484" y="489" type="curve" smooth="yes"/>
			<point x="484" y="393"/>
			<point x="429" y="343"/>
			<point x="337" y="343" type="curve" smooth="yes"/>
			<point x="181" y="343" type="line"/>
			<point x="217" y="606" type="line"/>
		</contour>
	</outline>
	<anchor name="bottom" x="275" y="0"/>
	<anchor name="top" x="340" y="684"/>
</glyph>
<glyph name="S" format="2">
	<unicode hex="0053"/>
	<advance width="600"/>
	<outline>
		<contour>
			<point x="285" y="-14" type="curve" smooth="yes"/>
			<point x="430" y="-14"/>
			<point x="531" y="73"/>
			<point x="531" y="211" type="curve" smooth="yes"/>
			<point x="531" y="331"/>
			<point x="449" y="358"/>
			<point x="329" y="386" type="curve" smooth="yes"/>
			<point x="241" y="407"/>
			<point x="190" y="424"/>
			<point x="190" y="497" type="curve" smooth="yes"/>
			<point x="190" y="574"/>
			<point x="244" y="620"/>
			<point x="336" y="620" type="curve" smooth="yes"/>
			<point x="417" y="620"/>
			<point x="505" y="591"/>
			<point x="559" y="542" type="curve"/>
			<point x="572" y="627" type="line"/>
			<point x="520" y="668"/>
			<point x="441" y="697"/>
			<point x="337" y="697" type="curve" smooth="yes"/>
			<point x="186" y="697"/>
			<point x="95" y="610"/>
			<point x="95" y="478" type="curve" smooth="yes"/>
			<point x="95" y="346"/>
			<point x="194" y="320"/>
			<point x="297" y="297" type="curve" smooth="yes"/>
			<point x="381" y="279"/>
			<point x="436" y="268"/>
			<point x="436" y="193" type="curve" smooth="yes"/>
			<point x="436" y="114"/>
			<point x="376" y="65"/>
			<point x="285" y="65" type="curve" smooth="yes"/>
			<point x="202" y="65"/>
			<point x="121" y="96"/>
			<point x="60" y="162" type="curve"/>
			<point x="47" y="73" type="line"/>
			<point x="104" y="19"/>
			<point x="186" y="-14"/>
		</contour>
	</outline>
	<anchor name="bottom" x="277" y="0"/>
	<anchor name="top" x="364" y="684"/>
</glyph>
<glyph name="X" format="2">
	<unicode hex="0058"/>
	<advance width="600"/>
	<outline>
		<contour>
			<point x="-8" y="0" type="line"/>
			<point x="102" y="0" type="line"/>
			<point x="304" y="289" type="line"/>
			<point x="429" y="0" type="line"/>
			<point x="534" y="0" type="line"/>
			<point x="374" y="357" type="line"/>
			<point x="616" y="684" type="line"/>
			<point x="507" y="684" type="line"/>
			<point x="320" y="427" type="line"/>
			<point x="205" y="684" type="line"/>
			<point x="102" y="684" type="line"/>
			<point x="252" y="361" type="line"/>
		</contour>
	</outline>
	<anchor name="bottom" x="275" y="0"/>
	<anchor name="top" x="366" y="684"/>
</glyph>
<glyph name="Z" format="2">
	<unicode hex="005A"/>
	<advance width="600"/>
	<outline>
		<contour>
			<point x="23" y="0" type="line"/>
			<point x="503" y="0" type="line"/>
			<point x="514" y="80" type="line"/>
			<point x="155" y="80" type="line"/>
			<point x="586" y="605" type="line"/>
			<point x="598" y="684" type="line"/>
			<point x="136" y="684" type="line"/>
			<point x="124" y="605" type="line"/>
			<point x="477" y="605" type="line"/>
			<point x="34" y="73" type="line"/>
		</contour>
	</outline>
	<anchor name="bottom" x="261" y="0"/>
	<anchor name="top" x="366" y="684"/>
</glyph>
<glyph name="backslash" format="2">
	<unicode hex="005C"/>
	<advance width="600"/>
	<outline>
		<contour>
			<point x="385" y="-163" type="line"/>
			<point x="473" y="-163" type="line"/>
			<point x="229" y="792" type="line"/>
			<point x="142" y="792" type="line"/>
		</contour>
	</outline>
</glyph>
<glyph name="asciicircum" format="2">
	<unicode hex="005E"/>
	<advance width="600"/>
	<outline>
		<contour>
			<point x="70" y="233" type="line"/>
			<point x="160" y="233" type="line"/>
			<point x="337" y="501" type="line"/>
			<point x="434" y="233" type="line"/>
			<point x="522" y="233" type="line"/>
			<point x="389" y="576" type="line"/>
			<point x="300" y="576" type="line"/>
		</contour>
	</outline>
</glyph>
<glyph name="a" format="2">
	<unicode hex="0061"/>
	<advance width="600"/>
	<outline>
		<contour>
			<point x="212" y="-14" type="curve" smooth="yes"/>
			<point x="292" y="-14"/>
			<point x="346" y="28"/>
			<point x="385" y="91" type="curve"/>
			<point x="372" y="0" type="line"/>
			<point x="463" y="0" type="line"/>
			<point x="508" y="321" type="line" smooth="yes"/>
			<point x="530" y="474"/>
			<point x="449" y="537"/>
			<point x="318" y="537" type="curve" smooth="yes"/>
			<point x="243" y="537"/>
			<point x="176" y="517"/>
			<point x="127" y="491" type="curve"/>
			<point x="115" y="407" type="line"/>
			<point x="175" y="446"/>
			<point x="238" y="461"/>
			<point x="299" y="461" type="curve" smooth="yes"/>
			<point x="391" y="461"/>
			<point x="428" y="414"/>
			<point x="417" y="327" type="curve"/>
			<point x="299" y="309" type="line" smooth="yes"/>
			<point x="143" y="286"/>
			<point x="63" y="229"/>
			<point x="64" y="115" type="curve" smooth="yes"/>
			<point x="65" y="35"/>
			<point x="120" y="-14"/>
		</contour>
		<contour>
			<point x="249" y="56" type="curve" smooth="yes"/>
			<point x="193" y="56"/>
			<point x="155" y="85"/>
			<point x="155" y="135" type="curve" smooth="yes"/>
			<point x="154" y="198"/>
			<point x="202" y="231"/>
			<point x="305" y="248" type="curve" smooth="yes"/>
			<point x="407" y="264" type="line"/>
			<point x="398" y="197" type="line" smooth="yes"/>
			<point x="386" y="116"/>
			<point x="329" y="56"/>
		</contour>
	</outline>
	<anchor name="bottom" x="257" y="-1"/>
	<anchor name="ogonek" x="463" y="0"/>
	<anchor name="top" x="338" y="524"/>
</glyph>
<glyph name="c" format="2">
	<unicode hex="0063"/>
	<advance width="600"/>
	<outline>
		<contour>
			<point x="352" y="-12" type="curve" smooth="yes"/>
			<point x="398" y="-12"/>
			<point x="440" y="-4"/>
			<point x="472" y="12" type="curve"/>
			<point x="482" y="90" type="line"/>
			<point x="451" y="73"/>
			<point x="407" y="65"/>
			<point x="368" y="65" type="curve" smooth="yes"/>
			<point x="235" y="65"/>
			<point x="172" y="150"/>
			<point x="190" y="283" type="curve" smooth="yes"/>
			<point x="191" y="290" type="line" smooth="yes"/>
			<point x="207" y="399"/>
			<point x="272" y="457"/>
			<point x="384" y="457" type="curve" smooth="yes"/>
			<point x="446" y="457"/>
			<point x="492" y="444"/>
			<point x="529" y="418" type="curve"/>
			<point x="540" y="496" type="line"/>
			<point x="501" y="521"/>
			<point x="439" y="535"/>
			<point x="378" y="535" type="curve" smooth="yes"/>
			<point x="217" y="535"/>
			<point x="116" y="441"/>
			<point x="96" y="299" type="curve" smooth="yes"/>
			<point x="94" y="285" type="line" smooth="yes"/>
			<point x="69" y="109"/>
			<point x="166" y="-12"/>
		</contour>
	</outline>
	<anchor name="bottom" x="325" y="0"/>
	<anchor name="top" x="399" y="523"/>
</glyph>
<glyph name="f" format="2">
	<unicode hex="0066"/>
	<advance width="600"/>
	<outline>
		<contour>
			<point x="90" y="-204" type="curve" smooth="yes"/>
			<point x="181" y="-204"/>
			<point x="263" y="-167"/>
			<point x="282" y="-33" type="curve" smooth="yes"/>
			<point x="349" y="447" type="line"/>
			<point x="554" y="447" type="line"/>
			<point x="564" y="523" type="line"/>
			<point x="360" y="523" type="line"/>
			<point x="370" y="599" type="line" smooth="yes"/>
			<point x="379" y="666"/>
			<point x="418" y="687"/>
			<point x="474" y="687" type="curve" smooth="yes"/>
			<point x="512" y="687"/>
			<point x="553" y="676"/>
			<point x="577" y="664" type="curve"/>
			<point x="587" y="734" type="line"/>
			<point x="559" y="748"/>
			<point x="509" y="760"/>
			<point x="463" y="760" type="curve" smooth="yes"/>
			<point x="366" y="760"/>
			<point x="292" y="712"/>
			<point x="278" y="609" type="curve" smooth="yes"/>
			<point x="267" y="523" type="line"/>
			<point x="104" y="523" type="line"/>
			<point x="92" y="447" type="line"/>
			<point x="256" y="447" type="line"/>
			<point x="188" y="-21" type="line" smooth="yes"/>
			<point x="178" y="-94"/>
			<point x="151" y="-130"/>
			<point x="80" y="-130" type="curve" smooth="yes"/>
			<point x="41" y="-130"/>
			<point x="4" y="-120"/>
			<point x="-25" y="-104" type="curve"/>
			<point x="-35" y="-175" type="line"/>
			<point x="-7" y="-191"/>
			<point x="41" y="-204"/>
		</contour>
	</outline>
</glyph>
<glyph name="h" format="2">
	<unicode hex="0068"/>
	<advance width="600"/>
	<outline>
		<contour>
			<point x="379" y="537" type="curve" smooth="yes"/>
			<point x="304" y="537"/>
			<point x="247" y="496"/>
			<point x="207" y="425" type="curve"/>
			<point x="252" y="750" type="line"/>
			<point x="159" y="750" type="line"/>
			<point x="54" y="0" type="line"/>
			<point x="147" y="0" type="line"/>
			<point x="193" y="322" type="line" smooth="yes"/>
			<point x="196" y="345"/>
			<point x="203" y="367"/>
			<point x="217" y="388" type="curve" smooth="yes"/>
			<point x="240" y="426"/>
			<point x="276" y="459"/>
			<point x="334" y="459" type="curve" smooth="yes"/>
			<point x="402" y="459"/>
			<point x="443" y="414"/>
			<point x="429" y="313" type="curve" smooth="yes"/>
			<point x="384" y="0" type="line"/>
			<point x="477" y="0" type="line"/>
			<point x="523" y="328" type="line" smooth="yes"/>
			<point x="543" y="465"/>
			<point x="480" y="537"/>
		</contour>
	</outline>
	<anchor name="bottom" x="264" y="0"/>
	<anchor name="caron" x="294" y="744"/>
	<anchor name="center" x="232" y="627"/>
	<anchor name="top" x="202" y="726"/>
</glyph>
<glyph name="j" format="2">
	<unicode hex="006A"/>
	<advance width="600"/>
	<outline>
		<contour>
			<point x="467" y="632" type="curve" smooth="yes"/>
			<point x="514" y="632"/>
			<point x="533" y="650"/>
			<point x="536" y="687" type="curve" smooth="yes"/>
			<point x="541" y="725"/>
			<point x="522" y="744"/>
			<point x="476" y="744" type="curve" smooth="yes"/>
			<point x="428" y="744"/>
			<point x="409" y="725"/>
			<point x="405" y="689" type="curve" smooth="yes"/>
			<point x="401" y="651"/>
			<point x="420" y="632"/>
		</contour>
		<contour>
			<point x="179" y="-204" type="curve" smooth="yes"/>
			<point x="302" y="-204"/>
			<point x="401" y="-160"/>
			<point x="422" y="-10" type="curve" smooth="yes"/>
			<point x="497" y="523" type="line"/>
			<point x="123" y="523" type="line"/>
			<point x="112" y="447" type="line"/>
			<point x="393" y="447" type="line"/>
			<point x="332" y="8" type="line" smooth="yes"/>
			<point x="318" y="-88"/>
			<point x="268" y="-126"/>
			<point x="167" y="-126" type="curve" smooth="yes"/>
			<point x="114" y="-126"/>
			<point x="66" y="-111"/>
			<point x="34" y="-95" type="curve"/>
			<point x="23" y="-171" type="line"/>
			<point x="55" y="-188"/>
			<point x="116" y="-204"/>
		</contour>
	</outline>
</glyph>
<glyph name="k" format="2">
	<unicode hex="006B"/>
	<advance width="600"/>
	<outline>
		<contour>
			<point x="61" y="0" type="line"/>
			<point x="154" y="0" type="line"/>
			<point x="185" y="217" type="line"/>
			<point x="397" y="0" type="line"/>
			<point x="515" y="0" type="line"/>
			<point x="319" y="196" type="line"/>
			<point x="449" y="200"/>
			<point x="537" y="275"/>
			<point x="537" y="394" type="curve" smooth="yes"/>
			<point x="537" y="480"/>
			<point x="480" y="537"/>
			<point x="389" y="537" type="curve" smooth="yes"/>
			<point x="315" y="537"/>
			<point x="256" y="499"/>
			<point x="214" y="426" type="curve"/>
			<point x="260" y="750" type="line"/>
			<point x="167" y="750" type="line"/>
		</contour>
		<contour>
			<point x="345" y="464" type="curve" smooth="yes"/>
			<point x="406" y="464"/>
			<point x="442" y="430"/>
			<point x="442" y="374" type="curve" smooth="yes"/>
			<point x="442" y="292"/>
			<point x="384" y="244"/>
			<point x="279" y="244" type="curve" smooth="yes"/>
			<point x="189" y="244" type="line"/>
			<point x="198" y="309" type="line" smooth="yes"/>
			<point x="211" y="399"/>
			<point x="263" y="464"/>
		</contour>
	</outline>
	<anchor name="bottom" x="267" y="0"/>
</glyph>
<glyph name="l" format="2">
	<unicode hex="006C"/>
	<advance width="600"/>
	<outline>
		<contour>
			<point x="37" y="0" type="line"/>
			<point x="497" y="0" type="line"/>
			<point x="508" y="76" type="line"/>
			<point x="329" y="76" type="line"/>
			<point x="426" y="750" type="line"/>
			<point x="145" y="750" type="line"/>
			<point x="134" y="674" type="line"/>
			<point x="323" y="674" type="line"/>
			<point x="236" y="76" type="line"/>
			<point x="49" y="76" type="line"/>
		</contour>
	</outline>
	<anchor name="bottom" x="271" y="-1"/>
	<anchor name="caron" x="550" y="750"/>
	<anchor name="center" x="325" y="374"/>
	<anchor name="top" x="379" y="732"/>
</glyph>
<glyph name="n" format="2">
	<unicode hex="006E"/>
	<advance width="600"/>
	<outline>
		<contour>
			<point x="54" y="0" type="line"/>
			<point x="147" y="0" type="line"/>
			<point x="190" y="302" type="line" smooth="yes"/>
			<point x="194" y="331"/>
			<point x="200" y="361"/>
			<point x="218" y="389" type="curve" smooth="yes"/>
			<point x="240" y="427"/>
			<point x="275" y="459"/>
			<point x="334" y="459" type="curve" smooth="yes"/>
			<point x="402" y="459"/>
			<point x="443" y="414"/>
			<point x="429" y="313" type="curve" smooth="yes"/>
			<point x="384" y="0" type="line"/>
			<point x="477" y="0" type="line"/>
			<point x="523" y="328" type="line" smooth="yes"/>
			<point x="543" y="465"/>
			<point x="482" y="537"/>
			<point x="379" y="537" type="curve" smooth="yes"/>
			<point x="302" y="537"/>
			<point x="243" y="495"/>
			<point x="203" y="421" type="curve"/>
			<point x="218" y="523" type="line"/>
			<point x="127" y="523" type="line"/>
		</contour>
	</outline>
	<anchor name="bottom" x="264" y="0"/>
	<anchor name="top" x="338" y="523"/>
</glyph>
<glyph name="o" format="2">
	<unicode hex="006F"/>
	<advance width="600"/>
	<outline>
		<contour>
			<point x="282" y="-14" type="curve" smooth="yes"/>
			<point x="417" y="-14"/>
			<point x="510" y="78"/>
			<point x="532" y="229" type="curve" smooth="yes"/>
			<point x="534" y="243" type="line" smooth="yes"/>
			<point x="559" y="420"/>
			<point x="475" y="537"/>
			<point x="320" y="537" type="curve" smooth="yes"/>
			<point x="190" y="537"/>
			<point x="90" y="445"/>
			<point x="68" y="295" type="curve" smooth="yes"/>
			<point x="66" y="281" type="line" smooth="yes"/>
			<point x="40" y="101"/>
			<point x="126" y="-14"/>
		</contour>
		<contour>
			<point x="285" y="62" type="curve" smooth="yes"/>
			<point x="194" y="62"/>
			<point x="142" y="136"/>
			<point x="162" y="275" type="curve" smooth="yes"/>
			<point x="163" y="282" type="line" smooth="yes"/>
			<point x="180" y="403"/>
			<point x="238" y="462"/>
			<point x="316" y="462" type="curve" smooth="yes"/>
			<point x="407" y="462"/>
			<point x="459" y="388"/>
			<point x="438" y="249" type="curve" smooth="yes"/>
			<point x="437" y="242" type="line" smooth="yes"/>
			<point x="420" y="121"/>
			<point x="363" y="62"/>
		</contour>
	</outline>
	<anchor name="bottom" x="258" y="-4"/>
	<anchor name="center" x="300" y="271"/>
	<anchor name="top" x="334" y="523"/>
</glyph>
<glyph name="p" format="2">
	<unicode hex="0070"/>
	<advance width="600"/>
	<outline>
		<contour>
			<point x="373" y="537" type="curve" smooth="yes"/>
			<point x="306" y="537"/>
			<point x="246" y="503"/>
			<point x="202" y="422" type="curve"/>
			<point x="216" y="523" type="line"/>
			<point x="126" y="523" type="line"/>
			<point x="26" y="-194" type="line"/>
			<point x="119" y="-194" type="line"/>
			<point x="146" y="0" type="line"/>
			<point x="226" y="0" type="line" smooth="yes"/>
			<point x="400" y="0"/>
			<point x="510" y="99"/>
			<point x="533" y="260" type="curve" smooth="yes"/>
			<point x="535" y="274" type="line" smooth="yes"/>
			<point x="559" y="441"/>
			<point x="489" y="537"/>
		</contour>
		<contour>
			<point x="440" y="272" type="curve" smooth="yes"/>
			<point x="439" y="265" type="line"/>
			<point x="420" y="137"/>
			<point x="350" y="74"/>
			<point x="232" y="74" type="curve" smooth="yes"/>
			<point x="156" y="74" type="line"/>
			<point x="188" y="301" type="line" smooth="yes"/>
			<point x="201" y="394"/>
			<point x="252" y="461"/>
			<point x="334" y="461" type="curve" smooth="yes"/>
			<point x="414" y="461"/>
			<point x="457" y="395"/>
		</contour>
	</outline>
	<anchor name="bottom" x="267" y="0"/>
	<anchor name="ogonek" x="152" y="550"/>
</glyph>
<glyph name="v" format="2">
	<unicode hex="0076"/>
	<advance width="600"/>
	<outline>
		<contour>
			<point x="249" y="-14" type="curve" smooth="yes"/>
			<point x="413" y="-14"/>
			<point x="518" y="123"/>
			<point x="541" y="317" type="curve" smooth="yes"/>
			<point x="551" y="393"/>
			<point x="545" y="461"/>
			<point x="529" y="522" type="curve"/>
			<point x="439" y="523" type="line"/>
			<point x="454" y="462"/>
			<point x="460" y="402"/>
			<point x="452" y="328" type="curve" smooth="yes"/>
			<point x="432" y="163"/>
			<point x="361" y="61"/>
			<point x="263" y="61" type="curve" smooth="yes"/>
			<point x="212" y="61"/>
			<point x="188" y="88"/>
			<point x="196" y="146" type="curve" smooth="yes"/>
			<point x="248" y="523" type="line"/>
			<point x="58" y="523" type="line"/>
			<point x="48" y="448" type="line"/>
			<point x="148" y="448" type="line"/>
			<point x="105" y="139" type="line" smooth="yes"/>
			<point x="92" y="44"/>
			<point x="139" y="-14"/>
		</contour>
	</outline>
</glyph>
<glyph name="z" format="2">
	<unicode hex="007A"/>
	<advance width="600"/>
	<outline>
		<contour>
			<point x="55" y="0" type="line"/>
			<point x="471" y="0" type="line"/>
			<point x="481" y="76" type="line"/>
			<point x="187" y="76" type="line"/>
			<point x="532" y="451" type="line"/>
			<point x="542" y="523" type="line"/>
			<point x="133" y="523" type="line"/>
			<point x="123" y="447" type="line"/>
			<point x="412" y="447" type="line"/>
			<point x="65" y="69" type="line"/>
		</contour>
	</outline>
	<anchor name="bottom" x="263" y="0"/>
	<anchor name="top" x="338" y="523"/>
</glyph>
<glyph name="braceleft" format="2">
	<unicode hex="007B"/>
	<advance width="600"/>
	<outline>
		<contour>
			<point x="125" y="272" type="line"/>
			<point x="202" y="272" type="line" smooth="yes"/>
			<point x="252" y="272"/>
			<point x="269" y="241"/>
			<point x="269" y="212" type="curve" smooth="yes"/>
			<point x="269" y="135"/>
			<point x="132" y="86"/>
			<point x="132" y="-37" type="curve" smooth="yes"/>
			<point x="132" y="-105"/>
			<point x="175" y="-163"/>
			<point x="286" y="-163" type="curve" smooth="yes"/>
			<point x="431" y="-163" type="line"/>
			<point x="440" y="-93" type="line"/>
			<point x="318" y="-93" type="line" smooth="yes"/>
			<point x="259" y="-93"/>
			<point x="228" y="-70"/>
			<point x="228" y="-23" type="curve" smooth="yes"/>
			<point x="228" y="71"/>
			<point x="363" y="114"/>
			<point x="363" y="217" type="curve" smooth="yes"/>
			<point x="363" y="266"/>
			<point x="323" y="303"/>
			<point x="270" y="313" type="curve"/>
			<point x="325" y="321"/>
			<point x="394" y="352"/>
			<point x="394" y="433" type="curve" smooth="yes"/>
			<point x="394" y="512"/>
			<point x="321" y="574"/>
			<point x="321" y="644" type="curve" smooth="yes"/>
			<point x="321" y="704"/>
			<point x="364" y="722"/>
			<point x="429" y="722" type="curve" smooth="yes"/>
			<point x="555" y="722" type="line"/>
			<point x="565" y="792" type="line"/>
			<point x="403" y="792" type="line" smooth="yes"/>
			<point x="293" y="792"/>
			<point x="229" y="737"/>
			<point x="229" y="653" type="curve" smooth="yes"/>
			<point x="229" y="568"/>
			<point x="302" y="500"/>
			<point x="302" y="431" type="curve" smooth="yes"/>
			<point x="302" y="389"/>
			<point x="272" y="355"/>
			<point x="220" y="355" type="curve" smooth="yes"/>
			<point x="137" y="355" type="line"/>
		</contour>
	</outline>
</glyph>
<glyph name="bar" format="2">
	<unicode hex="007C"/>
	<advance width="600"/>
	<outline>
		<contour>
			<point x="331" y="792" type="line"/>
			<point x="196" y="-163" type="line"/>
			<point x="284" y="-163" type="line"/>
			<point x="418" y="792" type="line"/>
		</contour>
	</outline>
</glyph>
<glyph name="braceright" format="2">
	<unicode hex="007D"/>
	<advance width="600"/>
	<outline>
		<contour>
			<point x="50" y="-163" type="line"/>
			<point x="211" y="-163" type="line" smooth="yes"/>
			<point x="323" y="-163"/>
			<point x="385" y="-108"/>
			<point x="385" y="-24" type="curve" smooth="yes"/>
			<point x="385" y="61"/>
			<point x="312" y="129"/>
			<point x="312" y="197" type="curve" smooth="yes"/>
			<point x="312" y="239"/>
			<point x="343" y="274"/>
			<point x="396" y="274" type="curve" smooth="yes"/>
			<point x="478" y="274" type="line"/>
			<point x="490" y="357" type="line"/>
			<point x="414" y="357" type="line" smooth="yes"/>
			<point x="363" y="357"/>
			<point x="346" y="388"/>
			<point x="346" y="416" type="curve" smooth="yes"/>
			<point x="346" y="494"/>
			<point x="484" y="543"/>
			<point x="484" y="666" type="curve" smooth="yes"/>
			<point x="484" y="734"/>
			<point x="440" y="792"/>
			<point x="330" y="792" type="curve" smooth="yes"/>
			<point x="185" y="792" type="line"/>
			<point x="175" y="722" type="line"/>
			<point x="297" y="722" type="line" smooth="yes"/>
			<point x="356" y="722"/>
			<point x="388" y="699"/>
			<point x="388" y="652" type="curve" smooth="yes"/>
			<point x="388" y="558"/>
			<point x="252" y="515"/>
			<point x="252" y="411" type="curve" smooth="yes"/>
			<point x="252" y="363"/>
			<point x="292" y="326"/>
			<point x="344" y="316" type="curve"/>
			<point x="292" y="308"/>
			<point x="220" y="278"/>
			<point x="220" y="196" type="curve" smooth="yes"/>
			<point x="220" y="117"/>
			<point x="294" y="55"/>
			<point x="294" y="-15" type="curve" smooth="yes"/>
			<point x="294" y="-75"/>
			<point x="251" y="-93"/>
			<point x="187" y="-93" type="curve" smooth="yes"/>
			<point x="60" y="-93" type="line"/>
		</contour>
	</outline>
</glyph>
<glyph name="asciitilde" format="2">
	<unicode hex="007E"/>
	<advance width="600"/>
	<outline>
		<contour>
			<point x="65" y="212" type="curve"/>
			<point x="143" y="212" type="line"/>
			<point x="153" y="291"/>
			<point x="173" y="330"/>
			<point x="214" y="330" type="curve" smooth="yes"/>
			<point x="280" y="330"/>
			<point x="303" y="208"/>
			<point x="403" y="208" type="curve" smooth="yes"/>
			<point x="478" y="208"/>
			<point x="528" y="257"/>
			<point x="548" y="408" type="curve"/>
			<point x="470" y="407" type="line"/>
			<point x="460" y="329"/>
			<point x="443" y="293"/>
			<point x="403" y="293" type="curve" smooth="yes"/>
			<point x="339" y="293"/>
			<point x="311" y="414"/>
			<point x="210" y="414" type="curve" smooth="yes"/>
			<point x="123" y="414"/>
			<point x="83" y="338"/>
		</contour>
	</outline>
</glyph>
<glyph name="exclamdown" format="2">
	<unicode hex="00A1"/>
	<advance width="600"/>
	<outline>
		<contour>
			<point x="333" y="535" type="curve" smooth="yes"/>
			<point x="285" y="535"/>
			<point x="265" y="516"/>
			<point x="260" y="476" type="curve" smooth="yes"/>
			<point x="254" y="433"/>
			<point x="274" y="408"/>
			<point x="326" y="408" type="curve" smooth="yes"/>
			<point x="373" y="408"/>
			<point x="394" y="428"/>
			<point x="399" y="467" type="curve" smooth="yes"/>
			<point x="405" y="511"/>
			<point x="385" y="535"/>
		</contour>
		<contour>
			<point x="343" y="320" type="line"/>
			<point x="276" y="320" type="line"/>
			<point x="211" y="-18" type="line"/>
			<point x="190" y="-161" type="line"/>
			<point x="294" y="-161" type="line"/>
			<point x="313" y="-19" type="line"/>
		</contour>
	</outline>
</glyph>
<glyph name="cent" format="2">
	<unicode hex="00A2"/>
	<advance width="600"/>
	<outline>
		<contour>
			<point x="250" y="-93" type="line"/>
			<point x="323" y="-93" type="line"/>
			<point x="342" y="-12" type="line"/>
			<point x="352" y="-12" type="line" smooth="yes"/>
			<point x="398" y="-12"/>
			<point x="440" y="-4"/>
			<point x="472" y="12" type="curve"/>
			<point x="482" y="90" type="line"/>
			<point x="451" y="73"/>
			<point x="407" y="65"/>
			<point x="368" y="65" type="curve" smooth="yes"/>
			<point x="357" y="65" type="line"/>
			<point x="442" y="453" type="line"/>
			<point x="477" y="447"/>
			<point x="505" y="435"/>
			<point x="529" y="418" type="curve"/>
			<point x="540" y="496" type="line"/>
			<point x="518" y="510"/>
			<point x="490" y="520"/>
			<point x="459" y="527" type="curve"/>
			<point x="478" y="615" type="line"/>
			<point x="404" y="615" type="line"/>
			<point x="387" y="535" type="line"/>
			<point x="378" y="535" type="line" smooth="yes"/>
			<point x="217" y="535"/>
			<point x="116" y="441"/>
			<point x="96" y="299" type="curve" smooth="yes"/>
			<point x="94" y="285" type="line" smooth="yes"/>
			<point x="73" y="137"/>
			<point x="138" y="28"/>
			<point x="270" y="-3" type="curve"/>
		</contour>
		<contour>
			<point x="190" y="283" type="curve" smooth="yes"/>
			<point x="191" y="290" type="line" smooth="yes"/>
			<point x="206" y="395"/>
			<point x="267" y="453"/>
			<point x="372" y="457" type="curve"/>
			<point x="288" y="78" type="line"/>
			<point x="210" y="106"/>
			<point x="176" y="181"/>
		</contour>
	</outline>
</glyph>
<glyph name="currency" format="2">
	<unicode hex="00A4"/>
	<advance width="600"/>
	<outline>
		<contour>
			<point x="84" y="71" type="line"/>
			<point x="170" y="154" type="line"/>
			<point x="201" y="129"/>
			<point x="242" y="115"/>
			<point x="292" y="115" type="curve" smooth="yes"/>
			<point x="334" y="115"/>
			<point x="373" y="126"/>
			<point x="406" y="147" type="curve"/>
			<point x="472" y="61" type="line"/>
			<point x="532" y="110" type="line"/>
			<point x="462" y="199" type="line"/>
			<point x="493" y="240"/>
			<point x="512" y="295"/>
			<point x="514" y="358" type="curve" smooth="yes"/>
			<point x="516" y="401"/>
			<point x="509" y="439"/>
			<point x="494" y="471" type="curve"/>
			<point x="585" y="557" type="line"/>
			<point x="535" y="610" type="line"/>
			<point x="449" y="527" type="line"/>
			<point x="418" y="552"/>
			<point x="378" y="565"/>
			<point x="330" y="565" type="curve" smooth="yes"/>
			<point x="288" y="565"/>
			<point x="250" y="555"/>
			<point x="218" y="535" type="curve"/>
			<point x="151" y="622" type="line"/>
			<point x="92" y="572" type="line"/>
			<point x="161" y="484" type="line"/>
			<point x="128" y="443"/>
			<point x="108" y="387"/>
			<point x="105" y="322" type="curve" smooth="yes"/>
			<point x="103" y="280"/>
			<point x="110" y="242"/>
			<point x="125" y="211" type="curve"/>
			<point x="34" y="125" type="line"/>
		</contour>
		<contour>
			<point x="297" y="189" type="curve" smooth="yes"/>
			<point x="223" y="189"/>
			<point x="180" y="238"/>
			<point x="183" y="324" type="curve" smooth="yes"/>
			<point x="186" y="428"/>
			<point x="236" y="491"/>
			<point x="324" y="491" type="curve" smooth="yes"/>
			<point x="397" y="491"/>
			<point x="439" y="441"/>
			<point x="437" y="356" type="curve" smooth="yes"/>
			<point x="434" y="252"/>
			<point x="383" y="189"/>
		</contour>
	</outline>
</glyph>
<glyph name="yen" format="2">
	<unicode hex="00A5"/>
	<advance width="600"/>
	<outline>
		<contour>
			<point x="72" y="180" type="line"/>
			<point x="237" y="180" type="line"/>
			<point x="211" y="0" type="line"/>
			<point x="307" y="0" type="line"/>
			<point x="332" y="180" type="line"/>
			<point x="498" y="180" type="line"/>
			<point x="506" y="243" type="line"/>
			<point x="348" y="243" type="line"/>
			<point x="393" y="313" type="line"/>
			<point x="516" y="313" type="line"/>
			<point x="524" y="376" type="line"/>
			<point x="433" y="376" type="line"/>
			<point x="631" y="684" type="line"/>
			<point x="526" y="684" type="line"/>
			<point x="306" y="327" type="line"/>
			<point x="189" y="684" type="line"/>
			<point x="87" y="684" type="line"/>
			<point x="193" y="376" type="line"/>
			<point x="99" y="376" type="line"/>
			<point x="91" y="313" type="line"/>
			<point x="215" y="313" type="line"/>
			<point x="239" y="243" type="line"/>
			<point x="81" y="243" type="line"/>
		</contour>
	</outline>
</glyph>
<glyph name="section" format="2">
	<unicode hex="00A7"/>
	<advance width="600"/>
	<outline>
		<contour>
			<point x="274" y="-85" type="curve" smooth="yes"/>
			<point x="388" y="-85"/>
			<point x="472" y="-18"/>
			<point x="472" y="93" type="curve" smooth="yes"/>
			<point x="472" y="141"/>
			<point x="449" y="180"/>
			<point x="408" y="204" type="curve"/>
			<point x="473" y="219"/>
			<point x="525" y="261"/>
			<point x="525" y="331" type="curve" smooth="yes"/>
			<point x="525" y="415"/>
			<point x="440" y="436"/>
			<point x="345" y="453" type="curve" smooth="yes"/>
			<point x="275" y="465"/>
			<point x="226" y="476"/>
			<point x="226" y="537" type="curve" smooth="yes"/>
			<point x="226" y="594"/>
			<point x="269" y="630"/>
			<point x="342" y="630" type="curve" smooth="yes"/>
			<point x="417" y="630"/>
			<point x="485" y="606"/>
			<point x="529" y="571" type="curve"/>
			<point x="540" y="645" type="line"/>
			<point x="502" y="671"/>
			<point x="437" y="698"/>
			<point x="342" y="698" type="curve" smooth="yes"/>
			<point x="227" y="698"/>
			<point x="142" y="633"/>
			<point x="142" y="524" type="curve" smooth="yes"/>
			<point x="142" y="462"/>
			<point x="169" y="425"/>
			<point x="208" y="404" type="curve"/>
			<point x="136" y="388"/>
			<point x="88" y="349"/>
			<point x="88" y="281" type="curve" smooth="yes"/>
			<point x="88" y="196"/>
			<point x="172" y="175"/>
			<point x="276" y="158" type="curve" smooth="yes"/>
			<point x="339" y="148"/>
			<point x="387" y="132"/>
			<point x="387" y="78" type="curve" smooth="yes"/>
			<point x="387" y="20"/>
			<point x="345" y="-15"/>
			<point x="272" y="-15" type="curve" smooth="yes"/>
			<point x="201" y="-15"/>
			<point x="132" y="12"/>
			<point x="79" y="55" type="curve"/>
			<point x="69" y="-20" type="line"/>
			<point x="113" y="-55"/>
			<point x="181" y="-85"/>
		</contour>
		<contour>
			<point x="316" y="232" type="curve" smooth="yes"/>
			<point x="247" y="244"/>
			<point x="165" y="252"/>
			<point x="165" y="313" type="curve" smooth="yes"/>
			<point x="165" y="359"/>
			<point x="204" y="386"/>
			<point x="266" y="384" type="curve"/>
			<point x="268" y="383"/>
			<point x="270" y="383"/>
			<point x="272" y="383" type="curve"/>
			<point x="271" y="383" type="line"/>
			<point x="280" y="383"/>
			<point x="290" y="382"/>
			<point x="300" y="380" type="curve" smooth="yes"/>
			<point x="372" y="369"/>
			<point x="449" y="360"/>
			<point x="449" y="301" type="curve" smooth="yes"/>
			<point x="449" y="249"/>
			<point x="402" y="215"/>
		</contour>
	</outline>
</glyph>
<glyph name="dieresis" format="2">
	<unicode hex="00A8"/>
	<advance width="600"/>
	<outline>
		<contour>
			<point x="452" y="627" type="curve" smooth="yes"/>
			<point x="498" y="627"/>
			<point x="513" y="645"/>
			<point x="517" y="681" type="curve" smooth="yes"/>
			<point x="521" y="713"/>
			<point x="507" y="734"/>
			<point x="462" y="734" type="curve" smooth="yes"/>
			<point x="417" y="734"/>
			<point x="401" y="715"/>
			<point x="397" y="681" type="curve" smooth="yes"/>
			<point x="394" y="647"/>
			<point x="408" y="627"/>
		</contour>
		<contour>
			<point x="256" y="627" type="curve" smooth="yes"/>
			<point x="301" y="627"/>
			<point x="316" y="645"/>
			<point x="320" y="681" type="curve" smooth="yes"/>
			<point x="324" y="713"/>
			<point x="310" y="734"/>
			<point x="265" y="734" type="curve" smooth="yes"/>
			<point x="220" y="734"/>
			<point x="204" y="715"/>
			<point x="201" y="681" type="curve" smooth="yes"/>
			<point x="197" y="647"/>
			<point x="211" y="627"/>
		</contour>
	</outline>
	<anchor name="_top" x="337" y="523"/>
</glyph>
<glyph name="copyright" format="2">
	<unicode hex="00A9"/>
	<advance width="600"/>
	<outline>
		<contour>
			<point x="302" y="105" type="curve" smooth="yes"/>
			<point x="441" y="105"/>
			<point x="547" y="193"/>
			<point x="569" y="345" type="curve" smooth="yes"/>
			<point x="571" y="359" type="line" smooth="yes"/>
			<point x="595" y="532"/>
			<point x="496" y="657"/>
			<point x="331" y="657" type="curve" smooth="yes"/>
			<point x="189" y="657"/>
			<point x="86" y="569"/>
			<point x="65" y="419" type="curve" smooth="yes"/>
			<point x="63" y="405" type="line" smooth="yes"/>
			<point x="38" y="231"/>
			<point x="138" y="105"/>
		</contour>
		<contour>
			<point x="306" y="153" type="curve" smooth="yes"/>
			<point x="168" y="153"/>
			<point x="93" y="255"/>
			<point x="114" y="404" type="curve" smooth="yes"/>
			<point x="115" y="411" type="line" smooth="yes"/>
			<point x="133" y="540"/>
			<point x="211" y="609"/>
			<point x="328" y="609" type="curve" smooth="yes"/>
			<point x="466" y="609"/>
			<point x="540" y="507"/>
			<point x="519" y="360" type="curve" smooth="yes"/>
			<point x="518" y="353" type="line" smooth="yes"/>
			<point x="500" y="222"/>
			<point x="420" y="153"/>
		</contour>
		<contour>
			<point x="327" y="243" type="curve" smooth="yes"/>
			<point x="346" y="243"/>
			<point x="360" y="246"/>
			<point x="373" y="251" type="curve"/>
			<point x="379" y="294" type="line"/>
			<point x="368" y="289"/>
			<point x="352" y="285"/>
			<point x="336" y="285" type="curve" smooth="yes"/>
			<point x="285" y="285"/>
			<point x="249" y="320"/>
			<point x="259" y="389" type="curve" smooth="yes"/>
			<point x="267" y="444"/>
			<point x="298" y="474"/>
			<point x="347" y="474" type="curve" smooth="yes"/>
			<point x="371" y="474"/>
			<point x="390" y="467"/>
			<point x="402" y="461" type="curve"/>
			<point x="407" y="502" type="line"/>
			<point x="395" y="510"/>
			<point x="370" y="516"/>
			<point x="342" y="516" type="curve" smooth="yes"/>
			<point x="267" y="516"/>
			<point x="219" y="469"/>
			<point x="208" y="396" type="curve" smooth="yes"/>
			<point x="194" y="310"/>
			<point x="240" y="243"/>
		</contour>
	</outline>
</glyph>
<glyph name="ordfeminine" format="2">
	<unicode hex="00AA"/>
	<advance width="600"/>
	<outline>
		<contour>
			<point x="246" y="224" type="curve" smooth="yes"/>
			<point x="317" y="224"/>
			<point x="369" y="257"/>
			<point x="405" y="322" type="curve"/>
			<point x="392" y="235" type="line"/>
			<point x="470" y="235" type="line"/>
			<point x="508" y="506" type="line" smooth="yes"/>
			<point x="527" y="637"/>
			<point x="457" y="696"/>
			<point x="333" y="696" type="curve" smooth="yes"/>
			<point x="258" y="696"/>
			<point x="204" y="675"/>
			<point x="170" y="656" type="curve"/>
			<point x="160" y="583" type="line"/>
			<point x="209" y="618"/>
			<point x="262" y="633"/>
			<point x="317" y="633" type="curve" smooth="yes"/>
			<point x="394" y="633"/>
			<point x="442" y="603"/>
			<point x="430" y="514" type="curve"/>
			<point x="324" y="499" type="line" smooth="yes"/>
			<point x="186" y="479"/>
			<point x="115" y="429"/>
			<point x="115" y="339" type="curve" smooth="yes"/>
			<point x="115" y="269"/>
			<point x="164" y="224"/>
		</contour>
		<contour>
			<point x="276" y="284" type="curve" smooth="yes"/>
			<point x="226" y="284"/>
			<point x="194" y="308"/>
			<point x="194" y="351" type="curve" smooth="yes"/>
			<point x="194" y="414"/>
			<point x="246" y="436"/>
			<point x="334" y="449" type="curve" smooth="yes"/>
			<point x="423" y="463" type="line"/>
			<point x="417" y="421" type="line" smooth="yes"/>
			<point x="404" y="328"/>
			<point x="346" y="284"/>
		</contour>
	</outline>
	<anchor name="bottom" x="207" y="234"/>
	<anchor name="ogonek" x="388" y="235"/>
	<anchor name="right" x="404" y="235"/>
	<anchor name="top" x="273" y="685"/>
</glyph>
<glyph name="acute" format="2">
	<unicode hex="00B4"/>
	<advance width="600"/>
	<outline>
		<contour>
			<point x="473" y="750" type="line"/>
			<point x="363" y="750" type="line"/>
			<point x="268" y="604" type="line"/>
			<point x="347" y="604" type="line"/>
		</contour>
	</outline>
	<anchor name="_top" x="298" y="523"/>
</glyph>
<glyph name="paragraph" format="2">
	<unicode hex="00B6"/>
	<advance width="600"/>
	<outline>
		<contour>
			<point x="278" y="0" type="line"/>
			<point x="353" y="0" type="line"/>
			<point x="439" y="612" type="line"/>
			<point x="510" y="612" type="line"/>
			<point x="424" y="0" type="line"/>
			<point x="499" y="0" type="line"/>
			<point x="596" y="684" type="line"/>
			<point x="310" y="684" type="line" smooth="yes"/>
			<point x="157" y="684"/>
			<point x="71" y="591"/>
			<point x="71" y="445" type="curve" smooth="yes"/>
			<point x="71" y="318"/>
			<point x="149" y="249"/>
			<point x="284" y="249" type="curve" smooth="yes"/>
			<point x="315" y="249" type="line"/>
		</contour>
	</outline>
</glyph>
<glyph name="cedilla" format="2">
	<unicode hex="00B8"/>
	<advance width="600"/>
	<outline>
		<contour>
			<point x="223" y="-221" type="curve" smooth="yes"/>
			<point x="295" y="-221"/>
			<point x="340" y="-186"/>
			<point x="341" y="-124" type="curve" smooth="yes"/>
			<point x="342" y="-77"/>
			<point x="316" y="-51"/>
			<point x="264" y="-47" type="curve"/>
			<point x="292" y="0" type="line"/>
			<point x="234" y="0" type="line"/>
			<point x="180" y="-91" type="line"/>
			<point x="193" y="-89"/>
			<point x="204" y="-88"/>
			<point x="217" y="-88" type="curve" smooth="yes"/>
			<point x="254" y="-88"/>
			<point x="275" y="-98"/>
			<point x="275" y="-124" type="curve" smooth="yes"/>
			<point x="275" y="-155"/>
			<point x="253" y="-167"/>
			<point x="216" y="-167" type="curve" smooth="yes"/>
			<point x="189" y="-167"/>
			<point x="163" y="-159"/>
			<point x="143" y="-148" type="curve"/>
			<point x="135" y="-200" type="line"/>
			<point x="155" y="-212"/>
			<point x="189" y="-221"/>
		</contour>
	</outline>
	<anchor name="_bottom" x="262" y="0"/>
</glyph>
<glyph name="Ccedilla" format="2">
	<unicode hex="00C7"/>
	<advance width="600"/>
	<outline>
		<contour>
			<point x="288" y="-221" type="curve" smooth="yes"/>
			<point x="360" y="-221"/>
			<point x="405" y="-186"/>
			<point x="406" y="-124" type="curve" smooth="yes"/>
			<point x="407" y="-77"/>
			<point x="381" y="-51"/>
			<point x="329" y="-47" type="curve"/>
			<point x="350" y="-12" type="line"/>
			<point x="364" y="-12" type="line" smooth="yes"/>
			<point x="423" y="-12"/>
			<point x="466" y="-1"/>
			<point x="501" y="15" type="curve"/>
			<point x="513" y="97" type="line"/>
			<point x="472" y="78"/>
			<point x="426" y="68"/>
			<point x="378" y="68" type="curve" smooth="yes"/>
			<point x="206" y="68"/>
			<point x="152" y="214"/>
			<point x="175" y="370" type="curve" smooth="yes"/>
			<point x="176" y="377" type="line" smooth="yes"/>
			<point x="198" y="528"/>
			<point x="277" y="615"/>
			<point x="416" y="615" type="curve" smooth="yes"/>
			<point x="475" y="615"/>
			<point x="531" y="599"/>
			<point x="576" y="568" type="curve"/>
			<point x="589" y="652" type="line"/>
			<point x="548" y="676"/>
			<point x="485" y="695"/>
			<point x="412" y="695" type="curve" smooth="yes"/>
			<point x="216" y="695"/>
			<point x="106" y="571"/>
			<point x="80" y="391" type="curve" smooth="yes"/>
			<point x="78" y="377" type="line" smooth="yes"/>
			<point x="52" y="198"/>
			<point x="110" y="27"/>
			<point x="295" y="-6" type="curve"/>
			<point x="245" y="-91" type="line"/>
			<point x="258" y="-89"/>
			<point x="269" y="-88"/>
			<point x="282" y="-88" type="curve" smooth="yes"/>
			<point x="319" y="-88"/>
			<point x="340" y="-98"/>
			<point x="340" y="-124" type="curve" smooth="yes"/>
			<point x="340" y="-155"/>
			<point x="318" y="-167"/>
			<point x="281" y="-167" type="curve" smooth="yes"/>
			<point x="254" y="-167"/>
			<point x="228" y="-159"/>
			<point x="208" y="-148" type="curve"/>
			<point x="200" y="-200" type="line"/>
			<point x="220" y="-212"/>
			<point x="254" y="-221"/>
		</contour>
	</outline>
</glyph>
<glyph name="Oslash" format="2">
	<unicode hex="00D8"/>
	<advance width="600"/>
	<outline>
		<contour>
			<point x="279" y="-14" type="curve" smooth="yes"/>
			<point x="436" y="-14"/>
			<point x="525" y="112"/>
			<point x="552" y="305" type="curve" smooth="yes"/>
			<point x="554" y="319" type="line" smooth="yes"/>
			<point x="571" y="433"/>
			<point x="564" y="522"/>
			<point x="535" y="586" type="curve"/>
			<point x="626" y="708" type="line"/>
			<point x="541" y="708" type="line"/>
			<point x="494" y="645" type="line"/>
			<point x="458" y="680"/>
			<point x="408" y="698"/>
			<point x="346" y="698" type="curve" smooth="yes"/>
			<point x="193" y="698"/>
			<point x="98" y="571"/>
			<point x="70" y="378" type="curve" smooth="yes"/>
			<point x="68" y="364" type="line" smooth="yes"/>
			<point x="52" y="251"/>
			<point x="59" y="163"/>
			<point x="87" y="100" type="curve"/>
			<point x="-5" y="-24" type="line"/>
			<point x="79" y="-24" type="line"/>
			<point x="127" y="41" type="line"/>
			<point x="163" y="5"/>
			<point x="214" y="-14"/>
		</contour>
		<contour>
			<point x="165" y="359" type="curve" smooth="yes"/>
			<point x="166" y="366" type="line" smooth="yes"/>
			<point x="190" y="538"/>
			<point x="250" y="619"/>
			<point x="342" y="619" type="curve" smooth="yes"/>
			<point x="385" y="619"/>
			<point x="417" y="602"/>
			<point x="438" y="569" type="curve"/>
			<point x="159" y="195" type="line"/>
			<point x="153" y="239"/>
			<point x="155" y="294"/>
		</contour>
		<contour>
			<point x="282" y="65" type="curve" smooth="yes"/>
			<point x="237" y="65"/>
			<point x="205" y="83"/>
			<point x="184" y="117" type="curve"/>
			<point x="463" y="490" type="line"/>
			<point x="469" y="446"/>
			<point x="467" y="392"/>
			<point x="458" y="327" type="curve" smooth="yes"/>
			<point x="457" y="320" type="line" smooth="yes"/>
			<point x="432" y="146"/>
			<point x="376" y="65"/>
		</contour>
	</outline>
</glyph>
<glyph name="ae" format="2">
	<unicode hex="00E6"/>
	<advance width="600"/>
	<outline>
		<contour>
			<point x="108" y="-14" type="curve" smooth="yes"/>
			<point x="165" y="-14"/>
			<point x="217" y="19"/>
			<point x="249" y="109" type="curve"/>
			<point x="267" y="31"/>
			<point x="316" y="-14"/>
			<point x="416" y="-14" type="curve" smooth="yes"/>
			<point x="464" y="-14"/>
			<point x="514" y="6"/>
			<point x="536" y="24" type="curve"/>
			<point x="546" y="100" type="line"/>
			<point x="513" y="75"/>
			<point x="474" y="59"/>
			<point x="433" y="59" type="curve" smooth="yes"/>
			<point x="340" y="59"/>
			<point x="311" y="125"/>
			<point x="325" y="237" type="curve"/>
			<point x="579" y="237" type="line"/>
			<point x="586" y="280" type="line" smooth="yes"/>
			<point x="609" y="424"/>
			<point x="577" y="537"/>
			<point x="458" y="537" type="curve" smooth="yes"/>
			<point x="406" y="537"/>
			<point x="361" y="511"/>
			<point x="327" y="462" type="curve"/>
			<point x="311" y="510"/>
			<point x="271" y="537"/>
			<point x="204" y="537" type="curve" smooth="yes"/>
			<point x="137" y="537"/>
			<point x="85" y="510"/>
			<point x="58" y="493" type="curve"/>
			<point x="47" y="413" type="line"/>
			<point x="91" y="449"/>
			<point x="142" y="464"/>
			<point x="184" y="464" type="curve" smooth="yes"/>
			<point x="250" y="464"/>
			<point x="272" y="425"/>
			<point x="260" y="340" type="curve" smooth="yes"/>
			<point x="258" y="324" type="line"/>
			<point x="196" y="312" type="line" smooth="yes"/>
			<point x="72" y="288"/>
			<point x="-3" y="228"/>
			<point x="-3" y="110" type="curve" smooth="yes"/>
			<point x="-3" y="32"/>
			<point x="42" y="-14"/>
		</contour>
		<contour>
			<point x="446" y="468" type="curve" smooth="yes"/>
			<point x="507" y="468"/>
			<point x="519" y="397"/>
			<point x="508" y="300" type="curve"/>
			<point x="333" y="300" type="line"/>
			<point x="352" y="414"/>
			<point x="390" y="468"/>
		</contour>
		<contour>
			<point x="77" y="127" type="curve" smooth="yes"/>
			<point x="77" y="202"/>
			<point x="125" y="238"/>
			<point x="202" y="252" type="curve" smooth="yes"/>
			<point x="248" y="261" type="line"/>
			<point x="235" y="166" type="line"/>
			<point x="224" y="92"/>
			<point x="185" y="54"/>
			<point x="139" y="54" type="curve" smooth="yes"/>
			<point x="102" y="54"/>
			<point x="77" y="82"/>
		</contour>
	</outline>
	<anchor name="top" x="333" y="523"/>
</glyph>
<glyph name="ccedilla" format="2">
	<unicode hex="00E7"/>
	<advance width="600"/>
	<outline>
		<contour>
			<point x="395" y="-12"/>
			<point x="439.3043478261" y="-4.347826087"/>
			<point x="472" y="12" type="curve"/>
			<point x="482" y="90" type="line"/>
			<point x="451" y="73"/>
			<point x="407" y="65"/>
			<point x="368" y="65" type="curve" smooth="yes"/>
			<point x="235" y="65"/>
			<point x="172" y="150"/>
			<point x="190" y="283" type="curve" smooth="yes"/>
			<point x="191" y="290" type="line" smooth="yes"/>
			<point x="207" y="399"/>
			<point x="272" y="457"/>
			<point x="384" y="457" type="curve" smooth="yes"/>
			<point x="446" y="457"/>
			<point x="492" y="444"/>
			<point x="529" y="418" type="curve"/>
			<point x="540" y="496" type="line"/>
			<point x="501" y="521"/>
			<point x="439" y="535"/>
			<point x="378" y="535" type="curve" smooth="yes"/>
			<point x="217" y="535"/>
			<point x="116" y="441"/>
			<point x="96" y="299" type="curve" smooth="yes"/>
			<point x="94" y="285" type="line" smooth="yes"/>
			<point x="72" y="129"/>
			<point x="146" y="16"/>
			<point x="293" y="-7" type="curve"/>
			<point x="243" y="-91" type="line"/>
			<point x="256" y="-89"/>
			<point x="267" y="-88"/>
			<point x="280" y="-88" type="curve" smooth="yes"/>
			<point x="317" y="-88"/>
			<point x="338" y="-98"/>
			<point x="338" y="-124" type="curve" smooth="yes"/>
			<point x="338" y="-155"/>
			<point x="316" y="-167"/>
			<point x="279" y="-167" type="curve" smooth="yes"/>
			<point x="252" y="-167"/>
			<point x="226" y="-159"/>
			<point x="206" y="-148" type="curve"/>
			<point x="198" y="-200" type="line"/>
			<point x="218" y="-212"/>
			<point x="252" y="-221"/>
			<point x="286" y="-221" type="curve" smooth="yes"/>
			<point x="358" y="-221"/>
			<point x="403" y="-186"/>
			<point x="404" y="-124" type="curve" smooth="yes"/>
			<point x="405" y="-77"/>
			<point x="379" y="-51"/>
			<point x="327" y="-47" type="curve"/>
			<point x="348" y="-12" type="line"/>
		</contour>
	</outline>
</glyph>
<glyph name="divide" format="2">
	<unicode hex="00F7"/>
	<advance width="600"/>
	<outline>
		<contour>
			<point x="325" y="442" type="curve" smooth="yes"/>
			<point x="373" y="442"/>
			<point x="401" y="457"/>
			<point x="407" y="499" type="curve" smooth="yes"/>
			<point x="413" y="540"/>
			<point x="388" y="555"/>
			<point x="341" y="555" type="curve" smooth="yes"/>
			<point x="293" y="555"/>
			<point x="265" y="540"/>
			<point x="260" y="499" type="curve" smooth="yes"/>
			<point x="254" y="457"/>
			<point x="277" y="442"/>
		</contour>
		<contour>
			<point x="74" y="263" type="line"/>
			<point x="526" y="263" type="line"/>
			<point x="537" y="344" type="line"/>
			<point x="86" y="344" type="line"/>
		</contour>
		<contour>
			<point x="270" y="50" type="curve" smooth="yes"/>
			<point x="317" y="50"/>
			<point x="345" y="65"/>
			<point x="352" y="107" type="curve" smooth="yes"/>
			<point x="356" y="149"/>
			<point x="333" y="162"/>
			<point x="286" y="162" type="curve" smooth="yes"/>
			<point x="238" y="162"/>
			<point x="210" y="149"/>
			<point x="204" y="107" type="curve" smooth="yes"/>
			<point x="197" y="65"/>
			<point x="222" y="50"/>
		</contour>
	</outline>
</glyph>
<glyph name="Aogonek" format="2">
	<unicode hex="0104"/>
	<advance width="600"/>
	<outline>
		<contour>
			<point x="-15" y="0" type="line"/>
			<point x="85" y="0" type="line"/>
			<point x="159" y="171" type="line"/>
			<point x="417" y="171" type="line"/>
			<point x="444" y="0" type="line"/>
			<point x="468" y="0" type="line"/>
			<point x="397" y="-23"/>
			<point x="355" y="-68"/>
			<point x="355" y="-122" type="curve" smooth="yes"/>
			<point x="355" y="-179"/>
			<point x="397" y="-203"/>
			<point x="464" y="-203" type="curve" smooth="yes"/>
			<point x="487" y="-203"/>
			<point x="511" y="-198"/>
			<point x="524" y="-193" type="curve"/>
			<point x="532" y="-130" type="line"/>
			<point x="523" y="-133"/>
			<point x="507" y="-136"/>
			<point x="490" y="-136" type="curve" smooth="yes"/>
			<point x="459" y="-136"/>
			<point x="437" y="-125"/>
			<point x="437" y="-96" type="curve" smooth="yes"/>
			<point x="437" y="-60"/>
			<point x="464" y="-27"/>
			<point x="542" y="0" type="curve"/>
			<point x="541" y="0" type="line"/>
			<point x="422" y="687" type="line"/>
			<point x="295" y="687" type="line"/>
		</contour>
		<contour>
			<point x="193" y="249" type="line"/>
			<point x="349" y="609" type="line"/>
			<point x="405" y="249" type="line"/>
		</contour>
	</outline>
</glyph>
<glyph name="Eogonek" format="2">
	<unicode hex="0118"/>
	<advance width="600"/>
	<outline>
		<contour>
			<point x="418" y="-203" type="curve" smooth="yes"/>
			<point x="441" y="-203"/>
			<point x="465" y="-198"/>
			<point x="478" y="-193" type="curve"/>
			<point x="486" y="-130" type="line"/>
			<point x="477" y="-133"/>
			<point x="461" y="-136"/>
			<point x="444" y="-136" type="curve" smooth="yes"/>
			<point x="413" y="-136"/>
			<point x="391" y="-125"/>
			<point x="391" y="-96" type="curve" smooth="yes"/>
			<point x="391" y="-60"/>
			<point x="418" y="-27"/>
			<point x="496" y="0" type="curve"/>
			<point x="507" y="80" type="line"/>
			<point x="157" y="80" type="line"/>
			<point x="189" y="303" type="line"/>
			<point x="494" y="303" type="line"/>
			<point x="506" y="382" type="line"/>
			<point x="201" y="382" type="line"/>
			<point x="232" y="605" type="line"/>
			<point x="574" y="605" type="line"/>
			<point x="586" y="684" type="line"/>
			<point x="148" y="684" type="line"/>
			<point x="52" y="0" type="line"/>
			<point x="422" y="0" type="line"/>
			<point x="351" y="-23"/>
			<point x="309" y="-68"/>
			<point x="309" y="-122" type="curve" smooth="yes"/>
			<point x="309" y="-179"/>
			<point x="351" y="-203"/>
		</contour>
	</outline>
</glyph>
<glyph name="Hbar" format="2">
	<unicode hex="0126"/>
	<advance width="600"/>
	<outline>
		<contour>
			<point x="36" y="0" type="line"/>
			<point x="130" y="0" type="line"/>
			<point x="172" y="297" type="line"/>
			<point x="437" y="297" type="line"/>
			<point x="396" y="0" type="line"/>
			<point x="490" y="0" type="line"/>
			<point x="558" y="490" type="line"/>
			<point x="632" y="490" type="line"/>
			<point x="641" y="552" type="line"/>
			<point x="567" y="552" type="line"/>
			<point x="586" y="684" type="line"/>
			<point x="492" y="684" type="line"/>
			<point x="473" y="552" type="line"/>
			<point x="208" y="552" type="line"/>
			<point x="226" y="684" type="line"/>
			<point x="132" y="684" type="line"/>
			<point x="114" y="552" type="line"/>
			<point x="41" y="552" type="line"/>
			<point x="32" y="490" type="line"/>
			<point x="105" y="490" type="line"/>
		</contour>
		<contour>
			<point x="183" y="378" type="line"/>
			<point x="199" y="490" type="line"/>
			<point x="464" y="490" type="line"/>
			<point x="449" y="378" type="line"/>
		</contour>
	</outline>
	<anchor name="bottom" x="278" y="0"/>
	<anchor name="center" x="337" y="525"/>
	<anchor name="top" x="359" y="684"/>
</glyph>
<glyph name="Iogonek" format="2">
	<unicode hex="012E"/>
	<advance width="600"/>
	<outline>
		<contour>
			<point x="45" y="0" type="line"/>
			<point x="406" y="0" type="line"/>
			<point x="335" y="-23"/>
			<point x="293" y="-68"/>
			<point x="293" y="-122" type="curve" smooth="yes"/>
			<point x="293" y="-179"/>
			<point x="335" y="-203"/>
			<point x="402" y="-203" type="curve" smooth="yes"/>
			<point x="425" y="-203"/>
			<point x="449" y="-198"/>
			<point x="462" y="-193" type="curve"/>
			<point x="470" y="-130" type="line"/>
			<point x="461" y="-133"/>
			<point x="445" y="-136"/>
			<point x="428" y="-136" type="curve" smooth="yes"/>
			<point x="397" y="-136"/>
			<point x="375" y="-125"/>
			<point x="375" y="-96" type="curve" smooth="yes"/>
			<point x="375" y="-60"/>
			<point x="402" y="-27"/>
			<point x="480" y="0" type="curve"/>
			<point x="492" y="78" type="line"/>
			<point x="321" y="78" type="line"/>
			<point x="395" y="606" type="line"/>
			<point x="565" y="606" type="line"/>
			<point x="577" y="684" type="line"/>
			<point x="141" y="684" type="line"/>
			<point x="130" y="606" type="line"/>
			<point x="301" y="606" type="line"/>
			<point x="226" y="78" type="line"/>
			<point x="56" y="78" type="line"/>
		</contour>
	</outline>
</glyph>
<glyph name="iogonek" format="2">
	<unicode hex="012F"/>
	<advance width="600"/>
	<outline>
		<contour>
			<point x="373" y="632" type="curve" smooth="yes"/>
			<point x="420" y="632"/>
			<point x="438" y="650"/>
			<point x="442" y="687" type="curve" smooth="yes"/>
			<point x="447" y="725"/>
			<point x="428" y="744"/>
			<point x="381" y="744" type="curve" smooth="yes"/>
			<point x="333" y="744"/>
			<point x="315" y="725"/>
			<point x="311" y="689" type="curve" smooth="yes"/>
			<point x="307" y="651"/>
			<point x="325" y="632"/>
		</contour>
		<contour>
			<point x="47" y="0" type="line"/>
			<point x="433" y="0" type="line"/>
			<point x="362" y="-23"/>
			<point x="320" y="-68"/>
			<point x="320" y="-122" type="curve" smooth="yes"/>
			<point x="320" y="-179"/>
			<point x="362" y="-203"/>
			<point x="429" y="-203" type="curve" smooth="yes"/>
			<point x="452" y="-203"/>
			<point x="476" y="-198"/>
			<point x="489" y="-193" type="curve"/>
			<point x="497" y="-130" type="line"/>
			<point x="488" y="-133"/>
			<point x="472" y="-136"/>
			<point x="455" y="-136" type="curve" smooth="yes"/>
			<point x="424" y="-136"/>
			<point x="402" y="-125"/>
			<point x="402" y="-96" type="curve" smooth="yes"/>
			<point x="402" y="-60"/>
			<point x="429" y="-27"/>
			<point x="507" y="0" type="curve"/>
			<point x="518" y="76" type="line"/>
			<point x="339" y="76" type="line"/>
			<point x="403" y="523" type="line"/>
			<point x="122" y="523" type="line"/>
			<point x="111" y="447" type="line"/>
			<point x="299" y="447" type="line"/>
			<point x="246" y="76" type="line"/>
			<point x="59" y="76" type="line"/>
		</contour>
	</outline>
</glyph>
<glyph name="dotlessi" format="2">
	<unicode hex="0131"/>
	<advance width="600"/>
	<outline>
		<contour>
			<point x="47" y="0" type="line"/>
			<point x="507" y="0" type="line"/>
			<point x="518" y="76" type="line"/>
			<point x="339" y="76" type="line"/>
			<point x="403" y="523" type="line"/>
			<point x="122" y="523" type="line"/>
			<point x="111" y="447" type="line"/>
			<point x="299" y="447" type="line"/>
			<point x="246" y="76" type="line"/>
			<point x="59" y="76" type="line"/>
		</contour>
	</outline>
	<anchor name="ogonek" x="507" y="0"/>
	<anchor name="top" x="356" y="523"/>
</glyph>
<glyph name="IJ" format="2">
	<unicode hex="0132"/>
	<advance width="600"/>
	<outline>
		<contour>
			<point x="243" y="-12" type="curve" smooth="yes"/>
			<point x="382" y="-12"/>
			<point x="478" y="58"/>
			<point x="501" y="216" type="curve" smooth="yes"/>
			<point x="567" y="684" type="line"/>
			<point x="474" y="684" type="line"/>
			<point x="409" y="229" type="line" smooth="yes"/>
			<point x="393" y="110"/>
			<point x="329" y="67"/>
			<point x="235" y="67" type="curve" smooth="yes"/>
			<point x="172" y="67"/>
			<point x="116" y="83"/>
			<point x="71" y="111" type="curve"/>
			<point x="60" y="30" type="line"/>
			<point x="103" y="4"/>
			<point x="163" y="-12"/>
		</contour>
		<contour>
			<point x="85" y="206" type="line"/>
			<point x="178" y="206" type="line"/>
			<point x="244" y="684" type="line"/>
			<point x="152" y="684" type="line"/>
		</contour>
	</outline>
</glyph>
<glyph name="kgreenlandic" format="2">
	<unicode hex="0138"/>
	<advance width="600"/>
	<outline>
		<contour>
			<point x="69" y="0" type="line"/>
			<point x="161" y="0" type="line"/>
			<point x="179" y="129" type="line"/>
			<point x="289" y="245" type="line"/>
			<point x="402" y="0" type="line"/>
			<point x="503" y="0" type="line"/>
			<point x="366" y="300" type="line"/>
			<point x="569" y="524" type="line"/>
			<point x="460" y="524" type="line"/>
			<point x="193" y="229" type="line"/>
			<point x="235" y="523" type="line"/>
			<point x="143" y="523" type="line"/>
		</contour>
	</outline>
</glyph>
<glyph name="Ldot" format="2">
	<unicode hex="013F"/>
	<advance width="600"/>
	<outline>
		<contour>
			<point x="60" y="0" type="line"/>
			<point x="502" y="0" type="line"/>
			<point x="515" y="86" type="line"/>
			<point x="167" y="86" type="line"/>
			<point x="250" y="684" type="line"/>
			<point x="156" y="684" type="line"/>
		</contour>
		<contour>
			<point x="458" y="336" type="curve" smooth="yes"/>
			<point x="509" y="336"/>
			<point x="528" y="362"/>
			<point x="534" y="405" type="curve" smooth="yes"/>
			<point x="541" y="453"/>
			<point x="523" y="483"/>
			<point x="468" y="483" type="curve" smooth="yes"/>
			<point x="417" y="483"/>
			<point x="398" y="458"/>
			<point x="392" y="414" type="curve" smooth="yes"/>
			<point x="385" y="365"/>
			<point x="403" y="336"/>
		</contour>
	</outline>
</glyph>
<glyph name="ldot" format="2">
	<unicode hex="0140"/>
	<advance width="600"/>
	<outline>
		<contour>
			<point x="37" y="0" type="line"/>
			<point x="497" y="0" type="line"/>
			<point x="508" y="76" type="line"/>
			<point x="329" y="76" type="line"/>
			<point x="426" y="750" type="line"/>
			<point x="145" y="750" type="line"/>
			<point x="134" y="674" type="line"/>
			<point x="323" y="674" type="line"/>
			<point x="236" y="76" type="line"/>
			<point x="49" y="76" type="line"/>
		</contour>
		<contour>
			<point x="610" y="304" type="curve" smooth="yes"/>
			<point x="661" y="304"/>
			<point x="679" y="330"/>
			<point x="685" y="372" type="curve" smooth="yes"/>
			<point x="692" y="419"/>
			<point x="675" y="449"/>
			<point x="622" y="449" type="curve" smooth="yes"/>
			<point x="572" y="449"/>
			<point x="553" y="424"/>
			<point x="547" y="381" type="curve" smooth="yes"/>
			<point x="540" y="335"/>
			<point x="556" y="304"/>
		</contour>
	</outline>
</glyph>
<glyph name="Eng" format="2">
	<unicode hex="014A"/>
	<advance width="600"/>
	<outline>
		<contour>
			<point x="278" y="-211" type="curve" smooth="yes"/>
			<point x="392" y="-211"/>
			<point x="468" y="-159"/>
			<point x="488" y="-18" type="curve" smooth="yes"/>
			<point x="586" y="685" type="line"/>
			<point x="503" y="685" type="line"/>
			<point x="455" y="345" type="line" smooth="yes"/>
			<point x="441" y="246"/>
			<point x="436" y="184"/>
			<point x="432" y="110" type="curve"/>
			<point x="425" y="110" type="line"/>
			<point x="247" y="685" type="line"/>
			<point x="133" y="685" type="line"/>
			<point x="37" y="0" type="line"/>
			<point x="120" y="0" type="line"/>
			<point x="168" y="340" type="line" smooth="yes"/>
			<point x="182" y="433"/>
			<point x="186" y="500"/>
			<point x="190" y="574" type="curve"/>
			<point x="197" y="574" type="line"/>
			<point x="375" y="0" type="line"/>
			<point x="403" y="0" type="line"/>
			<point x="401" y="-15" type="line" smooth="yes"/>
			<point x="388" y="-111"/>
			<point x="341" y="-139"/>
			<point x="268" y="-139" type="curve" smooth="yes"/>
			<point x="230" y="-139"/>
			<point x="195" y="-130"/>
			<point x="174" y="-121" type="curve"/>
			<point x="164" y="-190" type="line"/>
			<point x="188" y="-202"/>
			<point x="230" y="-211"/>
		</contour>
	</outline>
	<anchor name="bottom" x="263" y="0"/>
	<anchor name="top" x="410" y="720"/>
</glyph>
<glyph name="OE" format="2">
	<unicode hex="0152"/>
	<advance width="600"/>
	<outline>
		<contour>
			<point x="154" y="-13" type="curve" smooth="yes"/>
			<point x="206" y="-13"/>
			<point x="247" y="22"/>
			<point x="277" y="79" type="curve"/>
			<point x="265" y="0" type="line"/>
			<point x="535" y="0" type="line"/>
			<point x="546" y="79" type="line"/>
			<point x="364" y="79" type="line"/>
			<point x="395" y="304" type="line"/>
			<point x="552" y="304" type="line"/>
			<point x="562" y="381" type="line"/>
			<point x="405" y="381" type="line"/>
			<point x="438" y="607" type="line"/>
			<point x="618" y="607" type="line"/>
			<point x="629" y="684" type="line"/>
			<point x="318" y="684" type="line" smooth="yes"/>
			<point x="158" y="684"/>
			<point x="78" y="561"/>
			<point x="48" y="340" type="curve" smooth="yes"/>
			<point x="46" y="326" type="line" smooth="yes"/>
			<point x="15" y="113"/>
			<point x="46" y="-13"/>
		</contour>
		<contour>
			<point x="197" y="65" type="curve" smooth="yes"/>
			<point x="128" y="65"/>
			<point x="112" y="158"/>
			<point x="135" y="324" type="curve" smooth="yes"/>
			<point x="136" y="331" type="line" smooth="yes"/>
			<point x="160" y="502"/>
			<point x="203" y="607"/>
			<point x="309" y="607" type="curve" smooth="yes"/>
			<point x="349" y="607" type="line"/>
			<point x="291" y="187" type="line" smooth="yes"/>
			<point x="281" y="117"/>
			<point x="249" y="65"/>
		</contour>
	</outline>
</glyph>
<glyph name="oe" format="2">
	<unicode hex="0153"/>
	<advance width="600"/>
	<outline>
		<contour>
			<point x="121" y="-14" type="curve" smooth="yes"/>
			<point x="182" y="-14"/>
			<point x="232" y="27"/>
			<point x="260" y="123" type="curve"/>
			<point x="273" y="28"/>
			<point x="326" y="-14"/>
			<point x="418" y="-14" type="curve" smooth="yes"/>
			<point x="471" y="-14"/>
			<point x="514" y="5"/>
			<point x="539" y="23" type="curve"/>
			<point x="549" y="98" type="line"/>
			<point x="511" y="71"/>
			<point x="472" y="59"/>
			<point x="434" y="59" type="curve" smooth="yes"/>
			<point x="357" y="59"/>
			<point x="323" y="108"/>
			<point x="339" y="239" type="curve"/>
			<point x="583" y="239" type="line"/>
			<point x="589" y="280" type="line" smooth="yes"/>
			<point x="609" y="425"/>
			<point x="580" y="537"/>
			<point x="462" y="537" type="curve" smooth="yes"/>
			<point x="407" y="537"/>
			<point x="361" y="507"/>
			<point x="327" y="445" type="curve"/>
			<point x="311" y="503"/>
			<point x="269" y="537"/>
			<point x="206" y="537" type="curve" smooth="yes"/>
			<point x="105" y="537"/>
			<point x="39" y="447"/>
			<point x="16" y="282" type="curve" smooth="yes"/>
			<point x="14" y="268" type="line" smooth="yes"/>
			<point x="-12" y="88"/>
			<point x="28" y="-14"/>
		</contour>
		<contour>
			<point x="453" y="468" type="curve" smooth="yes"/>
			<point x="512" y="468"/>
			<point x="523" y="394"/>
			<point x="512" y="298" type="curve"/>
			<point x="345" y="298" type="line"/>
			<point x="362" y="413"/>
			<point x="395" y="468"/>
		</contour>
		<contour>
			<point x="155" y="60" type="curve" smooth="yes"/>
			<point x="98" y="60"/>
			<point x="78" y="135"/>
			<point x="97" y="267" type="curve" smooth="yes"/>
			<point x="98" y="274" type="line" smooth="yes"/>
			<point x="117" y="410"/>
			<point x="150" y="467"/>
			<point x="204" y="467" type="curve" smooth="yes"/>
			<point x="262" y="467"/>
			<point x="280" y="397"/>
			<point x="260" y="257" type="curve" smooth="yes"/>
			<point x="259" y="250" type="line" smooth="yes"/>
			<point x="241" y="123"/>
			<point x="211" y="60"/>
		</contour>
	</outline>
</glyph>
<glyph name="Scedilla" format="2">
	<unicode hex="015E"/>
	<advance width="600"/>
	<outline>
		<contour>
			<point x="238" y="-221" type="curve" smooth="yes"/>
			<point x="310" y="-221"/>
			<point x="355" y="-186"/>
			<point x="356" y="-124" type="curve" smooth="yes"/>
			<point x="357" y="-77"/>
			<point x="331" y="-51"/>
			<point x="279" y="-47" type="curve"/>
			<point x="299" y="-14" type="line"/>
			<point x="436" y="-8"/>
			<point x="531" y="77"/>
			<point x="531" y="211" type="curve" smooth="yes"/>
			<point x="531" y="331"/>
			<point x="449" y="358"/>
			<point x="329" y="386" type="curve" smooth="yes"/>
			<point x="241" y="407"/>
			<point x="190" y="424"/>
			<point x="190" y="497" type="curve" smooth="yes"/>
			<point x="190" y="574"/>
			<point x="244" y="620"/>
			<point x="336" y="620" type="curve" smooth="yes"/>
			<point x="417" y="620"/>
			<point x="505" y="591"/>
			<point x="559" y="542" type="curve"/>
			<point x="572" y="627" type="line"/>
			<point x="520" y="668"/>
			<point x="441" y="697"/>
			<point x="337" y="697" type="curve" smooth="yes"/>
			<point x="186" y="697"/>
			<point x="95" y="610"/>
			<point x="95" y="478" type="curve" smooth="yes"/>
			<point x="95" y="346"/>
			<point x="194" y="320"/>
			<point x="297" y="297" type="curve" smooth="yes"/>
			<point x="381" y="279"/>
			<point x="436" y="268"/>
			<point x="436" y="193" type="curve" smooth="yes"/>
			<point x="436" y="114"/>
			<point x="376" y="65"/>
			<point x="285" y="65" type="curve" smooth="yes"/>
			<point x="202" y="65"/>
			<point x="121" y="96"/>
			<point x="60" y="162" type="curve"/>
			<point x="47" y="73" type="line"/>
			<point x="96" y="27"/>
			<point x="162" y="-4"/>
			<point x="242" y="-12" type="curve"/>
			<point x="195" y="-91" type="line"/>
			<point x="208" y="-89"/>
			<point x="219" y="-88"/>
			<point x="232" y="-88" type="curve" smooth="yes"/>
			<point x="269" y="-88"/>
			<point x="290" y="-98"/>
			<point x="290" y="-124" type="curve" smooth="yes"/>
			<point x="290" y="-155"/>
			<point x="268" y="-167"/>
			<point x="231" y="-167" type="curve" smooth="yes"/>
			<point x="204" y="-167"/>
			<point x="178" y="-159"/>
			<point x="158" y="-148" type="curve"/>
			<point x="150" y="-200" type="line"/>
			<point x="170" y="-212"/>
			<point x="204" y="-221"/>
		</contour>
	</outline>
</glyph>
<glyph name="Uogonek" format="2">
	<unicode hex="0172"/>
	<advance width="600"/>
	<outline>
		<contour>
			<point x="287" y="-203" type="curve" smooth="yes"/>
			<point x="310" y="-203"/>
			<point x="334" y="-198"/>
			<point x="347" y="-193" type="curve"/>
			<point x="355" y="-130" type="line"/>
			<point x="346" y="-133"/>
			<point x="330" y="-136"/>
			<point x="313" y="-136" type="curve" smooth="yes"/>
			<point x="282" y="-136"/>
			<point x="260" y="-125"/>
			<point x="260" y="-96" type="curve" smooth="yes"/>
			<point x="260" y="-60"/>
			<point x="287" y="-27"/>
			<point x="365" y="0" type="curve"/>
			<point x="364" y="0" type="line"/>
			<point x="456" y="31"/>
			<point x="507" y="110"/>
			<point x="524" y="224" type="curve" smooth="yes"/>
			<point x="588" y="684" type="line"/>
			<point x="494" y="684" type="line"/>
			<point x="430" y="224" type="line" smooth="yes"/>
			<point x="416" y="130"/>
			<point x="375" y="65"/>
			<point x="279" y="65" type="curve" smooth="yes"/>
			<point x="185" y="65"/>
			<point x="148" y="138"/>
			<point x="162" y="239" type="curve" smooth="yes"/>
			<point x="225" y="684" type="line"/>
			<point x="130" y="684" type="line"/>
			<point x="69" y="242" type="line" smooth="yes"/>
			<point x="47" y="84"/>
			<point x="113" y="-9"/>
			<point x="257" y="-14" type="curve"/>
			<point x="206" y="-39"/>
			<point x="178" y="-78"/>
			<point x="178" y="-122" type="curve" smooth="yes"/>
			<point x="178" y="-179"/>
			<point x="220" y="-203"/>
		</contour>
	</outline>
</glyph>
<glyph name="uogonek" format="2">
	<unicode hex="0173"/>
	<advance width="600"/>
	<outline>
		<contour>
			<point x="395" y="-203" type="curve" smooth="yes"/>
			<point x="418" y="-203"/>
			<point x="442" y="-198"/>
			<point x="455" y="-193" type="curve"/>
			<point x="463" y="-130" type="line"/>
			<point x="454" y="-133"/>
			<point x="438" y="-136"/>
			<point x="421" y="-136" type="curve" smooth="yes"/>
			<point x="390" y="-136"/>
			<point x="368" y="-125"/>
			<point x="368" y="-96" type="curve" smooth="yes"/>
			<point x="368" y="-60"/>
			<point x="395" y="-27"/>
			<point x="473" y="0" type="curve"/>
			<point x="547" y="523" type="line"/>
			<point x="454" y="523" type="line"/>
			<point x="411" y="220" type="line" smooth="yes"/>
			<point x="406" y="181"/>
			<point x="394" y="148"/>
			<point x="377" y="122" type="curve" smooth="yes"/>
			<point x="353" y="85"/>
			<point x="317" y="63"/>
			<point x="267" y="63" type="curve" smooth="yes"/>
			<point x="196" y="63"/>
			<point x="158" y="109"/>
			<point x="171" y="202" type="curve" smooth="yes"/>
			<point x="216" y="523" type="line"/>
			<point x="123" y="523" type="line"/>
			<point x="76" y="187" type="line" smooth="yes"/>
			<point x="58" y="58"/>
			<point x="117" y="-14"/>
			<point x="221" y="-14" type="curve" smooth="yes"/>
			<point x="299" y="-14"/>
			<point x="359" y="27"/>
			<point x="397" y="99" type="curve"/>
			<point x="382" y="0" type="line"/>
			<point x="399" y="0" type="line"/>
			<point x="328" y="-23"/>
			<point x="286" y="-68"/>
			<point x="286" y="-122" type="curve" smooth="yes"/>
			<point x="286" y="-179"/>
			<point x="328" y="-203"/>
		</contour>
	</outline>
</glyph>
<glyph name="oslashacute" format="2">
	<unicode hex="01FF"/>
	<advance width="600"/>
	<outline>
		<contour>
			<point x="508" y="750" type="line"/>
			<point x="398" y="750" type="line"/>
			<point x="303" y="604" type="line"/>
			<point x="382" y="604" type="line"/>
		</contour>
		<contour>
			<point x="282" y="-14" type="curve" smooth="yes"/>
			<point x="417" y="-14"/>
			<point x="510" y="78"/>
			<point x="532" y="229" type="curve" smooth="yes"/>
			<point x="534" y="243" type="line" smooth="yes"/>
			<point x="545" y="324"/>
			<point x="534" y="392"/>
			<point x="504" y="442" type="curve"/>
			<point x="598" y="548" type="line"/>
			<point x="514" y="548" type="line"/>
			<point x="463" y="490" type="line"/>
			<point x="427" y="520"/>
			<point x="378" y="537"/>
			<point x="320" y="537" type="curve" smooth="yes"/>
			<point x="190" y="537"/>
			<point x="90" y="445"/>
			<point x="68" y="295" type="curve" smooth="yes"/>
			<point x="66" y="281" type="line" smooth="yes"/>
			<point x="54" y="199"/>
			<point x="65" y="131"/>
			<point x="96" y="81" type="curve"/>
			<point x="3" y="-23" type="line"/>
			<point x="87" y="-23" type="line"/>
			<point x="137" y="33" type="line"/>
			<point x="174" y="3"/>
			<point x="223" y="-14"/>
		</contour>
		<contour>
			<point x="162" y="275" type="curve" smooth="yes"/>
			<point x="163" y="282" type="line" smooth="yes"/>
			<point x="180" y="403"/>
			<point x="238" y="462"/>
			<point x="316" y="462" type="curve" smooth="yes"/>
			<point x="353" y="462"/>
			<point x="383" y="450"/>
			<point x="405" y="426" type="curve"/>
			<point x="165" y="158" type="line"/>
			<point x="157" y="190"/>
			<point x="155" y="229"/>
		</contour>
		<contour>
			<point x="285" y="62" type="curve" smooth="yes"/>
			<point x="248" y="62"/>
			<point x="217" y="74"/>
			<point x="195" y="99" type="curve"/>
			<point x="436" y="367" type="line"/>
			<point x="444" y="335"/>
			<point x="445" y="296"/>
			<point x="438" y="249" type="curve" smooth="yes"/>
			<point x="437" y="242" type="line" smooth="yes"/>
			<point x="420" y="121"/>
			<point x="363" y="62"/>
		</contour>
	</outline>
</glyph>
<glyph name="dotlessj" format="2">
	<unicode hex="0237"/>
	<advance width="600"/>
	<outline>
		<contour>
			<point x="179" y="-204" type="curve" smooth="yes"/>
			<point x="302" y="-204"/>
			<point x="401" y="-160"/>
			<point x="422" y="-10" type="curve" smooth="yes"/>
			<point x="497" y="523" type="line"/>
			<point x="123" y="523" type="line"/>
			<point x="112" y="447" type="line"/>
			<point x="393" y="447" type="line"/>
			<point x="332" y="8" type="line" smooth="yes"/>
			<point x="318" y="-88"/>
			<point x="268" y="-126"/>
			<point x="167" y="-126" type="curve" smooth="yes"/>
			<point x="114" y="-126"/>
			<point x="66" y="-111"/>
			<point x="34" y="-95" type="curve"/>
			<point x="23" y="-171" type="line"/>
			<point x="55" y="-188"/>
			<point x="116" y="-204"/>
		</contour>
	</outline>
	<anchor name="top" x="451" y="523"/>
</glyph>
<glyph name="circumflex" format="2">
	<unicode hex="02C6"/>
	<advance width="600"/>
	<outline>
		<contour>
			<point x="182" y="604" type="line"/>
			<point x="271" y="604" type="line"/>
			<point x="365" y="705" type="line"/>
			<point x="429" y="604" type="line"/>
			<point x="515" y="604" type="line"/>
			<point x="417" y="750" type="line"/>
			<point x="320" y="750" type="line"/>
		</contour>
	</outline>
	<anchor name="_top" x="339" y="523"/>
</glyph>
<glyph name="ring" format="2">
	<unicode hex="02DA"/>
	<advance width="600"/>
	<outline>
		<contour>
			<point x="357" y="594" type="curve" smooth="yes"/>
			<point x="437" y="594"/>
			<point x="486" y="643"/>
			<point x="486" y="721" type="curve" smooth="yes"/>
			<point x="486" y="790"/>
			<point x="442" y="828"/>
			<point x="370" y="828" type="curve" smooth="yes"/>
			<point x="290" y="828"/>
			<point x="240" y="778"/>
			<point x="240" y="701" type="curve" smooth="yes"/>
			<point x="240" y="631"/>
			<point x="283" y="594"/>
		</contour>
		<contour>
			<point x="358" y="643" type="curve" smooth="yes"/>
			<point x="316" y="643"/>
			<point x="295" y="666"/>
			<point x="295" y="704" type="curve" smooth="yes"/>
			<point x="295" y="753"/>
			<point x="321" y="779"/>
			<point x="369" y="779" type="curve" smooth="yes"/>
			<point x="412" y="779"/>
			<point x="430" y="756"/>
			<point x="430" y="720" type="curve" smooth="yes"/>
			<point x="430" y="669"/>
			<point x="406" y="643"/>
		</contour>
	</outline>
	<anchor name="_top" x="337" y="523"/>
</glyph>
<glyph name="ogonek" format="2">
	<unicode hex="02DB"/>
	<advance width="600"/>
	<outline>
		<contour>
			<point x="264" y="-203" type="curve" smooth="yes"/>
			<point x="287" y="-203"/>
			<point x="311" y="-198"/>
			<point x="324" y="-193" type="curve"/>
			<point x="332" y="-130" type="line"/>
			<point x="323" y="-133"/>
			<point x="307" y="-136"/>
			<point x="290" y="-136" type="curve" smooth="yes"/>
			<point x="259" y="-136"/>
			<point x="237" y="-125"/>
			<point x="237" y="-96" type="curve" smooth="yes"/>
			<point x="237" y="-60"/>
			<point x="264" y="-27"/>
			<point x="342" y="0" type="curve"/>
			<point x="271" y="1" type="line"/>
			<point x="197" y="-23"/>
			<point x="155" y="-68"/>
			<point x="155" y="-122" type="curve" smooth="yes"/>
			<point x="155" y="-179"/>
			<point x="197" y="-203"/>
		</contour>
	</outline>
	<anchor name="_ogonek" x="342" y="0"/>
</glyph>
<glyph name="hungarumlaut" format="2">
	<unicode hex="02DD"/>
	<advance width="600"/>
	<outline>
		<contour>
			<point x="357" y="604" type="line"/>
			<point x="429" y="604" type="line"/>
			<point x="539" y="750" type="line"/>
			<point x="443" y="750" type="line"/>
		</contour>
		<contour>
			<point x="183" y="604" type="line"/>
			<point x="255" y="604" type="line"/>
			<point x="365" y="750" type="line"/>
			<point x="269" y="750" type="line"/>
		</contour>
	</outline>
	<anchor name="_top" x="294" y="523"/>
</glyph>
<glyph name="endash" format="2">
	<unicode hex="2013"/>
	<advance width="600"/>
	<outline>
		<contour>
			<point x="551" y="345" type="line"/>
			<point x="72" y="345" type="line"/>
			<point x="60" y="259" type="line"/>
			<point x="540" y="259" type="line"/>
		</contour>
	</outline>
</glyph>
<glyph name="emdash" format="2">
	<unicode hex="2014"/>
	<advance width="600"/>
	<outline>
		<contour>
			<point x="612" y="345" type="line"/>
			<point x="12" y="345" type="line"/>
			<point x="0" y="259" type="line"/>
			<point x="599" y="259" type="line"/>
		</contour>
	</outline>
</glyph>
<glyph name="quoteright" format="2">
	<unicode hex="2019"/>
	<advance width="600"/>
	<outline>
		<contour>
			<point x="333" y="750" type="line"/>
			<point x="241" y="466" type="line"/>
			<point x="307" y="466" type="line"/>
			<point x="455" y="750" type="line"/>
		</contour>
	</outline>
</glyph>
<glyph name="quotesinglbase" format="2">
	<unicode hex="201A"/>
	<advance width="600"/>
	<outline>
		<contour>
			<point x="245" y="121" type="line"/>
			<point x="153" y="-163" type="line"/>
			<point x="219" y="-163" type="line"/>
			<point x="367" y="121" type="line"/>
		</contour>
	</outline>
</glyph>
<glyph name="dagger" format="2">
	<unicode hex="2020"/>
	<advance width="600"/>
	<outline>
		<contour>
			<point x="119" y="570" type="line"/>
			<point x="108" y="486" type="line"/>
			<point x="285" y="486" type="line"/>
			<point x="197" y="-143" type="line"/>
			<point x="288" y="-143" type="line"/>
			<point x="377" y="486" type="line"/>
			<point x="555" y="486" type="line"/>
			<point x="567" y="570" type="line"/>
			<point x="389" y="570" type="line"/>
			<point x="416" y="765" type="line"/>
			<point x="325" y="765" type="line"/>
			<point x="297" y="570" type="line"/>
		</contour>
	</outline>
</glyph>
<glyph name="daggerdbl" format="2">
	<unicode hex="2021"/>
	<advance width="600"/>
	<outline>
		<contour>
			<point x="69" y="208" type="line"/>
			<point x="57" y="126" type="line"/>
			<point x="235" y="126" type="line"/>
			<point x="197" y="-143" type="line"/>
			<point x="289" y="-143" type="line"/>
			<point x="327" y="126" type="line"/>
			<point x="504" y="126" type="line"/>
			<point x="516" y="208" type="line"/>
			<point x="338" y="208" type="line"/>
			<point x="379" y="495" type="line"/>
			<point x="556" y="495" type="line"/>
			<point x="568" y="576" type="line"/>
			<point x="390" y="576" type="line"/>
			<point x="416" y="765" type="line"/>
			<point x="325" y="765" type="line"/>
			<point x="298" y="576" type="line"/>
			<point x="121" y="576" type="line"/>
			<point x="109" y="495" type="line"/>
			<point x="287" y="495" type="line"/>
			<point x="246" y="208" type="line"/>
		</contour>
	</outline>
</glyph>
<glyph name="bullet" format="2">
	<unicode hex="2022"/>
	<advance width="600"/>
	<outline>
		<contour>
			<point x="296" y="159" type="curve" smooth="yes"/>
			<point x="386" y="159"/>
			<point x="420" y="205"/>
			<point x="430" y="287" type="curve" smooth="yes"/>
			<point x="440" y="364"/>
			<point x="413" y="425"/>
			<point x="313" y="425" type="curve" smooth="yes"/>
			<point x="224" y="425"/>
			<point x="188" y="379"/>
			<point x="178" y="297" type="curve" smooth="yes"/>
			<point x="168" y="219"/>
			<point x="196" y="159"/>
		</contour>
	</outline>
</glyph>
<glyph name="ellipsis" format="2">
	<unicode hex="2026"/>
	<advance width="600"/>
	<outline>
		<contour>
			<point x="82" y="-12" type="curve" smooth="yes"/>
			<point x="124" y="-12"/>
			<point x="139" y="12"/>
			<point x="144" y="52" type="curve" smooth="yes"/>
			<point x="150" y="97"/>
			<point x="135" y="123"/>
			<point x="94" y="123" type="curve" smooth="yes"/>
			<point x="51" y="123"/>
			<point x="36" y="100"/>
			<point x="31" y="60" type="curve" smooth="yes"/>
			<point x="25" y="14"/>
			<point x="40" y="-12"/>
		</contour>
		<contour>
			<point x="266" y="-12" type="curve" smooth="yes"/>
			<point x="308" y="-12"/>
			<point x="322" y="12"/>
			<point x="328" y="52" type="curve" smooth="yes"/>
			<point x="334" y="97"/>
			<point x="318" y="123"/>
			<point x="277" y="123" type="curve" smooth="yes"/>
			<point x="235" y="123"/>
			<point x="219" y="100"/>
			<point x="214" y="60" type="curve" smooth="yes"/>
			<point x="208" y="14"/>
			<point x="224" y="-12"/>
		</contour>
		<contour>
			<point x="449" y="-12" type="curve" smooth="yes"/>
			<point x="491" y="-12"/>
			<point x="505" y="12"/>
			<point x="511" y="52" type="curve" smooth="yes"/>
			<point x="517" y="97"/>
			<point x="502" y="123"/>
			<point x="460" y="123" type="curve" smooth="yes"/>
			<point x="418" y="123"/>
			<point x="402" y="100"/>
			<point x="397" y="60" type="curve" smooth="yes"/>
			<point x="391" y="14"/>
			<point x="408" y="-12"/>
		</contour>
	</outline>
</glyph>
<glyph name="Euro" format="2">
	<unicode hex="20AC"/>
	<advance width="600"/>
	<outline>
		<contour>
			<point x="24" y="242" type="line"/>
			<point x="113" y="242" type="line"/>
			<point x="129" y="89"/>
			<point x="219" y="-12"/>
			<point x="387" y="-12" type="curve" smooth="yes"/>
			<point x="443" y="-12"/>
			<point x="483" y="-2"/>
			<point x="517" y="15" type="curve"/>
			<point x="528" y="97" type="line"/>
			<point x="489" y="77"/>
			<point x="446" y="69"/>
			<point x="400" y="69" type="curve" smooth="yes"/>
			<point x="286" y="69"/>
			<point x="227" y="137"/>
			<point x="213" y="242" type="curve"/>
			<point x="445" y="242" type="line"/>
			<point x="454" y="305" type="line"/>
			<point x="209" y="305" type="line"/>
			<point x="210" y="326"/>
			<point x="212" y="348"/>
			<point x="215" y="371" type="curve" smooth="yes"/>
			<point x="216" y="377" type="line"/>
			<point x="464" y="377" type="line"/>
			<point x="473" y="440" type="line"/>
			<point x="229" y="440" type="line"/>
			<point x="261" y="558"/>
			<point x="334" y="616"/>
			<point x="442" y="616" type="curve" smooth="yes"/>
			<point x="499" y="616"/>
			<point x="552" y="602"/>
			<point x="596" y="570" type="curve"/>
			<point x="607" y="652" type="line"/>
			<point x="568" y="677"/>
			<point x="512" y="695"/>
			<point x="439" y="695" type="curve" smooth="yes"/>
			<point x="276" y="695"/>
			<point x="167" y="602"/>
			<point x="129" y="440" type="curve"/>
			<point x="53" y="440" type="line"/>
			<point x="43" y="377" type="line"/>
			<point x="117" y="377" type="line"/>
			<point x="117" y="375" type="line" smooth="yes"/>
			<point x="114" y="351"/>
			<point x="112" y="328"/>
			<point x="111" y="305" type="curve"/>
			<point x="33" y="305" type="line"/>
		</contour>
	</outline>
</glyph>
<glyph name="trademark" format="2">
	<unicode hex="2122"/>
	<advance width="600"/>
	<outline>
		<contour>
			<point x="305" y="342" type="line"/>
			<point x="353" y="342" type="line"/>
			<point x="376" y="509" type="line" smooth="yes"/>
			<point x="382" y="551"/>
			<point x="386" y="591"/>
			<point x="387" y="629" type="curve"/>
			<point x="392" y="629" type="line"/>
			<point x="421" y="433" type="line"/>
			<point x="472" y="433" type="line"/>
			<point x="558" y="629" type="line"/>
			<point x="562" y="629" type="line"/>
			<point x="553" y="591"/>
			<point x="546" y="551"/>
			<point x="539" y="509" type="curve" smooth="yes"/>
			<point x="517" y="342" type="line"/>
			<point x="565" y="342" type="line"/>
			<point x="613" y="684" type="line"/>
			<point x="536" y="684" type="line"/>
			<point x="454" y="490" type="line"/>
			<point x="452" y="490" type="line"/>
			<point x="427" y="684" type="line"/>
			<point x="353" y="684" type="line"/>
		</contour>
		<contour>
			<point x="124" y="342" type="line"/>
			<point x="178" y="342" type="line"/>
			<point x="219" y="637" type="line"/>
			<point x="313" y="637" type="line"/>
			<point x="319" y="684" type="line"/>
			<point x="76" y="684" type="line"/>
			<point x="70" y="637" type="line"/>
			<point x="165" y="637" type="line"/>
		</contour>
	</outline>
</glyph>
<glyph name="ohm" format="2">
	<unicode hex="2126"/>
	<advance width="600"/>
	<outline>
		<contour>
			<point x="19" y="-1" type="line"/>
			<point x="240" y="0" type="line"/>
			<point x="250" y="79" type="line"/>
			<point x="179" y="167"/>
			<point x="155" y="288"/>
			<point x="172" y="409" type="curve" smooth="yes"/>
			<point x="173" y="416" type="line" smooth="yes"/>
			<point x="191" y="544"/>
			<point x="244" y="619"/>
			<point x="340" y="619" type="curve" smooth="yes"/>
			<point x="459" y="619"/>
			<point x="486" y="516"/>
			<point x="466" y="379" type="curve" smooth="yes"/>
			<point x="465" y="372" type="line" smooth="yes"/>
			<point x="448" y="245"/>
			<point x="390" y="152"/>
			<point x="299" y="79" type="curve"/>
			<point x="287" y="0" type="line"/>
			<point x="507" y="0" type="line"/>
			<point x="518" y="80" type="line"/>
			<point x="398" y="80" type="line"/>
			<point x="485" y="150"/>
			<point x="544" y="243"/>
			<point x="561" y="365" type="curve" smooth="yes"/>
			<point x="563" y="379" type="line" smooth="yes"/>
			<point x="588" y="556"/>
			<point x="532" y="697"/>
			<point x="345" y="697" type="curve" smooth="yes"/>
			<point x="196" y="697"/>
			<point x="100" y="596"/>
			<point x="77" y="429" type="curve" smooth="yes"/>
			<point x="75" y="415" type="line" smooth="yes"/>
			<point x="56" y="286"/>
			<point x="85" y="160"/>
			<point x="156" y="80" type="curve"/>
			<point x="30" y="80" type="line"/>
		</contour>
	</outline>
</glyph>
<glyph name="arrowright" format="2">
	<unicode hex="2192"/>
	<advance width="600"/>
	<outline>
		<contour>
			<point x="299" y="583" type="line"/>
			<point x="461" y="397" type="line"/>
			<point x="59" y="397" type="line"/>
			<point x="48" y="318" type="line"/>
			<point x="450" y="318" type="line"/>
			<point x="237" y="132" type="line"/>
			<point x="338" y="132" type="line"/>
			<point x="595" y="357" type="line"/>
			<point x="400" y="583" type="line"/>
		</contour>
	</outline>
</glyph>
<glyph name="uni2196" format="2">
	<unicode hex="2196"/>
	<advance width="600"/>
	<outline>
		<contour>
			<point x="504" y="71" type="line"/>
			<point x="562" y="123" type="line"/>
			<point x="204" y="539" type="line"/>
			<point x="492" y="538" type="line"/>
			<point x="430" y="610" type="line"/>
			<point x="92" y="610" type="line"/>
			<point x="44" y="272" type="line"/>
			<point x="105" y="200" type="line"/>
			<point x="144" y="488" type="line"/>
		</contour>
	</outline>
</glyph>
<glyph name="uni2199" format="2">
	<unicode hex="2199"/>
	<advance width="600"/>
	<outline>
		<contour>
			<point x="17" y="72" type="line"/>
			<point x="355" y="72" type="line"/>
			<point x="437" y="142" type="line"/>
			<point x="155" y="141" type="line"/>
			<point x="623" y="551" type="line"/>
			<point x="572" y="610" type="line"/>
			<point x="106" y="200" type="line"/>
			<point x="147" y="481" type="line"/>
			<point x="64" y="410" type="line"/>
		</contour>
	</outline>
</glyph>
<glyph name="partialdiff" format="2">
	<unicode hex="2202"/>
	<advance width="600"/>
	<outline>
		<contour>
			<point x="278" y="-14" type="curve" smooth="yes"/>
			<point x="425" y="-14"/>
			<point x="511" y="90"/>
			<point x="535" y="253" type="curve" smooth="yes"/>
			<point x="537" y="267" type="line" smooth="yes"/>
			<point x="566" y="465"/>
			<point x="477" y="598"/>
			<point x="364" y="684" type="curve"/>
			<point x="224" y="684" type="line"/>
			<point x="344" y="607"/>
			<point x="418" y="515"/>
			<point x="442" y="400" type="curve"/>
			<point x="408" y="459"/>
			<point x="355" y="499"/>
			<point x="279" y="499" type="curve" smooth="yes"/>
			<point x="172" y="499"/>
			<point x="85" y="415"/>
			<point x="66" y="279" type="curve" smooth="yes"/>
			<point x="64" y="265" type="line" smooth="yes"/>
			<point x="42" y="108"/>
			<point x="114" y="-14"/>
		</contour>
		<contour>
			<point x="282" y="62" type="curve" smooth="yes"/>
			<point x="193" y="62"/>
			<point x="142" y="133"/>
			<point x="160" y="258" type="curve" smooth="yes"/>
			<point x="161" y="265" type="line" smooth="yes"/>
			<point x="177" y="380"/>
			<point x="237" y="430"/>
			<point x="311" y="430" type="curve" smooth="yes"/>
			<point x="385" y="430"/>
			<point x="456" y="381"/>
			<point x="436" y="245" type="curve" smooth="yes"/>
			<point x="435" y="238" type="line" smooth="yes"/>
			<point x="420" y="134"/>
			<point x="371" y="62"/>
		</contour>
	</outline>
</glyph>
<glyph name="increment" format="2">
	<unicode hex="2206"/>
	<advance width="600"/>
	<outline>
		<contour>
			<point x="-15" y="0" type="line"/>
			<point x="541" y="0" type="line"/>
			<point x="421" y="687" type="line"/>
			<point x="294" y="687" type="line"/>
		</contour>
		<contour>
			<point x="120" y="80" type="line"/>
			<point x="348" y="609" type="line"/>
			<point x="430" y="80" type="line"/>
		</contour>
	</outline>
</glyph>
<glyph name="summation" format="2">
	<unicode hex="2211"/>
	<advance width="600"/>
	<outline>
		<contour>
			<point x="30" y="0" type="line"/>
			<point x="498" y="0" type="line"/>
			<point x="509" y="80" type="line"/>
			<point x="165" y="80" type="line"/>
			<point x="435" y="310" type="line"/>
			<point x="444" y="377" type="line"/>
			<point x="238" y="605" type="line"/>
			<point x="577" y="605" type="line"/>
			<point x="587" y="684" type="line"/>
			<point x="127" y="684" type="line"/>
			<point x="117" y="608" type="line"/>
			<point x="357" y="347" type="line"/>
			<point x="42" y="79" type="line"/>
		</contour>
	</outline>
</glyph>
<glyph name="radical" format="2">
	<unicode hex="221A"/>
	<advance width="600"/>
	<outline>
		<contour>
			<point x="183" y="0" type="line"/>
			<point x="300" y="0" type="line"/>
			<point x="630" y="684" type="line"/>
			<point x="527" y="684" type="line"/>
			<point x="254" y="97" type="line"/>
			<point x="199" y="450" type="line"/>
			<point x="64" y="450" type="line"/>
			<point x="53" y="368" type="line"/>
			<point x="120" y="368" type="line"/>
		</contour>
	</outline>
</glyph>
<glyph name="lessequal" format="2">
	<unicode hex="2264"/>
	<advance width="600"/>
	<outline>
		<contour>
			<point x="507" y="134" type="line"/>
			<point x="519" y="221" type="line"/>
			<point x="170" y="369" type="line"/>
			<point x="562" y="516" type="line"/>
			<point x="574" y="607" type="line"/>
			<point x="97" y="422" type="line"/>
			<point x="84" y="320" type="line"/>
		</contour>
		<contour>
			<point x="36" y="-4" type="line"/>
			<point x="489" y="-4" type="line"/>
			<point x="500" y="77" type="line"/>
			<point x="48" y="77" type="line"/>
		</contour>
	</outline>
</glyph>
<glyph name="greaterequal" format="2">
	<unicode hex="2265"/>
	<advance width="600"/>
	<outline>
		<contour>
			<point x="56" y="133" type="line"/>
			<point x="534" y="320" type="line"/>
			<point x="548" y="421" type="line"/>
			<point x="124" y="608" type="line"/>
			<point x="111" y="520" type="line"/>
			<point x="461" y="372" type="line"/>
			<point x="69" y="225" type="line"/>
		</contour>
		<contour>
			<point x="36" y="-4" type="line"/>
			<point x="489" y="-4" type="line"/>
			<point x="500" y="77" type="line"/>
			<point x="48" y="77" type="line"/>
		</contour>
	</outline>
</glyph>
<glyph name="lozenge" format="2">
	<unicode hex="25CA"/>
	<advance width="600"/>
	<outline>
		<contour>
			<point x="207" y="0" type="line"/>
			<point x="321" y="0" type="line"/>
			<point x="579" y="338" type="line"/>
			<point x="417" y="684" type="line"/>
			<point x="302" y="684" type="line"/>
			<point x="43" y="342" type="line"/>
		</contour>
		<contour>
			<point x="146" y="340" type="line"/>
			<point x="353" y="617" type="line"/>
			<point x="477" y="345" type="line"/>
			<point x="271" y="68" type="line"/>
		</contour>
	</outline>
</glyph>
<glyph name="commaaccent" format="2">
	<unicode hex="F6C3"/>
	<advance width="600"/>
	<outline>
		<contour>
			<point x="172" y="-272" type="curve"/>
			<point x="233" y="-272" type="line"/>
			<point x="266" y="-244"/>
			<point x="298" y="-194"/>
			<point x="307" y="-140" type="curve" smooth="yes"/>
			<point x="316" y="-81"/>
			<point x="298" y="-60"/>
			<point x="250" y="-60" type="curve" smooth="yes"/>
			<point x="209" y="-60"/>
			<point x="192" y="-76"/>
			<point x="187" y="-110" type="curve" smooth="yes"/>
			<point x="183" y="-145"/>
			<point x="198" y="-163"/>
			<point x="231" y="-165" type="curve"/>
			<point x="221" y="-199"/>
			<point x="198" y="-239"/>
		</contour>
	</outline>
	<anchor name="_bottom" x="265" y="0"/>
</glyph>
<glyph name="Lslashcomb" format="2">
	<advance width="600"/>
	<outline>
		<contour>
			<point x="25" y="395" type="line"/>
			<point x="14" y="322" type="line"/>
			<point x="387" y="461" type="line"/>
			<point x="397" y="535" type="line"/>
		</contour>
	</outline>
	<anchor name="_center" x="151" y="401"/>
</glyph>
<glyph name=".notdef" format="2">
	<advance width="600"/>
	<outline>
		<contour>
			<point x="75" y="-100" type="line"/>
			<point x="525" y="-100" type="line"/>
			<point x="525" y="784" type="line"/>
			<point x="75" y="784" type="line"/>
		</contour>
		<contour>
			<point x="139" y="-42.4" type="line"/>
			<point x="139" y="726.4" type="line"/>
			<point x="461" y="726.4" type="line"/>
			<point x="461" y="-42.4" type="line"/>
		</contour>
	</outline>
</glyph>
<glyph name="a.ss01" format="2">
	<advance width="600"/>
	<outline>
		<contour>
			<point x="226" y="-14" type="curve" smooth="yes"/>
			<point x="296" y="-14"/>
			<point x="358" y="21"/>
			<point x="399" y="107" type="curve"/>
			<point x="383" y="0" type="line"/>
			<point x="474" y="0" type="line"/>
			<point x="547" y="523" type="line"/>
			<point x="377" y="523" type="line" smooth="yes"/>
			<point x="203" y="523"/>
			<point x="90" y="424"/>
			<point x="67" y="263" type="curve" smooth="yes"/>
			<point x="65" y="249" type="line" smooth="yes"/>
			<point x="41" y="81"/>
			<point x="107" y="-14"/>
		</contour>
		<contour>
			<point x="160" y="252" type="curve" smooth="yes"/>
			<point x="161" y="259" type="line"/>
			<point x="180" y="387"/>
			<point x="251" y="448"/>
			<point x="368" y="448" type="curve" smooth="yes"/>
			<point x="444" y="448" type="line"/>
			<point x="412" y="219" type="line" smooth="yes"/>
			<point x="399" y="129"/>
			<point x="348" y="62"/>
			<point x="267" y="62" type="curve" smooth="yes"/>
			<point x="185" y="62"/>
			<point x="143" y="130"/>
		</contour>
	</outline>
	<anchor name="bottom" x="257" y="-1"/>
	<anchor name="ogonek" x="474" y="0"/>
	<anchor name="top" x="361" y="523"/>
</glyph>
<glyph name="acute.cap" format="2">
	<advance width="600"/>
	<outline>
		<contour>
			<point x="283" y="747" type="line"/>
			<point x="361" y="747" type="line"/>
			<point x="472" y="884" type="line"/>
			<point x="366" y="884" type="line"/>
		</contour>
	</outline>
	<anchor name="_top" x="314" y="684"/>
</glyph>
<glyph name="asciitilde_asciitilde_asciitilde.rem" format="2">
	<advance width="600"/>
	<outline>
		<contour>
			<point x="-603" y="210" type="curve"/>
			<point x="-493" y="210"/>
			<point x="-465" y="336"/>
			<point x="-389" y="336" type="curve" smooth="yes"/>
			<point x="-311" y="336"/>
			<point x="-300" y="210"/>
			<point x="-186" y="210" type="curve" smooth="yes"/>
			<point x="-73" y="210"/>
			<point x="-46" y="336"/>
			<point x="34" y="336" type="curve"/>
			<point x="116" y="336"/>
			<point x="123" y="210"/>
			<point x="239" y="210" type="curve"/>
			<point x="333" y="210"/>
			<point x="399" y="290"/>
			<point x="428" y="416" type="curve"/>
			<point x="348" y="416" type="line"/>
			<point x="328" y="346"/>
			<point x="300" y="297"/>
			<point x="240" y="297" type="curve"/>
			<point x="160" y="297"/>
			<point x="161" y="421"/>
			<point x="40" y="421" type="curve"/>
			<point x="-76" y="421"/>
			<point x="-101" y="297"/>
			<point x="-180" y="297" type="curve" smooth="yes"/>
			<point x="-262" y="297"/>
			<point x="-262" y="421"/>
			<point x="-381" y="421" type="curve" smooth="yes"/>
			<point x="-496" y="421"/>
			<point x="-520" y="297"/>
			<point x="-597" y="297" type="curve"/>
			<point x="-681" y="297"/>
			<point x="-691" y="421"/>
			<point x="-806" y="421" type="curve"/>
			<point x="-900" y="421"/>
			<point x="-965" y="342"/>
			<point x="-994" y="216" type="curve"/>
			<point x="-913" y="216" type="line"/>
			<point x="-895" y="281"/>
			<point x="-869" y="335"/>
			<point x="-808" y="335" type="curve"/>
			<point x="-727" y="335"/>
			<point x="-726" y="210"/>
		</contour>
	</outline>
</glyph>
<glyph name="asciitilde_equal.cLig.x" format="2">
	<advance width="600"/>
	<outline>
		<contour>
			<point x="-310" y="332" type="line"/>
			<point x="-256" y="400"/>
			<point x="-197" y="423"/>
			<point x="-136" y="423" type="curve" smooth="yes"/>
			<point x="-29" y="423"/>
			<point x="33" y="320"/>
			<point x="164" y="320" type="curve" smooth="yes"/>
			<point x="239" y="320"/>
			<point x="300" y="349"/>
			<point x="340" y="398" type="curve"/>
			<point x="353" y="493" type="line"/>
			<point x="288" y="418"/>
			<point x="233" y="401"/>
			<point x="168" y="403" type="curve" smooth="yes"/>
			<point x="67" y="405"/>
			<point x="0" y="506"/>
			<point x="-128" y="506" type="curve" smooth="yes"/>
			<point x="-194" y="506"/>
			<point x="-257" y="477"/>
			<point x="-296" y="428" type="curve"/>
		</contour>
		<contour>
			<point x="-334" y="156" type="line"/>
			<point x="306" y="156" type="line"/>
			<point x="317" y="238" type="line"/>
			<point x="-323" y="238" type="line"/>
		</contour>
	</outline>
</glyph>
<glyph name="asciitilde_hyphen.cLig" format="2">
	<advance width="600"/>
	<outline>
		<contour>
			<point x="404" y="354" type="line"/>
			<point x="12" y="354" type="line"/>
			<point x="2" y="309"/>
			<point x="-18" y="282"/>
			<point x="-57" y="282" type="curve" smooth="yes"/>
			<point x="-126" y="282"/>
			<point x="-143" y="411"/>
			<point x="-248" y="411" type="curve" smooth="yes"/>
			<point x="-322" y="411"/>
			<point x="-380" y="363"/>
			<point x="-398" y="217" type="curve"/>
			<point x="-320" y="217" type="line"/>
			<point x="-311" y="291"/>
			<point x="-290" y="326"/>
			<point x="-249" y="326" type="curve" smooth="yes"/>
			<point x="-184" y="326"/>
			<point x="-162" y="198"/>
			<point x="-55" y="198" type="curve" smooth="yes"/>
			<point x="-6" y="198"/>
			<point x="33" y="221"/>
			<point x="57" y="269" type="curve"/>
			<point x="392" y="269" type="line"/>
		</contour>
	</outline>
</glyph>
<glyph name="asterisk_asterisk.cLig" format="2">
	<advance width="600"/>
	<outline>
		<contour>
			<point x="-483" y="160" type="line"/>
			<point x="-302" y="282" type="line"/>
			<point x="-355" y="80" type="line"/>
			<point x="-262" y="80" type="line"/>
			<point x="-258" y="280" type="line"/>
			<point x="-112" y="161" type="line"/>
			<point x="-55" y="240" type="line"/>
			<point x="-229" y="320" type="line"/>
			<point x="-32" y="401" type="line"/>
			<point x="-66" y="480" type="line"/>
			<point x="-246" y="360" type="line"/>
			<point x="-195" y="561" type="line"/>
			<point x="-287" y="561" type="line"/>
			<point x="-292" y="359" type="line"/>
			<point x="-439" y="481" type="line"/>
			<point x="-496" y="401" type="line"/>
			<point x="-319" y="320" type="line"/>
			<point x="-518" y="240" type="line"/>
		</contour>
		<contour>
			<point x="84" y="159" type="line"/>
			<point x="265" y="281" type="line"/>
			<point x="212" y="79" type="line"/>
			<point x="305" y="79" type="line"/>
			<point x="309" y="279" type="line"/>
			<point x="455" y="160" type="line"/>
			<point x="512" y="239" type="line"/>
			<point x="338" y="319" type="line"/>
			<point x="535" y="400" type="line"/>
			<point x="501" y="479" type="line"/>
			<point x="321" y="359" type="line"/>
			<point x="372" y="560" type="line"/>
			<point x="280" y="560" type="line"/>
			<point x="275" y="358" type="line"/>
			<point x="128" y="480" type="line"/>
			<point x="71" y="400" type="line"/>
			<point x="248" y="319" type="line"/>
			<point x="49" y="239" type="line"/>
		</contour>
	</outline>
</glyph>
<glyph name="asterisk_asterisk_slash.rem" format="2">
	<advance width="600"/>
	<outline>
		<contour>
			<point x="-1028" y="160" type="line"/>
			<point x="-847" y="282" type="line"/>
			<point x="-900" y="80" type="line"/>
			<point x="-807" y="80" type="line"/>
			<point x="-803" y="280" type="line"/>
			<point x="-657" y="161" type="line"/>
			<point x="-600" y="240" type="line"/>
			<point x="-774" y="320" type="line"/>
			<point x="-577" y="401" type="line"/>
			<point x="-611" y="480" type="line"/>
			<point x="-791" y="360" type="line"/>
			<point x="-740" y="561" type="line"/>
			<point x="-832" y="561" type="line"/>
			<point x="-837" y="359" type="line"/>
			<point x="-984" y="481" type="line"/>
			<point x="-1041" y="401" type="line"/>
			<point x="-864" y="320" type="line"/>
			<point x="-1063" y="240" type="line"/>
		</contour>
		<contour>
			<point x="-448" y="160" type="line"/>
			<point x="-267" y="282" type="line"/>
			<point x="-320" y="80" type="line"/>
			<point x="-227" y="80" type="line"/>
			<point x="-223" y="280" type="line"/>
			<point x="-77" y="161" type="line"/>
			<point x="-20" y="240" type="line"/>
			<point x="-194" y="320" type="line"/>
			<point x="3" y="401" type="line"/>
			<point x="-31" y="480" type="line"/>
			<point x="-211" y="360" type="line"/>
			<point x="-160" y="561" type="line"/>
			<point x="-252" y="561" type="line"/>
			<point x="-257" y="359" type="line"/>
			<point x="-404" y="481" type="line"/>
			<point x="-461" y="401" type="line"/>
			<point x="-284" y="320" type="line"/>
			<point x="-483" y="240" type="line"/>
		</contour>
		<contour>
			<point x="457" y="792" type="line"/>
			<point x="-48" y="-163" type="line"/>
			<point x="47" y="-163" type="line"/>
			<point x="553" y="792" type="line"/>
		</contour>
	</outline>
</glyph>
<glyph name="asterisk_slash.cLig" format="2">
	<advance width="600"/>
	<outline>
		<contour>
			<point x="-448" y="160" type="line"/>
			<point x="-267" y="282" type="line"/>
			<point x="-320" y="80" type="line"/>
			<point x="-227" y="80" type="line"/>
			<point x="-223" y="280" type="line"/>
			<point x="-77" y="161" type="line"/>
			<point x="-20" y="240" type="line"/>
			<point x="-194" y="320" type="line"/>
			<point x="3" y="401" type="line"/>
			<point x="-31" y="480" type="line"/>
			<point x="-211" y="360" type="line"/>
			<point x="-160" y="561" type="line"/>
			<point x="-252" y="561" type="line"/>
			<point x="-257" y="359" type="line"/>
			<point x="-404" y="481" type="line"/>
			<point x="-461" y="401" type="line"/>
			<point x="-284" y="320" type="line"/>
			<point x="-483" y="240" type="line"/>
		</contour>
		<contour>
			<point x="457" y="792" type="line"/>
			<point x="-48" y="-163" type="line"/>
			<point x="47" y="-163" type="line"/>
			<point x="553" y="792" type="line"/>
		</contour>
	</outline>
</glyph>
<glyph name="backslash_backslash.rem" format="2">
	<advance width="600"/>
	<outline>
		<contour>
			<point x="-151" y="-163" type="line"/>
			<point x="-63" y="-163" type="line"/>
			<point x="-307" y="792" type="line"/>
			<point x="-394" y="792" type="line"/>
		</contour>
		<contour>
			<point x="321" y="-163" type="line"/>
			<point x="409" y="-163" type="line"/>
			<point x="165" y="792" type="line"/>
			<point x="78" y="792" type="line"/>
		</contour>
	</outline>
</glyph>
<glyph name="bar_bar_bar.cLig" format="2">
	<advance width="600"/>
	<outline>
		<contour>
			<point x="230" y="792" type="line"/>
			<point x="95" y="-163" type="line"/>
			<point x="183" y="-163" type="line"/>
			<point x="317" y="792" type="line"/>
		</contour>
		<contour>
			<point x="-768" y="792" type="line"/>
			<point x="-903" y="-163" type="line"/>
			<point x="-815" y="-163" type="line"/>
			<point x="-681" y="792" type="line"/>
		</contour>
		<contour>
			<point x="-269" y="792" type="line"/>
			<point x="-404" y="-163" type="line"/>
			<point x="-316" y="-163" type="line"/>
			<point x="-182" y="792" type="line"/>
		</contour>
	</outline>
</glyph>
<glyph name="bar_bar_bar_greater.cLig" format="2">
	<advance width="600"/>
	<outline>
		<contour>
			<point x="-354" y="-79" type="line"/>
			<point x="-266" y="-79" type="line"/>
			<point x="324" y="263" type="line"/>
			<point x="338" y="365" type="line"/>
			<point x="-156" y="708" type="line"/>
			<point x="-244" y="708" type="line"/>
		</contour>
		<contour>
			<point x="-928" y="-79" type="line"/>
			<point x="-840" y="-79" type="line"/>
			<point x="-730" y="708" type="line"/>
			<point x="-818" y="708" type="line"/>
		</contour>
		<contour>
			<point x="-1503" y="-79" type="line"/>
			<point x="-1415" y="-79" type="line"/>
			<point x="-1305" y="708" type="line"/>
			<point x="-1393" y="708" type="line"/>
		</contour>
		<contour>
			<point x="-171" y="613" type="line"/>
			<point x="257" y="319" type="line"/>
			<point x="-253" y="26" type="line"/>
		</contour>
	</outline>
</glyph>
<glyph name="bar_bar_equal.fina" format="2">
	<advance width="600"/>
	<outline>
		<contour>
			<point x="-613" y="167" type="line"/>
			<point x="-128" y="167" type="line"/>
			<point x="-159" y="-55" type="line"/>
			<point x="-71" y="-55" type="line"/>
			<point x="33" y="684" type="line"/>
			<point x="-55" y="684" type="line"/>
			<point x="-86" y="462" type="line"/>
			<point x="-571" y="462" type="line"/>
			<point x="-583" y="380" type="line"/>
			<point x="-98" y="380" type="line"/>
			<point x="-116" y="249" type="line"/>
			<point x="-601" y="249" type="line"/>
		</contour>
		<contour>
			<point x="325" y="684" type="line"/>
			<point x="221" y="-55" type="line"/>
			<point x="309" y="-55" type="line"/>
			<point x="413" y="684" type="line"/>
		</contour>
	</outline>
</glyph>
<glyph name="bar_bar_equal.init" format="2">
	<advance width="600"/>
	<outline>
		<contour>
			<point x="-294" y="684" type="line"/>
			<point x="-398" y="-55" type="line"/>
			<point x="-310" y="-55" type="line"/>
			<point x="-206" y="684" type="line"/>
		</contour>
		<contour>
			<point x="86" y="684" type="line"/>
			<point x="-18" y="-55" type="line"/>
			<point x="70" y="-55" type="line"/>
			<point x="101" y="167" type="line"/>
			<point x="586" y="167" type="line"/>
			<point x="598" y="249" type="line"/>
			<point x="113" y="249" type="line"/>
			<point x="131" y="380" type="line"/>
			<point x="617" y="380" type="line"/>
			<point x="628" y="462" type="line"/>
			<point x="143" y="462" type="line"/>
			<point x="174" y="684" type="line"/>
		</contour>
	</outline>
</glyph>
<glyph name="bar_bar_equal.rem" format="2">
	<advance width="600"/>
	<outline>
		<contour>
			<point x="-897" y="684" type="line"/>
			<point x="-1001" y="-55" type="line"/>
			<point x="-913" y="-55" type="line"/>
			<point x="-809" y="684" type="line"/>
		</contour>
		<contour>
			<point x="-514" y="684" type="line"/>
			<point x="-618" y="-55" type="line"/>
			<point x="-530" y="-55" type="line"/>
			<point x="-499" y="167" type="line"/>
			<point x="415" y="167" type="line"/>
			<point x="426" y="249" type="line"/>
			<point x="-488" y="249" type="line"/>
			<point x="-469" y="380" type="line"/>
			<point x="445" y="380" type="line"/>
			<point x="456" y="462" type="line"/>
			<point x="-458" y="462" type="line"/>
			<point x="-426" y="684" type="line"/>
		</contour>
	</outline>
</glyph>
<glyph name="bar_bar_hyphen.fina" format="2">
	<advance width="600"/>
	<outline>
		<contour>
			<point x="221" y="-55" type="line"/>
			<point x="309" y="-55" type="line"/>
			<point x="413" y="684" type="line"/>
			<point x="325" y="684" type="line"/>
		</contour>
		<contour>
			<point x="-599" y="271" type="line"/>
			<point x="-113" y="271" type="line"/>
			<point x="-159" y="-55" type="line"/>
			<point x="-71" y="-55" type="line"/>
			<point x="33" y="684" type="line"/>
			<point x="-55" y="684" type="line"/>
			<point x="-101" y="356" type="line"/>
			<point x="-587" y="356" type="line"/>
		</contour>
	</outline>
</glyph>
<glyph name="bar_bar_hyphen.med" format="2">
	<advance width="600"/>
	<outline>
		<contour>
			<point x="102" y="-55" type="line"/>
			<point x="190" y="-55" type="line"/>
			<point x="236" y="271" type="line"/>
			<point x="601" y="271" type="line"/>
			<point x="613" y="356" type="line"/>
			<point x="248" y="356" type="line"/>
			<point x="294" y="684" type="line"/>
			<point x="206" y="684" type="line"/>
		</contour>
		<contour>
			<point x="-599" y="271" type="line"/>
			<point x="-232" y="271" type="line"/>
			<point x="-278" y="-55" type="line"/>
			<point x="-190" y="-55" type="line"/>
			<point x="-86" y="684" type="line"/>
			<point x="-174" y="684" type="line"/>
			<point x="-220" y="356" type="line"/>
			<point x="-587" y="356" type="line"/>
		</contour>
	</outline>
</glyph>
<glyph name="bar_braceright.cLig" format="2">
	<advance width="600"/>
	<outline>
		<contour>
			<point x="280" y="792" type="curve" smooth="yes"/>
			<point x="28" y="792" type="line"/>
			<point x="19" y="722" type="line"/>
			<point x="247" y="722" type="line" smooth="yes"/>
			<point x="306" y="722"/>
			<point x="337" y="699"/>
			<point x="337" y="652" type="curve" smooth="yes"/>
			<point x="337" y="558"/>
			<point x="201" y="515"/>
			<point x="201" y="412" type="curve" smooth="yes"/>
			<point x="201" y="363"/>
			<point x="243" y="326"/>
			<point x="295" y="316" type="curve"/>
			<point x="240" y="308"/>
			<point x="171" y="277"/>
			<point x="171" y="196" type="curve" smooth="yes"/>
			<point x="171" y="117"/>
			<point x="244" y="55"/>
			<point x="244" y="-15" type="curve" smooth="yes"/>
			<point x="244" y="-75"/>
			<point x="201" y="-93"/>
			<point x="136" y="-93" type="curve" smooth="yes"/>
			<point x="-95" y="-93" type="line"/>
			<point x="-106" y="-163" type="line"/>
			<point x="163" y="-163" type="line" smooth="yes"/>
			<point x="273" y="-163"/>
			<point x="337" y="-108"/>
			<point x="337" y="-24" type="curve" smooth="yes"/>
			<point x="337" y="61"/>
			<point x="263" y="129"/>
			<point x="263" y="198" type="curve" smooth="yes"/>
			<point x="263" y="240"/>
			<point x="293" y="274"/>
			<point x="345" y="274" type="curve" smooth="yes"/>
			<point x="429" y="274" type="line"/>
			<point x="441" y="357" type="line"/>
			<point x="364" y="357" type="line" smooth="yes"/>
			<point x="313" y="357"/>
			<point x="296" y="388"/>
			<point x="296" y="417" type="curve" smooth="yes"/>
			<point x="296" y="493"/>
			<point x="434" y="543"/>
			<point x="434" y="665" type="curve" smooth="yes"/>
			<point x="434" y="734"/>
			<point x="390" y="792"/>
		</contour>
		<contour>
			<point x="-322" y="-163" type="line"/>
			<point x="-187" y="792" type="line"/>
			<point x="-274" y="792" type="line"/>
			<point x="-408" y="-163" type="line"/>
		</contour>
	</outline>
</glyph>
<glyph name="bar_greater.cLig" format="2">
	<advance width="600"/>
	<outline>
		<contour>
			<point x="-317" y="-79" type="line"/>
			<point x="-229" y="-79" type="line"/>
			<point x="361" y="263" type="line"/>
			<point x="375" y="365" type="line"/>
			<point x="-119" y="708" type="line"/>
			<point x="-207" y="708" type="line"/>
		</contour>
		<contour>
			<point x="-134" y="613" type="line"/>
			<point x="295" y="319" type="line"/>
			<point x="-216" y="26" type="line"/>
		</contour>
	</outline>
</glyph>
<glyph name="bar_hyphen.fina" format="2">
	<advance width="600"/>
	<outline>
		<contour>
			<point x="1" y="271" type="line"/>
			<point x="367" y="271" type="line"/>
			<point x="321" y="-55" type="line"/>
			<point x="409" y="-55" type="line"/>
			<point x="513" y="684" type="line"/>
			<point x="425" y="684" type="line"/>
			<point x="379" y="356" type="line"/>
			<point x="13" y="356" type="line"/>
		</contour>
	</outline>
</glyph>
<glyph name="bar_hyphen.init" format="2">
	<advance width="600"/>
	<outline>
		<contour>
			<point x="102" y="-55" type="line"/>
			<point x="190" y="-55" type="line"/>
			<point x="236" y="271" type="line"/>
			<point x="601" y="271" type="line"/>
			<point x="613" y="356" type="line"/>
			<point x="248" y="356" type="line"/>
			<point x="294" y="684" type="line"/>
			<point x="206" y="684" type="line"/>
		</contour>
	</outline>
</glyph>
<glyph name="bar_hyphen_greater.rem" format="2">
	<advance width="600"/>
	<outline>
		<contour>
			<point x="-1065" y="0" type="line"/>
			<point x="-977" y="0" type="line"/>
			<point x="-939" y="272" type="line"/>
			<point x="-78" y="272" type="line"/>
			<point x="292" y="271" type="line"/>
			<point x="11" y="0" type="line"/>
			<point x="125" y="0" type="line"/>
			<point x="446" y="314" type="line"/>
			<point x="209" y="629" type="line"/>
			<point x="104" y="629" type="line"/>
			<point x="311" y="356" type="line"/>
			<point x="14" y="357" type="line"/>
			<point x="-927" y="357" type="line"/>
			<point x="-889" y="629" type="line"/>
			<point x="-977" y="629" type="line"/>
		</contour>
	</outline>
</glyph>
<glyph name="bar_underscore.med" format="2">
	<advance width="600"/>
	<outline>
		<contour>
			<point x="-51" y="-98" type="line"/>
			<point x="-61" y="-173" type="line"/>
			<point x="539" y="-173" type="line"/>
			<point x="549" y="-98" type="line"/>
			<point x="293" y="-98" type="line"/>
			<point x="418" y="792" type="line"/>
			<point x="331" y="792" type="line"/>
			<point x="205" y="-98" type="line"/>
		</contour>
	</outline>
</glyph>
<glyph name="braceleft_braceleft.cLig" format="2">
	<advance width="600"/>
	<outline>
		<contour>
			<point x="-111" y="-163" type="line"/>
			<point x="-101" y="-93" type="line"/>
			<point x="-223" y="-93" type="line" smooth="yes"/>
			<point x="-283" y="-93"/>
			<point x="-313" y="-70"/>
			<point x="-313" y="-23" type="curve" smooth="yes"/>
			<point x="-313" y="71"/>
			<point x="-178" y="114"/>
			<point x="-178" y="217" type="curve" smooth="yes"/>
			<point x="-178" y="266"/>
			<point x="-220" y="304"/>
			<point x="-272" y="313" type="curve"/>
			<point x="-217" y="321"/>
			<point x="-147" y="352"/>
			<point x="-147" y="433" type="curve" smooth="yes"/>
			<point x="-147" y="512"/>
			<point x="-221" y="574"/>
			<point x="-221" y="644" type="curve" smooth="yes"/>
			<point x="-221" y="704"/>
			<point x="-177" y="722"/>
			<point x="-113" y="722" type="curve" smooth="yes"/>
			<point x="220" y="722" type="line"/>
			<point x="169" y="707"/>
			<point x="145" y="677"/>
			<point x="145" y="631" type="curve" smooth="yes"/>
			<point x="145" y="555"/>
			<point x="219" y="495"/>
			<point x="219" y="428" type="curve" smooth="yes"/>
			<point x="219" y="386"/>
			<point x="190" y="355"/>
			<point x="132" y="355" type="curve" smooth="yes"/>
			<point x="39" y="355" type="line"/>
			<point x="27" y="272" type="line"/>
			<point x="113" y="272" type="line" smooth="yes"/>
			<point x="168" y="272"/>
			<point x="187" y="244"/>
			<point x="187" y="214" type="curve"/>
			<point x="187" y="137"/>
			<point x="48" y="86"/>
			<point x="48" y="-36" type="curve" smooth="yes"/>
			<point x="48" y="-105"/>
			<point x="92" y="-163"/>
			<point x="202" y="-163" type="curve" smooth="yes"/>
			<point x="384" y="-163" type="line"/>
			<point x="394" y="-93" type="line"/>
			<point x="235" y="-93" type="line" smooth="yes"/>
			<point x="176" y="-93"/>
			<point x="145" y="-70"/>
			<point x="145" y="-23" type="curve" smooth="yes"/>
			<point x="145" y="70"/>
			<point x="281" y="116"/>
			<point x="281" y="219" type="curve"/>
			<point x="281" y="268"/>
			<point x="240" y="304"/>
			<point x="187" y="313" type="curve"/>
			<point x="242" y="320"/>
			<point x="312" y="349"/>
			<point x="312" y="431" type="curve" smooth="yes"/>
			<point x="312" y="510"/>
			<point x="238" y="570"/>
			<point x="238" y="642" type="curve" smooth="yes"/>
			<point x="238" y="700"/>
			<point x="282" y="722"/>
			<point x="349" y="722" type="curve" smooth="yes"/>
			<point x="507" y="722" type="line"/>
			<point x="518" y="792" type="line"/>
			<point x="-139" y="792" type="line" smooth="yes"/>
			<point x="-249" y="792"/>
			<point x="-313" y="737"/>
			<point x="-313" y="653" type="curve" smooth="yes"/>
			<point x="-313" y="568"/>
			<point x="-240" y="500"/>
			<point x="-240" y="431" type="curve" smooth="yes"/>
			<point x="-240" y="389"/>
			<point x="-269" y="355"/>
			<point x="-322" y="355" type="curve" smooth="yes"/>
			<point x="-417" y="355" type="line"/>
			<point x="-429" y="272" type="line"/>
			<point x="-341" y="272" type="line" smooth="yes"/>
			<point x="-290" y="272"/>
			<point x="-272" y="241"/>
			<point x="-272" y="212" type="curve" smooth="yes"/>
			<point x="-272" y="136"/>
			<point x="-410" y="86"/>
			<point x="-410" y="-36" type="curve" smooth="yes"/>
			<point x="-410" y="-105"/>
			<point x="-367" y="-163"/>
			<point x="-256" y="-163" type="curve" smooth="yes"/>
		</contour>
	</outline>
</glyph>
<glyph name="braceleft_hyphen.rem" format="2">
	<advance width="600"/>
	<outline>
		<contour>
			<point x="59" y="792" type="line"/>
			<point x="-103" y="792" type="line" smooth="yes"/>
			<point x="-213" y="792"/>
			<point x="-275" y="736"/>
			<point x="-275" y="652" type="curve" smooth="yes"/>
			<point x="-275" y="569"/>
			<point x="-203" y="494"/>
			<point x="-203" y="430" type="curve" smooth="yes"/>
			<point x="-203" y="386"/>
			<point x="-234" y="355"/>
			<point x="-301" y="355" type="curve" smooth="yes"/>
			<point x="-375" y="355" type="line"/>
			<point x="-387" y="272" type="line"/>
			<point x="-303" y="272" type="line" smooth="yes"/>
			<point x="-255" y="272"/>
			<point x="-236" y="243"/>
			<point x="-236" y="213" type="curve" smooth="yes"/>
			<point x="-236" y="135"/>
			<point x="-374" y="83"/>
			<point x="-374" y="-36" type="curve" smooth="yes"/>
			<point x="-374" y="-105"/>
			<point x="-330" y="-163"/>
			<point x="-220" y="-163" type="curve" smooth="yes"/>
			<point x="-75" y="-163" type="line"/>
			<point x="-65" y="-93" type="line"/>
			<point x="-188" y="-93" type="line" smooth="yes"/>
			<point x="-247" y="-93"/>
			<point x="-278" y="-70"/>
			<point x="-278" y="-23" type="curve" smooth="yes"/>
			<point x="-278" y="68"/>
			<point x="-142" y="113"/>
			<point x="-142" y="209" type="curve" smooth="yes"/>
			<point x="-142" y="247"/>
			<point x="-166" y="264"/>
			<point x="-198" y="275" type="curve"/>
			<point x="425" y="275" type="line"/>
			<point x="438" y="355" type="line"/>
			<point x="-184" y="355" type="line"/>
			<point x="-144" y="367"/>
			<point x="-110" y="390"/>
			<point x="-110" y="439" type="curve" smooth="yes"/>
			<point x="-110" y="506"/>
			<point x="-184" y="574"/>
			<point x="-184" y="644" type="curve" smooth="yes"/>
			<point x="-184" y="704"/>
			<point x="-142" y="722"/>
			<point x="-78" y="722" type="curve" smooth="yes"/>
			<point x="49" y="722" type="line"/>
		</contour>
	</outline>
</glyph>
<glyph name="braceright_braceright.cLig" format="2">
	<advance width="600"/>
	<outline>
		<contour>
			<point x="120" y="792" type="line"/>
			<point x="110" y="722" type="line"/>
			<point x="232" y="722" type="line" smooth="yes"/>
			<point x="292" y="722"/>
			<point x="322" y="699"/>
			<point x="322" y="652" type="curve" smooth="yes"/>
			<point x="322" y="558"/>
			<point x="187" y="515"/>
			<point x="187" y="412" type="curve" smooth="yes"/>
			<point x="187" y="363"/>
			<point x="229" y="325"/>
			<point x="281" y="316" type="curve"/>
			<point x="226" y="308"/>
			<point x="156" y="277"/>
			<point x="156" y="196" type="curve" smooth="yes"/>
			<point x="156" y="117"/>
			<point x="230" y="55"/>
			<point x="230" y="-15" type="curve" smooth="yes"/>
			<point x="230" y="-75"/>
			<point x="186" y="-93"/>
			<point x="122" y="-93" type="curve" smooth="yes"/>
			<point x="-211" y="-93" type="line"/>
			<point x="-160" y="-78"/>
			<point x="-136" y="-48"/>
			<point x="-136" y="-2" type="curve" smooth="yes"/>
			<point x="-136" y="74"/>
			<point x="-210" y="134"/>
			<point x="-210" y="201" type="curve" smooth="yes"/>
			<point x="-210" y="243"/>
			<point x="-181" y="274"/>
			<point x="-123" y="274" type="curve" smooth="yes"/>
			<point x="-30" y="274" type="line"/>
			<point x="-18" y="357" type="line"/>
			<point x="-104" y="357" type="line" smooth="yes"/>
			<point x="-159" y="357"/>
			<point x="-178" y="385"/>
			<point x="-178" y="415" type="curve"/>
			<point x="-178" y="492"/>
			<point x="-39" y="543"/>
			<point x="-39" y="665" type="curve" smooth="yes"/>
			<point x="-39" y="734"/>
			<point x="-83" y="792"/>
			<point x="-193" y="792" type="curve" smooth="yes"/>
			<point x="-375" y="792" type="line"/>
			<point x="-385" y="722" type="line"/>
			<point x="-226" y="722" type="line" smooth="yes"/>
			<point x="-167" y="722"/>
			<point x="-136" y="699"/>
			<point x="-136" y="652" type="curve" smooth="yes"/>
			<point x="-136" y="559"/>
			<point x="-272" y="513"/>
			<point x="-272" y="410" type="curve"/>
			<point x="-272" y="361"/>
			<point x="-231" y="325"/>
			<point x="-178" y="316" type="curve"/>
			<point x="-233" y="309"/>
			<point x="-303" y="280"/>
			<point x="-303" y="198" type="curve" smooth="yes"/>
			<point x="-303" y="119"/>
			<point x="-229" y="59"/>
			<point x="-229" y="-13" type="curve" smooth="yes"/>
			<point x="-229" y="-71"/>
			<point x="-273" y="-93"/>
			<point x="-340" y="-93" type="curve" smooth="yes"/>
			<point x="-498" y="-93" type="line"/>
			<point x="-509" y="-163" type="line"/>
			<point x="148" y="-163" type="line" smooth="yes"/>
			<point x="258" y="-163"/>
			<point x="322" y="-108"/>
			<point x="322" y="-24" type="curve" smooth="yes"/>
			<point x="322" y="61"/>
			<point x="249" y="129"/>
			<point x="249" y="198" type="curve" smooth="yes"/>
			<point x="249" y="240"/>
			<point x="278" y="274"/>
			<point x="331" y="274" type="curve" smooth="yes"/>
			<point x="426" y="274" type="line"/>
			<point x="438" y="357" type="line"/>
			<point x="350" y="357" type="line" smooth="yes"/>
			<point x="299" y="357"/>
			<point x="281" y="388"/>
			<point x="281" y="417" type="curve" smooth="yes"/>
			<point x="281" y="493"/>
			<point x="419" y="543"/>
			<point x="419" y="665" type="curve" smooth="yes"/>
			<point x="419" y="734"/>
			<point x="376" y="792"/>
			<point x="265" y="792" type="curve" smooth="yes"/>
		</contour>
	</outline>
</glyph>
<glyph name="braceright_numbersign.cLig" format="2">
	<advance width="600"/>
	<outline>
		<contour>
			<point x="-553" y="-163" type="line"/>
			<point x="-391" y="-163" type="line" smooth="yes"/>
			<point x="-280" y="-163"/>
			<point x="-218" y="-108"/>
			<point x="-218" y="-24" type="curve" smooth="yes"/>
			<point x="-218" y="61"/>
			<point x="-291" y="129"/>
			<point x="-291" y="198" type="curve" smooth="yes"/>
			<point x="-291" y="240"/>
			<point x="-261" y="274"/>
			<point x="-207" y="274" type="curve" smooth="yes"/>
			<point x="-144" y="274" type="line"/>
			<point x="-132" y="357" type="line"/>
			<point x="-189" y="357" type="line" smooth="yes"/>
			<point x="-240" y="357"/>
			<point x="-258" y="388"/>
			<point x="-258" y="416" type="curve" smooth="yes"/>
			<point x="-258" y="493"/>
			<point x="-119" y="543"/>
			<point x="-119" y="665" type="curve" smooth="yes"/>
			<point x="-119" y="734"/>
			<point x="-164" y="792"/>
			<point x="-274" y="792" type="curve" smooth="yes"/>
			<point x="-419" y="792" type="line"/>
			<point x="-429" y="722" type="line"/>
			<point x="-307" y="722" type="line" smooth="yes"/>
			<point x="-247" y="722"/>
			<point x="-216" y="699"/>
			<point x="-216" y="652" type="curve" smooth="yes"/>
			<point x="-216" y="558"/>
			<point x="-352" y="515"/>
			<point x="-352" y="412" type="curve" smooth="yes"/>
			<point x="-352" y="362"/>
			<point x="-311" y="325"/>
			<point x="-259" y="315" type="curve"/>
			<point x="-311" y="308"/>
			<point x="-383" y="279"/>
			<point x="-383" y="196" type="curve" smooth="yes"/>
			<point x="-383" y="117"/>
			<point x="-310" y="55"/>
			<point x="-310" y="-15" type="curve" smooth="yes"/>
			<point x="-310" y="-75"/>
			<point x="-352" y="-93"/>
			<point x="-416" y="-93" type="curve" smooth="yes"/>
			<point x="-543" y="-93" type="line"/>
		</contour>
		<contour>
			<point x="-56" y="241" type="line"/>
			<point x="-66" y="167" type="line"/>
			<point x="64" y="167" type="line"/>
			<point x="25" y="0" type="line"/>
			<point x="103" y="0" type="line"/>
			<point x="142" y="167" type="line"/>
			<point x="279" y="167" type="line"/>
			<point x="240" y="0" type="line"/>
			<point x="315" y="0" type="line"/>
			<point x="355" y="167" type="line"/>
			<point x="468" y="167" type="line"/>
			<point x="479" y="241" type="line"/>
			<point x="372" y="241" type="line"/>
			<point x="423" y="454" type="line"/>
			<point x="533" y="454" type="line"/>
			<point x="543" y="529" type="line"/>
			<point x="441" y="529" type="line"/>
			<point x="477" y="684" type="line"/>
			<point x="400" y="684" type="line"/>
			<point x="364" y="529" type="line"/>
			<point x="227" y="529" type="line"/>
			<point x="263" y="684" type="line"/>
			<point x="186" y="684" type="line"/>
			<point x="150" y="529" type="line"/>
			<point x="-15" y="529" type="line"/>
			<point x="-26" y="454" type="line"/>
			<point x="132" y="454" type="line"/>
			<point x="82" y="241" type="line"/>
		</contour>
		<contour>
			<point x="159" y="241" type="line"/>
			<point x="209" y="454" type="line"/>
			<point x="346" y="454" type="line"/>
			<point x="296" y="241" type="line"/>
		</contour>
	</outline>
</glyph>
<glyph name="bracketleft_bracketleft.cLig" format="2">
	<advance width="600"/>
	<outline>
		<contour>
			<point x="371" y="-93" type="line"/>
			<point x="133" y="-93" type="line"/>
			<point x="248" y="722" type="line"/>
			<point x="486" y="722" type="line"/>
			<point x="496" y="792" type="line"/>
			<point x="170" y="792" type="line"/>
			<point x="35" y="-163" type="line"/>
			<point x="361" y="-163" type="line"/>
		</contour>
		<contour>
			<point x="-40" y="-93" type="line"/>
			<point x="-340" y="-93" type="line"/>
			<point x="-225" y="722" type="line"/>
			<point x="75" y="722" type="line"/>
			<point x="85" y="792" type="line"/>
			<point x="-303" y="792" type="line"/>
			<point x="-438" y="-163" type="line"/>
			<point x="-50" y="-163" type="line"/>
		</contour>
	</outline>
</glyph>
<glyph name="bracketright_bracketright.cLig" format="2">
	<advance width="600"/>
	<outline>
		<contour>
			<point x="-356" y="722" type="line"/>
			<point x="-118" y="722" type="line"/>
			<point x="-233" y="-93" type="line"/>
			<point x="-471" y="-93" type="line"/>
			<point x="-481" y="-163" type="line"/>
			<point x="-155" y="-163" type="line"/>
			<point x="-20" y="792" type="line"/>
			<point x="-346" y="792" type="line"/>
		</contour>
		<contour>
			<point x="55" y="722" type="line"/>
			<point x="355" y="722" type="line"/>
			<point x="240" y="-93" type="line"/>
			<point x="-60" y="-93" type="line"/>
			<point x="-70" y="-163" type="line"/>
			<point x="318" y="-163" type="line"/>
			<point x="453" y="792" type="line"/>
			<point x="65" y="792" type="line"/>
		</contour>
	</outline>
</glyph>
<glyph name="caronSlovak" format="2">
	<advance width="600"/>
	<outline>
		<contour>
			<point x="290" y="575" type="line"/>
			<point x="349" y="575" type="line"/>
			<point x="434" y="750" type="line"/>
			<point x="339" y="750" type="line"/>
		</contour>
	</outline>
	<anchor name="_caron" x="339" y="750"/>
</glyph>
<glyph name="colon_colon_equal.cLig" format="2">
	<advance width="600"/>
	<outline>
		<contour>
			<point x="-852" y="376" type="curve" smooth="yes"/>
			<point x="-800" y="376"/>
			<point x="-777" y="397"/>
			<point x="-770" y="440" type="curve" smooth="yes"/>
			<point x="-763" y="489"/>
			<point x="-784" y="516"/>
			<point x="-842" y="516" type="curve" smooth="yes"/>
			<point x="-895" y="516"/>
			<point x="-918" y="494"/>
			<point x="-923" y="451" type="curve" smooth="yes"/>
			<point x="-931" y="402"/>
			<point x="-910" y="376"/>
		</contour>
		<contour>
			<point x="-481" y="376" type="curve" smooth="yes"/>
			<point x="-429" y="376"/>
			<point x="-406" y="397"/>
			<point x="-400" y="440" type="curve" smooth="yes"/>
			<point x="-393" y="489"/>
			<point x="-413" y="516"/>
			<point x="-471" y="516" type="curve" smooth="yes"/>
			<point x="-524" y="516"/>
			<point x="-547" y="494"/>
			<point x="-553" y="451" type="curve" smooth="yes"/>
			<point x="-560" y="402"/>
			<point x="-539" y="376"/>
		</contour>
		<contour>
			<point x="-166" y="370" type="line"/>
			<point x="366" y="370" type="line"/>
			<point x="377" y="452" type="line"/>
			<point x="-154" y="452" type="line"/>
		</contour>
		<contour>
			<point x="-195" y="156" type="line"/>
			<point x="336" y="156" type="line"/>
			<point x="348" y="238" type="line"/>
			<point x="-184" y="238" type="line"/>
		</contour>
		<contour>
			<point x="-892" y="88" type="curve" smooth="yes"/>
			<point x="-840" y="88"/>
			<point x="-816" y="110"/>
			<point x="-810" y="153" type="curve" smooth="yes"/>
			<point x="-803" y="201"/>
			<point x="-824" y="229"/>
			<point x="-882" y="229" type="curve" smooth="yes"/>
			<point x="-934" y="229"/>
			<point x="-958" y="207"/>
			<point x="-963" y="163" type="curve" smooth="yes"/>
			<point x="-971" y="115"/>
			<point x="-950" y="88"/>
		</contour>
		<contour>
			<point x="-521" y="88" type="curve" smooth="yes"/>
			<point x="-469" y="88"/>
			<point x="-446" y="110"/>
			<point x="-439" y="153" type="curve" smooth="yes"/>
			<point x="-432" y="201"/>
			<point x="-453" y="229"/>
			<point x="-511" y="229" type="curve" smooth="yes"/>
			<point x="-564" y="229"/>
			<point x="-587" y="207"/>
			<point x="-592" y="163" type="curve" smooth="yes"/>
			<point x="-600" y="115"/>
			<point x="-579" y="88"/>
		</contour>
	</outline>
</glyph>
<glyph name="colon_less.cLig.x" format="2">
	<advance width="600"/>
	<outline>
		<contour>
			<point x="387" y="-6" type="line"/>
			<point x="401" y="86" type="line"/>
			<point x="61" y="311" type="line"/>
			<point x="464" y="534" type="line"/>
			<point x="478" y="635" type="line"/>
			<point x="-4" y="366" type="line"/>
			<point x="-18" y="263" type="line"/>
		</contour>
		<contour>
			<point x="-271" y="439" type="curve" smooth="yes"/>
			<point x="-219" y="439"/>
			<point x="-196" y="460"/>
			<point x="-189" y="503" type="curve" smooth="yes"/>
			<point x="-182" y="552"/>
			<point x="-203" y="579"/>
			<point x="-261" y="579" type="curve" smooth="yes"/>
			<point x="-314" y="579"/>
			<point x="-337" y="557"/>
			<point x="-342" y="514" type="curve" smooth="yes"/>
			<point x="-350" y="465"/>
			<point x="-329" y="439"/>
		</contour>
		<contour>
			<point x="-326" y="45" type="curve" smooth="yes"/>
			<point x="-274" y="45"/>
			<point x="-250" y="66"/>
			<point x="-244" y="109" type="curve" smooth="yes"/>
			<point x="-237" y="158"/>
			<point x="-258" y="185"/>
			<point x="-316" y="185" type="curve" smooth="yes"/>
			<point x="-368" y="185"/>
			<point x="-392" y="163"/>
			<point x="-397" y="120" type="curve" smooth="yes"/>
			<point x="-405" y="71"/>
			<point x="-384" y="45"/>
		</contour>
	</outline>
</glyph>
<glyph name="dieresis.cap" format="2">
	<advance width="600"/>
	<outline>
		<contour>
			<point x="478" y="863" type="curve" smooth="yes"/>
			<point x="435" y="863"/>
			<point x="421" y="845"/>
			<point x="416" y="812" type="curve" smooth="yes"/>
			<point x="411" y="780"/>
			<point x="425" y="760"/>
			<point x="469" y="760" type="curve" smooth="yes"/>
			<point x="512" y="760"/>
			<point x="526" y="777"/>
			<point x="531" y="809" type="curve" smooth="yes"/>
			<point x="535" y="844"/>
			<point x="521" y="863"/>
		</contour>
		<contour>
			<point x="276" y="760" type="curve" smooth="yes"/>
			<point x="320" y="760"/>
			<point x="333" y="777"/>
			<point x="338" y="810" type="curve" smooth="yes"/>
			<point x="343" y="843"/>
			<point x="329" y="863"/>
			<point x="286" y="863" type="curve" smooth="yes"/>
			<point x="243" y="863"/>
			<point x="228" y="846"/>
			<point x="224" y="813" type="curve" smooth="yes"/>
			<point x="220" y="779"/>
			<point x="233" y="760"/>
		</contour>
	</outline>
	<anchor name="_top" x="360" y="684"/>
</glyph>
<glyph name="dotaccent.cap" format="2">
	<advance width="600"/>
	<outline>
		<contour>
			<point x="374" y="760" type="curve" smooth="yes"/>
			<point x="423" y="760"/>
			<point x="438" y="778"/>
			<point x="442" y="816" type="curve" smooth="yes"/>
			<point x="446" y="852"/>
			<point x="426" y="870"/>
			<point x="382" y="870" type="curve" smooth="yes"/>
			<point x="333" y="870"/>
			<point x="317" y="851"/>
			<point x="314" y="813" type="curve" smooth="yes"/>
			<point x="311" y="778"/>
			<point x="329" y="760"/>
		</contour>
	</outline>
	<anchor name="_top" x="360" y="684"/>
</glyph>
<glyph name="dotbelow" format="2">
	<advance width="600"/>
	<outline>
		<contour>
			<point x="245" y="-157" type="curve" smooth="yes"/>
			<point x="292" y="-157"/>
			<point x="309" y="-136"/>
			<point x="313" y="-98" type="curve" smooth="yes"/>
			<point x="317" y="-59"/>
			<point x="299" y="-38"/>
			<point x="254" y="-38" type="curve" smooth="yes"/>
			<point x="208" y="-38"/>
			<point x="189" y="-56"/>
			<point x="185" y="-96" type="curve" smooth="yes"/>
			<point x="180" y="-135"/>
			<point x="198" y="-157"/>
		</contour>
	</outline>
	<anchor name="bottom" x="263" y="0"/>
</glyph>
<glyph name="equal.med" format="2">
	<advance width="600"/>
	<outline>
		<contour>
			<point x="17" y="380" type="line"/>
			<point x="616" y="380" type="line"/>
			<point x="628" y="462" type="line"/>
			<point x="29" y="462" type="line"/>
		</contour>
		<contour>
			<point x="-13" y="167" type="line"/>
			<point x="586" y="167" type="line"/>
			<point x="598" y="249" type="line"/>
			<point x="-2" y="249" type="line"/>
		</contour>
	</outline>
</glyph>
<glyph name="equal_bar.rem" format="2">
	<advance width="600"/>
	<outline>
		<contour>
			<point x="312" y="-55" type="line"/>
			<point x="416" y="684" type="line"/>
			<point x="328" y="684" type="line"/>
			<point x="297" y="462" type="line"/>
			<point x="-400" y="462" type="line"/>
			<point x="-411" y="380" type="line"/>
			<point x="285" y="380" type="line"/>
			<point x="267" y="249" type="line"/>
			<point x="-430" y="249" type="line"/>
			<point x="-441" y="167" type="line"/>
			<point x="255" y="167" type="line"/>
			<point x="224" y="-55" type="line"/>
		</contour>
	</outline>
</glyph>
<glyph name="equal_bar_bar.rem" format="2">
	<advance width="600"/>
	<outline>
		<contour>
			<point x="312" y="-55" type="line"/>
			<point x="416" y="684" type="line"/>
			<point x="328" y="684" type="line"/>
			<point x="224" y="-55" type="line"/>
		</contour>
		<contour>
			<point x="-71" y="-55" type="line"/>
			<point x="33" y="684" type="line"/>
			<point x="-55" y="684" type="line"/>
			<point x="-86" y="462" type="line"/>
			<point x="-1000" y="462" type="line"/>
			<point x="-1011" y="380" type="line"/>
			<point x="-97" y="380" type="line"/>
			<point x="-116" y="249" type="line"/>
			<point x="-1030" y="249" type="line"/>
			<point x="-1041" y="167" type="line"/>
			<point x="-127" y="167" type="line"/>
			<point x="-159" y="-55" type="line"/>
		</contour>
	</outline>
</glyph>
<glyph name="equal_equal.cLig" format="2">
	<advance width="600"/>
	<outline>
		<contour>
			<point x="-413" y="367" type="line"/>
			<point x="443" y="367" type="line"/>
			<point x="454" y="448" type="line"/>
			<point x="-401" y="448" type="line"/>
		</contour>
		<contour>
			<point x="-443" y="153" type="line"/>
			<point x="413" y="153" type="line"/>
			<point x="424" y="234" type="line"/>
			<point x="-431" y="234" type="line"/>
		</contour>
	</outline>
</glyph>
<glyph name="equal_equal_greater.rem" format="2">
	<advance width="600"/>
	<outline>
		<contour>
			<point x="-1041" y="167" type="line"/>
			<point x="214" y="167" type="line"/>
			<point x="45" y="0" type="line"/>
			<point x="158" y="0" type="line"/>
			<point x="474" y="312" type="line"/>
			<point x="239" y="629" type="line"/>
			<point x="136" y="629" type="line"/>
			<point x="259" y="462" type="line"/>
			<point x="-1000" y="462" type="line"/>
			<point x="-1011" y="380" type="line"/>
			<point x="320" y="380" type="line"/>
			<point x="367" y="317" type="line"/>
			<point x="297" y="249" type="line"/>
			<point x="-1029" y="249" type="line"/>
		</contour>
	</outline>
</glyph>
<glyph name="equal_less.rem" format="2">
	<advance width="600"/>
	<outline>
		<contour>
			<point x="426" y="249" type="line"/>
			<point x="-315" y="249" type="line"/>
			<point x="-362" y="312" type="line"/>
			<point x="-292" y="380" type="line"/>
			<point x="445" y="380" type="line"/>
			<point x="456" y="462" type="line"/>
			<point x="-209" y="462" type="line"/>
			<point x="-40" y="629" type="line"/>
			<point x="-153" y="629" type="line"/>
			<point x="-469" y="317" type="line"/>
			<point x="-234" y="0" type="line"/>
			<point x="-131" y="0" type="line"/>
			<point x="-255" y="167" type="line"/>
			<point x="415" y="167" type="line"/>
		</contour>
	</outline>
</glyph>
<glyph name="exclam_asciitilde.cLig" format="2">
	<advance width="600"/>
	<outline>
		<contour>
			<point x="-323" y="-69" type="line"/>
			<point x="-233" y="-69" type="line"/>
			<point x="-58" y="156" type="line"/>
			<point x="305" y="156" type="line"/>
			<point x="316" y="238" type="line"/>
			<point x="5" y="238" type="line"/>
			<point x="80" y="335" type="line"/>
			<point x="105" y="326"/>
			<point x="132" y="320"/>
			<point x="164" y="320" type="curve" smooth="yes"/>
			<point x="239" y="320"/>
			<point x="300" y="349"/>
			<point x="339" y="398" type="curve"/>
			<point x="352" y="493" type="line"/>
			<point x="288" y="418"/>
			<point x="232" y="401"/>
			<point x="167" y="403" type="curve" smooth="yes"/>
			<point x="156" y="403"/>
			<point x="146" y="405"/>
			<point x="136" y="407" type="curve"/>
			<point x="324" y="649" type="line"/>
			<point x="234" y="649" type="line"/>
			<point x="67" y="434" type="line"/>
			<point x="10" y="464"/>
			<point x="-47" y="506"/>
			<point x="-129" y="506" type="curve" smooth="yes"/>
			<point x="-195" y="506"/>
			<point x="-258" y="477"/>
			<point x="-297" y="428" type="curve"/>
			<point x="-311" y="332" type="line"/>
			<point x="-257" y="400"/>
			<point x="-198" y="423"/>
			<point x="-137" y="423" type="curve" smooth="yes"/>
			<point x="-79" y="423"/>
			<point x="-35" y="393"/>
			<point x="14" y="366" type="curve"/>
			<point x="-85" y="238" type="line"/>
			<point x="-324" y="238" type="line"/>
			<point x="-335" y="156" type="line"/>
			<point x="-149" y="156" type="line"/>
		</contour>
	</outline>
</glyph>
<glyph name="exclam_equal_equal.cLig" format="2">
	<advance width="600"/>
	<outline>
		<contour>
			<point x="-1080" y="76" type="line"/>
			<point x="-513" y="76" type="line"/>
			<point x="-623" y="-76" type="line"/>
			<point x="-530" y="-76" type="line"/>
			<point x="-420" y="76" type="line"/>
			<point x="420" y="76" type="line"/>
			<point x="431" y="154" type="line"/>
			<point x="-363" y="154" type="line"/>
			<point x="-272" y="279" type="line"/>
			<point x="448" y="279" type="line"/>
			<point x="460" y="357" type="line"/>
			<point x="-215" y="357" type="line"/>
			<point x="-124" y="483" type="line"/>
			<point x="478" y="483" type="line"/>
			<point x="488" y="560" type="line"/>
			<point x="-68" y="560" type="line"/>
			<point x="24" y="686" type="line"/>
			<point x="-69" y="686" type="line"/>
			<point x="-161" y="560" type="line"/>
			<point x="-1011" y="560" type="line"/>
			<point x="-1022" y="483" type="line"/>
			<point x="-217" y="483" type="line"/>
			<point x="-308" y="357" type="line"/>
			<point x="-1040" y="357" type="line"/>
			<point x="-1051" y="279" type="line"/>
			<point x="-365" y="279" type="line"/>
			<point x="-456" y="154" type="line"/>
			<point x="-1069" y="154" type="line"/>
		</contour>
	</outline>
</glyph>
<glyph name="exclam_exclam.cLig" format="2">
	<advance width="600"/>
	<outline>
		<contour>
			<point x="-270" y="203" type="line"/>
			<point x="-203" y="203" type="line"/>
			<point x="-138" y="541" type="line"/>
			<point x="-117" y="684" type="line"/>
			<point x="-221" y="684" type="line"/>
			<point x="-240" y="542" type="line"/>
		</contour>
		<contour>
			<point x="-260" y="-12" type="curve" smooth="yes"/>
			<point x="-212" y="-12"/>
			<point x="-192" y="7"/>
			<point x="-187" y="47" type="curve" smooth="yes"/>
			<point x="-181" y="90"/>
			<point x="-201" y="115"/>
			<point x="-253" y="115" type="curve" smooth="yes"/>
			<point x="-300" y="115"/>
			<point x="-321" y="95"/>
			<point x="-326" y="56" type="curve" smooth="yes"/>
			<point x="-332" y="12"/>
			<point x="-312" y="-12"/>
		</contour>
		<contour>
			<point x="184" y="203" type="line"/>
			<point x="251" y="203" type="line"/>
			<point x="316" y="541" type="line"/>
			<point x="337" y="684" type="line"/>
			<point x="233" y="684" type="line"/>
			<point x="214" y="542" type="line"/>
		</contour>
		<contour>
			<point x="194" y="-12" type="curve" smooth="yes"/>
			<point x="242" y="-12"/>
			<point x="262" y="7"/>
			<point x="267" y="47" type="curve" smooth="yes"/>
			<point x="273" y="90"/>
			<point x="253" y="115"/>
			<point x="201" y="115" type="curve" smooth="yes"/>
			<point x="154" y="115"/>
			<point x="133" y="95"/>
			<point x="128" y="56" type="curve" smooth="yes"/>
			<point x="122" y="12"/>
			<point x="142" y="-12"/>
		</contour>
	</outline>
</glyph>
<glyph name="five.den" format="2">
	<advance width="600"/>
	<outline>
		<contour>
			<point x="263" y="-8" type="curve" smooth="yes"/>
			<point x="364" y="-8"/>
			<point x="427" y="52"/>
			<point x="426" y="145" type="curve" smooth="yes"/>
			<point x="425" y="218"/>
			<point x="381" y="251"/>
			<point x="296" y="251" type="curve" smooth="yes"/>
			<point x="273" y="251"/>
			<point x="251" y="248"/>
			<point x="231" y="244" type="curve"/>
			<point x="247" y="356" type="line"/>
			<point x="447" y="356" type="line"/>
			<point x="454" y="410" type="line"/>
			<point x="193" y="410" type="line"/>
			<point x="160" y="181" type="line"/>
			<point x="193" y="192"/>
			<point x="225" y="201"/>
			<point x="265" y="201" type="curve" smooth="yes"/>
			<point x="330" y="201"/>
			<point x="358" y="180"/>
			<point x="359" y="137" type="curve" smooth="yes"/>
			<point x="360" y="86"/>
			<point x="326" y="48"/>
			<point x="261" y="48" type="curve" smooth="yes"/>
			<point x="219" y="48"/>
			<point x="175" y="62"/>
			<point x="135" y="96" type="curve"/>
			<point x="127" y="38" type="line"/>
			<point x="156" y="11"/>
			<point x="204" y="-8"/>
		</contour>
	</outline>
</glyph>
<glyph name="five.numr" format="2">
	<advance width="600"/>
	<outline>
		<contour>
			<point x="316" y="366" type="curve" smooth="yes"/>
			<point x="402" y="366"/>
			<point x="455" y="420"/>
			<point x="453" y="495" type="curve" smooth="yes"/>
			<point x="453" y="554"/>
			<point x="418" y="583"/>
			<point x="345" y="583" type="curve" smooth="yes"/>
			<point x="325" y="583"/>
			<point x="308" y="581"/>
			<point x="292" y="578" type="curve"/>
			<point x="305" y="669" type="line"/>
			<point x="470" y="669" type="line"/>
			<point x="476" y="718" type="line"/>
			<point x="256" y="718" type="line"/>
			<point x="229" y="524" type="line"/>
			<point x="264" y="535"/>
			<point x="289" y="539"/>
			<point x="316" y="539" type="curve" smooth="yes"/>
			<point x="372" y="539"/>
			<point x="392" y="523"/>
			<point x="393" y="487" type="curve" smooth="yes"/>
			<point x="394" y="443"/>
			<point x="366" y="415"/>
			<point x="314" y="415" type="curve" smooth="yes"/>
			<point x="279" y="415"/>
			<point x="241" y="426"/>
			<point x="207" y="454" type="curve"/>
			<point x="200" y="403" type="line"/>
			<point x="226" y="380"/>
			<point x="267" y="366"/>
		</contour>
	</outline>
</glyph>
<glyph name="four.den" format="2">
	<advance width="600"/>
	<outline>
		<contour>
			<point x="307" y="0" type="line"/>
			<point x="373" y="0" type="line"/>
			<point x="385" y="80" type="line"/>
			<point x="431" y="80" type="line"/>
			<point x="438" y="137" type="line"/>
			<point x="392" y="137" type="line"/>
			<point x="431" y="411" type="line"/>
			<point x="332" y="411" type="line"/>
			<point x="118" y="137" type="line"/>
			<point x="110" y="81" type="line"/>
			<point x="319" y="81" type="line"/>
		</contour>
		<contour>
			<point x="186" y="137" type="line"/>
			<point x="358" y="361" type="line"/>
			<point x="326" y="137" type="line"/>
		</contour>
	</outline>
</glyph>
<glyph name="greater_colon.cLig.x" format="2">
	<advance width="600"/>
	<outline>
		<contour>
			<point x="-462" y="-6" type="line"/>
			<point x="20" y="263" type="line"/>
			<point x="34" y="365" type="line"/>
			<point x="-371" y="635" type="line"/>
			<point x="-385" y="544" type="line"/>
			<point x="-46" y="318" type="line"/>
			<point x="-448" y="93" type="line"/>
		</contour>
		<contour>
			<point x="338" y="439" type="curve" smooth="yes"/>
			<point x="390" y="439"/>
			<point x="413" y="460"/>
			<point x="419" y="503" type="curve" smooth="yes"/>
			<point x="426" y="552"/>
			<point x="405" y="579"/>
			<point x="348" y="579" type="curve" smooth="yes"/>
			<point x="295" y="579"/>
			<point x="272" y="557"/>
			<point x="266" y="514" type="curve" smooth="yes"/>
			<point x="258" y="465"/>
			<point x="279" y="439"/>
		</contour>
		<contour>
			<point x="283" y="45" type="curve" smooth="yes"/>
			<point x="335" y="45"/>
			<point x="358" y="66"/>
			<point x="364" y="109" type="curve" smooth="yes"/>
			<point x="371" y="158"/>
			<point x="350" y="185"/>
			<point x="293" y="185" type="curve" smooth="yes"/>
			<point x="240" y="185"/>
			<point x="217" y="163"/>
			<point x="211" y="120" type="curve" smooth="yes"/>
			<point x="204" y="71"/>
			<point x="224" y="45"/>
		</contour>
	</outline>
</glyph>
<glyph name="greater_equal.cLig" format="2">
	<advance width="600"/>
	<outline>
		<contour>
			<point x="-302" y="180" type="line"/>
			<point x="325" y="410" type="line"/>
			<point x="340" y="512" type="line"/>
			<point x="-223" y="743" type="line"/>
			<point x="-235" y="657" type="line"/>
			<point x="255" y="465" type="line"/>
			<point x="-289" y="271" type="line"/>
		</contour>
		<contour>
			<point x="-336" y="-63" type="line"/>
			<point x="291" y="166" type="line"/>
			<point x="303" y="251" type="line"/>
			<point x="-324" y="22" type="line"/>
		</contour>
	</outline>
</glyph>
<glyph name="greater_equal.rem" format="2">
	<advance width="600"/>
	<outline>
		<contour>
			<point x="-259" y="380" type="line"/>
			<point x="467" y="380" type="line"/>
			<point x="478" y="462" type="line"/>
			<point x="-214" y="462" type="line"/>
			<point x="-336" y="629" type="line"/>
			<point x="-439" y="629" type="line"/>
		</contour>
		<contour>
			<point x="-524" y="0" type="line"/>
			<point x="-411" y="0" type="line"/>
			<point x="-243" y="167" type="line"/>
			<point x="437" y="167" type="line"/>
			<point x="448" y="249" type="line"/>
			<point x="-277" y="249" type="line"/>
		</contour>
	</outline>
</glyph>
<glyph name="greater_greater.cLig" format="2">
	<advance width="600"/>
	<outline>
		<contour>
			<point x="-537" y="40" type="line"/>
			<point x="-55" y="253" type="line"/>
			<point x="-41" y="355" type="line"/>
			<point x="-462" y="569" type="line"/>
			<point x="-475" y="480" type="line"/>
			<point x="-126" y="307" type="line"/>
			<point x="-523" y="137" type="line"/>
		</contour>
		<contour>
			<point x="33" y="40" type="line"/>
			<point x="515" y="253" type="line"/>
			<point x="529" y="355" type="line"/>
			<point x="108" y="569" type="line"/>
			<point x="95" y="480" type="line"/>
			<point x="444" y="307" type="line"/>
			<point x="47" y="137" type="line"/>
		</contour>
	</outline>
</glyph>
<glyph name="greater_greater_equal.init" format="2">
	<advance width="600"/>
	<outline>
		<contour>
			<point x="-555" y="0" type="line"/>
			<point x="-440" y="0" type="line"/>
			<point x="-123" y="313" type="line"/>
			<point x="-361" y="629" type="line"/>
			<point x="-467" y="629" type="line"/>
			<point x="-230" y="319" type="line"/>
		</contour>
		<contour>
			<point x="89" y="380" type="line"/>
			<point x="616" y="380" type="line"/>
			<point x="628" y="462" type="line"/>
			<point x="134" y="462" type="line"/>
			<point x="12" y="629" type="line"/>
			<point x="-91" y="629" type="line"/>
		</contour>
		<contour>
			<point x="-176" y="0" type="line"/>
			<point x="-62" y="0" type="line"/>
			<point x="105" y="167" type="line"/>
			<point x="586" y="167" type="line"/>
			<point x="598" y="249" type="line"/>
			<point x="71" y="249" type="line"/>
		</contour>
	</outline>
</glyph>
<glyph name="greater_greater_equal.med" format="2">
	<advance width="600"/>
	<outline>
		<contour>
			<point x="-613" y="167" type="line"/>
			<point x="-326" y="167" type="line"/>
			<point x="-495" y="0" type="line"/>
			<point x="-382" y="0" type="line"/>
			<point x="-66" y="312" type="line"/>
			<point x="-301" y="629" type="line"/>
			<point x="-404" y="629" type="line"/>
			<point x="-280" y="462" type="line"/>
			<point x="-571" y="462" type="line"/>
			<point x="-583" y="380" type="line"/>
			<point x="-220" y="380" type="line"/>
			<point x="-173" y="317" type="line"/>
			<point x="-243" y="249" type="line"/>
			<point x="-602" y="249" type="line"/>
		</contour>
		<contour>
			<point x="147" y="380" type="line"/>
			<point x="617" y="380" type="line"/>
			<point x="628" y="462" type="line"/>
			<point x="192" y="462" type="line"/>
			<point x="70" y="629" type="line"/>
			<point x="-33" y="629" type="line"/>
		</contour>
		<contour>
			<point x="-118" y="0" type="line"/>
			<point x="-4" y="0" type="line"/>
			<point x="163" y="167" type="line"/>
			<point x="586" y="167" type="line"/>
			<point x="598" y="249" type="line"/>
			<point x="129" y="249" type="line"/>
		</contour>
	</outline>
</glyph>
<glyph name="greater_greater_equal.rem" format="2">
	<advance width="600"/>
	<outline>
		<contour>
			<point x="-1135" y="0" type="line"/>
			<point x="-1020" y="0" type="line"/>
			<point x="-703" y="313" type="line"/>
			<point x="-941" y="629" type="line"/>
			<point x="-1047" y="629" type="line"/>
			<point x="-810" y="319" type="line"/>
		</contour>
		<contour>
			<point x="-491" y="380" type="line"/>
			<point x="445" y="380" type="line"/>
			<point x="456" y="462" type="line"/>
			<point x="-446" y="462" type="line"/>
			<point x="-568" y="629" type="line"/>
			<point x="-671" y="629" type="line"/>
		</contour>
		<contour>
			<point x="-756" y="0" type="line"/>
			<point x="-642" y="0" type="line"/>
			<point x="-475" y="167" type="line"/>
			<point x="415" y="167" type="line"/>
			<point x="426" y="249" type="line"/>
			<point x="-509" y="249" type="line"/>
		</contour>
	</outline>
</glyph>
<glyph name="greater_greater_hyphen.fina" format="2">
	<advance width="600"/>
	<outline>
		<contour>
			<point x="54" y="0" type="line"/>
			<point x="171" y="0" type="line"/>
			<point x="486" y="314" type="line"/>
			<point x="245" y="629" type="line"/>
			<point x="140" y="629" type="line"/>
			<point x="374" y="320" type="line"/>
		</contour>
		<contour>
			<point x="-158" y="357" type="line"/>
			<point x="-587" y="357" type="line"/>
			<point x="-599" y="272" type="line"/>
			<point x="-408" y="272" type="line"/>
			<point x="-38" y="271" type="line"/>
			<point x="-319" y="0" type="line"/>
			<point x="-205" y="0" type="line"/>
			<point x="116" y="314" type="line"/>
			<point x="-122" y="629" type="line"/>
			<point x="-226" y="629" type="line"/>
			<point x="-19" y="356" type="line"/>
			<point x="-158" y="356" type="line"/>
		</contour>
	</outline>
</glyph>
<glyph name="greater_greater_hyphen.init" format="2">
	<advance width="600"/>
	<outline>
		<contour>
			<point x="-546" y="0" type="line"/>
			<point x="-431" y="0" type="line"/>
			<point x="-117" y="314" type="line"/>
			<point x="-357" y="629" type="line"/>
			<point x="-461" y="629" type="line"/>
			<point x="-229" y="319" type="line"/>
		</contour>
		<contour>
			<point x="-167" y="0" type="line"/>
			<point x="-51" y="0" type="line"/>
			<point x="222" y="272" type="line"/>
			<point x="601" y="272" type="line"/>
			<point x="613" y="357" type="line"/>
			<point x="231" y="357" type="line"/>
			<point x="23" y="629" type="line"/>
			<point x="-82" y="629" type="line"/>
			<point x="151" y="320" type="line"/>
		</contour>
	</outline>
</glyph>
<glyph name="greater_greater_hyphen.med" format="2">
	<advance width="600"/>
	<outline>
		<contour>
			<point x="-106" y="0" type="line"/>
			<point x="11" y="0" type="line"/>
			<point x="284" y="272" type="line"/>
			<point x="601" y="272" type="line"/>
			<point x="614" y="357" type="line"/>
			<point x="294" y="357" type="line"/>
			<point x="85" y="629" type="line"/>
			<point x="-20" y="629" type="line"/>
			<point x="213" y="319" type="line"/>
		</contour>
		<contour>
			<point x="-391" y="629" type="line"/>
			<point x="-185" y="357" type="line"/>
			<point x="-587" y="357" type="line"/>
			<point x="-599" y="272" type="line"/>
			<point x="-573" y="272" type="line"/>
			<point x="-203" y="271" type="line"/>
			<point x="-484" y="0" type="line"/>
			<point x="-370" y="0" type="line"/>
			<point x="-50" y="314" type="line"/>
			<point x="-287" y="629" type="line"/>
		</contour>
	</outline>
</glyph>
<glyph name="greater_greater_hyphen.rem" format="2">
	<advance width="600"/>
	<outline>
		<contour>
			<point x="-1097" y="0" type="line"/>
			<point x="-982" y="0" type="line"/>
			<point x="-668" y="314" type="line"/>
			<point x="-908" y="629" type="line"/>
			<point x="-1012" y="629" type="line"/>
			<point x="-780" y="319" type="line"/>
		</contour>
		<contour>
			<point x="-718" y="0" type="line"/>
			<point x="-602" y="0" type="line"/>
			<point x="-329" y="272" type="line"/>
			<point x="475" y="272" type="line"/>
			<point x="487" y="357" type="line"/>
			<point x="-320" y="357" type="line"/>
			<point x="-528" y="629" type="line"/>
			<point x="-633" y="629" type="line"/>
			<point x="-400" y="320" type="line"/>
		</contour>
	</outline>
</glyph>
<glyph name="greater_hyphen.med" format="2">
	<advance width="600"/>
	<outline>
		<contour>
			<point x="183" y="629" type="line"/>
			<point x="390" y="356" type="line"/>
			<point x="13" y="357" type="line"/>
			<point x="1" y="272" type="line"/>
			<point x="371" y="271" type="line"/>
			<point x="90" y="0" type="line"/>
			<point x="204" y="0" type="line"/>
			<point x="482" y="272" type="line"/>
			<point x="601" y="272" type="line"/>
			<point x="613" y="357" type="line"/>
			<point x="493" y="357" type="line"/>
			<point x="288" y="629" type="line"/>
		</contour>
	</outline>
</glyph>
<glyph name="hyphen.init" format="2">
	<advance width="600"/>
	<outline>
		<contour>
			<point x="613" y="357" type="line"/>
			<point x="185" y="357" type="line"/>
			<point x="173" y="272" type="line"/>
			<point x="601" y="272" type="line"/>
		</contour>
	</outline>
</glyph>
<glyph name="hyphen_asciitilde.cLig" format="2">
	<advance width="600"/>
	<outline>
		<contour>
			<point x="-398" y="268" type="line"/>
			<point x="-6" y="268" type="line"/>
			<point x="4" y="313"/>
			<point x="24" y="340"/>
			<point x="63" y="340" type="curve" smooth="yes"/>
			<point x="132" y="340"/>
			<point x="149" y="211"/>
			<point x="254" y="211" type="curve" smooth="yes"/>
			<point x="328" y="211"/>
			<point x="386" y="259"/>
			<point x="404" y="405" type="curve"/>
			<point x="326" y="405" type="line"/>
			<point x="317" y="331"/>
			<point x="296" y="296"/>
			<point x="255" y="296" type="curve" smooth="yes"/>
			<point x="190" y="296"/>
			<point x="168" y="424"/>
			<point x="61" y="424" type="curve" smooth="yes"/>
			<point x="12" y="424"/>
			<point x="-27" y="401"/>
			<point x="-51" y="353" type="curve"/>
			<point x="-386" y="353" type="line"/>
		</contour>
	</outline>
</glyph>
<glyph name="hyphen_bar.rem" format="2">
	<advance width="600"/>
	<outline>
		<contour>
			<point x="328" y="684" type="line"/>
			<point x="282" y="356" type="line"/>
			<point x="-414" y="356" type="line"/>
			<point x="-427" y="271" type="line"/>
			<point x="270" y="271" type="line"/>
			<point x="224" y="-56" type="line"/>
			<point x="312" y="-56" type="line"/>
			<point x="416" y="684" type="line"/>
		</contour>
	</outline>
</glyph>
<glyph name="hyphen_braceright.rem" format="2">
	<advance width="600"/>
	<outline>
		<contour>
			<point x="-48" y="-163" type="line"/>
			<point x="114" y="-163" type="line" smooth="yes"/>
			<point x="224" y="-163"/>
			<point x="286" y="-107"/>
			<point x="286" y="-23" type="curve" smooth="yes"/>
			<point x="286" y="60"/>
			<point x="214" y="135"/>
			<point x="214" y="199" type="curve" smooth="yes"/>
			<point x="214" y="243"/>
			<point x="245" y="274"/>
			<point x="312" y="274" type="curve" smooth="yes"/>
			<point x="386" y="274" type="line"/>
			<point x="398" y="357" type="line"/>
			<point x="314" y="357" type="line" smooth="yes"/>
			<point x="266" y="357"/>
			<point x="247" y="386"/>
			<point x="247" y="416" type="curve" smooth="yes"/>
			<point x="247" y="494"/>
			<point x="385" y="546"/>
			<point x="385" y="665" type="curve" smooth="yes"/>
			<point x="385" y="734"/>
			<point x="341" y="792"/>
			<point x="231" y="792" type="curve" smooth="yes"/>
			<point x="86" y="792" type="line"/>
			<point x="76" y="722" type="line"/>
			<point x="199" y="722" type="line" smooth="yes"/>
			<point x="258" y="722"/>
			<point x="289" y="699"/>
			<point x="289" y="652" type="curve" smooth="yes"/>
			<point x="289" y="561"/>
			<point x="153" y="516"/>
			<point x="153" y="420" type="curve" smooth="yes"/>
			<point x="153" y="382"/>
			<point x="177" y="365"/>
			<point x="209" y="354" type="curve"/>
			<point x="-414" y="354" type="line"/>
			<point x="-427" y="274" type="line"/>
			<point x="195" y="274" type="line"/>
			<point x="155" y="262"/>
			<point x="121" y="239"/>
			<point x="121" y="190" type="curve" smooth="yes"/>
			<point x="121" y="123"/>
			<point x="195" y="55"/>
			<point x="195" y="-15" type="curve" smooth="yes"/>
			<point x="195" y="-75"/>
			<point x="153" y="-93"/>
			<point x="89" y="-93" type="curve" smooth="yes"/>
			<point x="-38" y="-93" type="line"/>
		</contour>
	</outline>
</glyph>
<glyph name="hyphen_greater.rem" format="2">
	<advance width="600"/>
	<outline>
		<contour>
			<point x="13" y="357" type="line"/>
			<point x="-415" y="357" type="line"/>
			<point x="-427" y="272" type="line"/>
			<point x="-79" y="272" type="line"/>
			<point x="291" y="271" type="line"/>
			<point x="10" y="0" type="line"/>
			<point x="124" y="0" type="line"/>
			<point x="445" y="314" type="line"/>
			<point x="208" y="629" type="line"/>
			<point x="103" y="629" type="line"/>
			<point x="310" y="356" type="line"/>
			<point x="13" y="357" type="line"/>
		</contour>
	</outline>
</glyph>
<glyph name="hyphen_greater_greater.rem" format="2">
	<advance width="600"/>
	<outline>
		<contour>
			<point x="54" y="0" type="line"/>
			<point x="169" y="0" type="line"/>
			<point x="481" y="313" type="line"/>
			<point x="242" y="629" type="line"/>
			<point x="139" y="629" type="line"/>
			<point x="369" y="319" type="line"/>
		</contour>
		<contour>
			<point x="-1030" y="357" type="line"/>
			<point x="-1041" y="272" type="line"/>
			<point x="-449" y="272" type="line"/>
			<point x="-80" y="271" type="line"/>
			<point x="-361" y="0" type="line"/>
			<point x="-247" y="0" type="line"/>
			<point x="74" y="314" type="line"/>
			<point x="-163" y="629" type="line"/>
			<point x="-268" y="629" type="line"/>
			<point x="-60" y="356" type="line"/>
			<point x="-358" y="357" type="line"/>
		</contour>
	</outline>
</glyph>
<glyph name="hyphen_less.rem" format="2">
	<advance width="600"/>
	<outline>
		<contour>
			<point x="522" y="629" type="line"/>
			<point x="405" y="629" type="line"/>
			<point x="133" y="357" type="line"/>
			<point x="-30" y="357" type="line"/>
			<point x="-42" y="272" type="line"/>
			<point x="123" y="272" type="line"/>
			<point x="332" y="0" type="line"/>
			<point x="436" y="0" type="line"/>
			<point x="203" y="309" type="line"/>
		</contour>
		<contour>
			<point x="-471" y="272" type="line"/>
			<point x="-43" y="272" type="line"/>
			<point x="-31" y="357" type="line"/>
			<point x="-459" y="357" type="line"/>
		</contour>
	</outline>
</glyph>
<glyph name="less_asciitilde.cLig" format="2">
	<advance width="600"/>
	<outline>
		<contour>
			<point x="-278" y="272" type="line"/>
			<point x="114" y="272" type="line"/>
			<point x="124" y="317"/>
			<point x="144" y="344"/>
			<point x="183" y="344" type="curve" smooth="yes"/>
			<point x="252" y="344"/>
			<point x="269" y="215"/>
			<point x="374" y="215" type="curve" smooth="yes"/>
			<point x="448" y="215"/>
			<point x="506" y="263"/>
			<point x="524" y="409" type="curve"/>
			<point x="446" y="409" type="line"/>
			<point x="437" y="335"/>
			<point x="416" y="300"/>
			<point x="375" y="300" type="curve" smooth="yes"/>
			<point x="310" y="300"/>
			<point x="288" y="428"/>
			<point x="181" y="428" type="curve" smooth="yes"/>
			<point x="132" y="428"/>
			<point x="93" y="405"/>
			<point x="69" y="357" type="curve"/>
			<point x="35" y="357" type="line"/>
			<point x="-335" y="358" type="line"/>
			<point x="-54" y="629" type="line"/>
			<point x="-168" y="629" type="line"/>
			<point x="-489" y="315" type="line"/>
			<point x="-252" y="0" type="line"/>
			<point x="-147" y="0" type="line"/>
			<point x="-354" y="273" type="line"/>
			<point x="-278" y="273" type="line"/>
		</contour>
	</outline>
</glyph>
<glyph name="less_asciitilde_greater.cLig" format="2">
	<advance width="600"/>
	<outline>
		<contour>
			<point x="-857" y="0" type="line"/>
			<point x="-750" y="0" type="line"/>
			<point x="-959" y="272" type="line"/>
			<point x="-519" y="272" type="line"/>
			<point x="-506" y="313"/>
			<point x="-478" y="357"/>
			<point x="-428" y="357" type="curve" smooth="yes"/>
			<point x="-328" y="357"/>
			<point x="-302" y="188"/>
			<point x="-165" y="188" type="curve" smooth="yes"/>
			<point x="-101" y="188"/>
			<point x="-56" y="229"/>
			<point x="-36" y="272" type="curve"/>
			<point x="357" y="272" type="line"/>
			<point x="74" y="0" type="line"/>
			<point x="186" y="0" type="line"/>
			<point x="508" y="314" type="line"/>
			<point x="271" y="629" type="line"/>
			<point x="168" y="629" type="line"/>
			<point x="375" y="357" type="line"/>
			<point x="-75" y="357" type="line"/>
			<point x="-88" y="317"/>
			<point x="-116" y="273"/>
			<point x="-166" y="273" type="curve" smooth="yes"/>
			<point x="-264" y="273"/>
			<point x="-296" y="442"/>
			<point x="-429" y="442" type="curve" smooth="yes"/>
			<point x="-494" y="442"/>
			<point x="-539" y="399"/>
			<point x="-559" y="357" type="curve"/>
			<point x="-942" y="357" type="line"/>
			<point x="-661" y="629" type="line"/>
			<point x="-772" y="629" type="line"/>
			<point x="-1095" y="315" type="line"/>
		</contour>
	</outline>
</glyph>
<glyph name="less_asterisk.cLig" format="2">
	<advance width="600"/>
	<outline>
		<contour>
			<point x="-95" y="-6" type="line"/>
			<point x="-81" y="86" type="line"/>
			<point x="-423" y="310" type="line"/>
			<point x="-18" y="534" type="line"/>
			<point x="-4" y="635" type="line"/>
			<point x="-486" y="365" type="line"/>
			<point x="-500" y="263" type="line"/>
		</contour>
		<contour>
			<point x="49" y="155" type="line"/>
			<point x="229" y="277" type="line"/>
			<point x="177" y="75" type="line"/>
			<point x="270" y="75" type="line"/>
			<point x="274" y="275" type="line"/>
			<point x="419" y="156" type="line"/>
			<point x="476" y="235" type="line"/>
			<point x="303" y="315" type="line"/>
			<point x="500" y="396" type="line"/>
			<point x="465" y="475" type="line"/>
			<point x="286" y="355" type="line"/>
			<point x="337" y="556" type="line"/>
			<point x="245" y="556" type="line"/>
			<point x="240" y="354" type="line"/>
			<point x="93" y="476" type="line"/>
			<point x="36" y="396" type="line"/>
			<point x="213" y="315" type="line"/>
			<point x="14" y="235" type="line"/>
		</contour>
	</outline>
</glyph>
<glyph name="less_asterisk_greater.cLig" format="2">
	<advance width="600"/>
	<outline>
		<contour>
			<point x="1" y="-5" type="line"/>
			<point x="483" y="263" type="line"/>
			<point x="497" y="365" type="line"/>
			<point x="92" y="636" type="line"/>
			<point x="79" y="545" type="line"/>
			<point x="421" y="318" type="line"/>
			<point x="15" y="95" type="line"/>
		</contour>
		<contour>
			<point x="-677" y="-6" type="line"/>
			<point x="-664" y="84" type="line"/>
			<point x="-1006" y="310" type="line"/>
			<point x="-601" y="534" type="line"/>
			<point x="-586" y="635" type="line"/>
			<point x="-1068" y="365" type="line"/>
			<point x="-1083" y="263" type="line"/>
		</contour>
		<contour>
			<point x="-498" y="160" type="line"/>
			<point x="-318" y="282" type="line"/>
			<point x="-370" y="80" type="line"/>
			<point x="-277" y="80" type="line"/>
			<point x="-273" y="280" type="line"/>
			<point x="-128" y="161" type="line"/>
			<point x="-70" y="240" type="line"/>
			<point x="-244" y="320" type="line"/>
			<point x="-47" y="401" type="line"/>
			<point x="-81" y="480" type="line"/>
			<point x="-261" y="360" type="line"/>
			<point x="-210" y="561" type="line"/>
			<point x="-302" y="561" type="line"/>
			<point x="-307" y="359" type="line"/>
			<point x="-454" y="481" type="line"/>
			<point x="-511" y="401" type="line"/>
			<point x="-334" y="320" type="line"/>
			<point x="-533" y="240" type="line"/>
		</contour>
	</outline>
</glyph>
<glyph name="less_dollar_greater.cLig" format="2">
	<advance width="600"/>
	<outline>
		<contour>
			<point x="-459" y="-93" type="line"/>
			<point x="-389" y="-93" type="line"/>
			<point x="-365" y="-10" type="line"/>
			<point x="-350" y="-11"/>
			<point x="-335" y="-12"/>
			<point x="-320" y="-12" type="curve" smooth="yes"/>
			<point x="-168" y="-12"/>
			<point x="-64" y="71"/>
			<point x="-64" y="209" type="curve" smooth="yes"/>
			<point x="-64" y="320"/>
			<point x="-137" y="352"/>
			<point x="-252" y="380" type="curve"/>
			<point x="-182" y="610" type="line"/>
			<point x="-104" y="595"/>
			<point x="-30" y="558"/>
			<point x="59" y="512" type="curve" smooth="yes"/>
			<point x="430" y="317" type="line"/>
			<point x="55" y="140" type="line"/>
			<point x="42" y="43" type="line"/>
			<point x="494" y="263" type="line"/>
			<point x="508" y="365" type="line"/>
			<point x="99" y="582" type="line" smooth="yes"/>
			<point x="2" y="633"/>
			<point x="-73" y="669"/>
			<point x="-154" y="686" type="curve"/>
			<point x="-128" y="774" type="line"/>
			<point x="-197" y="774" type="line"/>
			<point x="-222" y="695" type="line"/>
			<point x="-233" y="695"/>
			<point x="-245" y="696"/>
			<point x="-257" y="696" type="curve" smooth="yes"/>
			<point x="-420" y="696"/>
			<point x="-514" y="612"/>
			<point x="-514" y="482" type="curve" smooth="yes"/>
			<point x="-514" y="361"/>
			<point x="-430" y="328"/>
			<point x="-334" y="305" type="curve"/>
			<point x="-404" y="72" type="line"/>
			<point x="-479" y="83"/>
			<point x="-559" y="107"/>
			<point x="-642" y="145" type="curve" smooth="yes"/>
			<point x="-1007" y="313" type="line"/>
			<point x="-633" y="486" type="line"/>
			<point x="-619" y="585" type="line"/>
			<point x="-1073" y="365" type="line"/>
			<point x="-1087" y="263" type="line"/>
			<point x="-683" y="72" type="line" smooth="yes"/>
			<point x="-601" y="35"/>
			<point x="-519" y="9"/>
			<point x="-433" y="-4" type="curve"/>
		</contour>
		<contour>
			<point x="-420" y="495" type="curve" smooth="yes"/>
			<point x="-420" y="573"/>
			<point x="-362" y="619"/>
			<point x="-264" y="619" type="curve" smooth="yes"/>
			<point x="-256" y="619"/>
			<point x="-248" y="618"/>
			<point x="-240" y="618" type="curve"/>
			<point x="-308" y="393" type="line"/>
			<point x="-379" y="412"/>
			<point x="-420" y="431"/>
		</contour>
		<contour>
			<point x="-157" y="193" type="curve" smooth="yes"/>
			<point x="-157" y="113"/>
			<point x="-221" y="67"/>
			<point x="-320" y="67" type="curve" smooth="yes"/>
			<point x="-346" y="67" type="line"/>
			<point x="-278" y="293" type="line"/>
			<point x="-204" y="277"/>
			<point x="-157" y="261"/>
		</contour>
	</outline>
</glyph>
<glyph name="less_equal.cLig" format="2">
	<advance width="600"/>
	<outline>
		<contour>
			<point x="272" y="180" type="line"/>
			<point x="284" y="266" type="line"/>
			<point x="-205" y="458" type="line"/>
			<point x="338" y="650" type="line"/>
			<point x="351" y="743" type="line"/>
			<point x="-276" y="512" type="line"/>
			<point x="-291" y="410" type="line"/>
		</contour>
		<contour>
			<point x="238" y="-62" type="line"/>
			<point x="250" y="19" type="line"/>
			<point x="-313" y="248" type="line"/>
			<point x="-325" y="167" type="line"/>
		</contour>
	</outline>
</glyph>
<glyph name="less_equal.rem" format="2">
	<advance width="600"/>
	<outline>
		<contour>
			<point x="539" y="629" type="line"/>
			<point x="426" y="629" type="line"/>
			<point x="258" y="462" type="line"/>
			<point x="-422" y="462" type="line"/>
			<point x="-433" y="380" type="line"/>
			<point x="292" y="380" type="line"/>
		</contour>
		<contour>
			<point x="274" y="249" type="line"/>
			<point x="-452" y="249" type="line"/>
			<point x="-463" y="167" type="line"/>
			<point x="229" y="167" type="line"/>
			<point x="351" y="0" type="line"/>
			<point x="454" y="0" type="line"/>
		</contour>
	</outline>
</glyph>
<glyph name="less_equal_bar.rem" format="2">
	<advance width="600"/>
	<outline>
		<contour>
			<point x="392" y="0" type="line"/>
			<point x="480" y="629" type="line"/>
			<point x="392" y="629" type="line"/>
			<point x="368" y="462" type="line"/>
			<point x="-799" y="462" type="line"/>
			<point x="-630" y="629" type="line"/>
			<point x="-743" y="629" type="line"/>
			<point x="-1059" y="317" type="line"/>
			<point x="-824" y="0" type="line"/>
			<point x="-721" y="0" type="line"/>
			<point x="-844" y="167" type="line"/>
			<point x="327" y="167" type="line"/>
			<point x="304" y="0" type="line"/>
		</contour>
		<contour>
			<point x="-952" y="312" type="line"/>
			<point x="-882" y="380" type="line"/>
			<point x="357" y="380" type="line"/>
			<point x="339" y="249" type="line"/>
			<point x="-905" y="249" type="line"/>
		</contour>
	</outline>
</glyph>
<glyph name="less_equal_greater.rem" format="2">
	<advance width="600"/>
	<outline>
		<contour>
			<point x="52" y="0" type="line"/>
			<point x="165" y="0" type="line"/>
			<point x="481" y="312" type="line"/>
			<point x="246" y="629" type="line"/>
			<point x="143" y="629" type="line"/>
			<point x="267" y="462" type="line"/>
			<point x="-806" y="462" type="line"/>
			<point x="-637" y="629" type="line"/>
			<point x="-750" y="629" type="line"/>
			<point x="-1066" y="317" type="line"/>
			<point x="-831" y="0" type="line"/>
			<point x="-728" y="0" type="line"/>
			<point x="-852" y="167" type="line"/>
			<point x="221" y="167" type="line"/>
		</contour>
		<contour>
			<point x="374" y="317" type="line"/>
			<point x="304" y="249" type="line"/>
			<point x="-912" y="249" type="line"/>
			<point x="-959" y="312" type="line"/>
			<point x="-889" y="380" type="line"/>
			<point x="327" y="380" type="line"/>
		</contour>
	</outline>
</glyph>
<glyph name="less_exclam_hyphen_hyphen.cLig" format="2">
	<advance width="600"/>
	<outline>
		<contour>
			<point x="-1023" y="203" type="line"/>
			<point x="-956" y="203" type="line"/>
			<point x="-890" y="541" type="line"/>
			<point x="-870" y="684" type="line"/>
			<point x="-973" y="684" type="line"/>
			<point x="-993" y="542" type="line"/>
		</contour>
		<contour>
			<point x="-1314" y="0" type="line"/>
			<point x="-1521" y="273" type="line"/>
			<point x="-1144" y="272" type="line"/>
			<point x="-1132" y="357" type="line"/>
			<point x="-1502" y="358" type="line"/>
			<point x="-1221" y="629" type="line"/>
			<point x="-1335" y="629" type="line"/>
			<point x="-1656" y="315" type="line"/>
			<point x="-1419" y="0" type="line"/>
		</contour>
		<contour>
			<point x="442" y="356" type="line"/>
			<point x="-795" y="356" type="line"/>
			<point x="-808" y="271" type="line"/>
			<point x="429" y="271" type="line"/>
		</contour>
		<contour>
			<point x="-1013" y="-12" type="curve" smooth="yes"/>
			<point x="-965" y="-12"/>
			<point x="-945" y="7"/>
			<point x="-939" y="47" type="curve" smooth="yes"/>
			<point x="-934" y="90"/>
			<point x="-954" y="115"/>
			<point x="-1005" y="115" type="curve" smooth="yes"/>
			<point x="-1053" y="115"/>
			<point x="-1074" y="95"/>
			<point x="-1079" y="56" type="curve" smooth="yes"/>
			<point x="-1084" y="12"/>
			<point x="-1065" y="-12"/>
		</contour>
	</outline>
</glyph>
<glyph name="less_hyphen.rem" format="2">
	<advance width="600"/>
	<outline>
		<contour>
			<point x="-88" y="0" type="line"/>
			<point x="-295" y="273" type="line"/>
			<point x="2" y="272" type="line"/>
			<point x="2" y="272" type="line"/>
			<point x="430" y="272" type="line"/>
			<point x="442" y="357" type="line"/>
			<point x="94" y="357" type="line"/>
			<point x="-276" y="358" type="line"/>
			<point x="5" y="629" type="line"/>
			<point x="-109" y="629" type="line"/>
			<point x="-430" y="315" type="line"/>
			<point x="-193" y="0" type="line"/>
		</contour>
	</outline>
</glyph>
<glyph name="less_hyphen_less.rem" format="2">
	<advance width="600"/>
	<outline>
		<contour>
			<point x="-718" y="0" type="line"/>
			<point x="-925" y="273" type="line"/>
			<point x="-628" y="272" type="line"/>
			<point x="-628" y="272" type="line"/>
			<point x="-51" y="272" type="line"/>
			<point x="-39" y="357" type="line"/>
			<point x="-536" y="357" type="line"/>
			<point x="-906" y="358" type="line"/>
			<point x="-625" y="629" type="line"/>
			<point x="-739" y="629" type="line"/>
			<point x="-1060" y="315" type="line"/>
			<point x="-823" y="0" type="line"/>
		</contour>
		<contour>
			<point x="514" y="629" type="line"/>
			<point x="397" y="629" type="line"/>
			<point x="125" y="357" type="line"/>
			<point x="-38" y="357" type="line"/>
			<point x="-50" y="272" type="line"/>
			<point x="115" y="272" type="line"/>
			<point x="324" y="0" type="line"/>
			<point x="428" y="0" type="line"/>
			<point x="195" y="309" type="line"/>
		</contour>
	</outline>
</glyph>
<glyph name="less_less.cLig" format="2">
	<advance width="600"/>
	<outline>
		<contour>
			<point x="-96" y="40" type="line"/>
			<point x="-82" y="128" type="line"/>
			<point x="-432" y="299" type="line"/>
			<point x="-35" y="471" type="line"/>
			<point x="-21" y="569" type="line"/>
			<point x="-503" y="355" type="line"/>
			<point x="-517" y="253" type="line"/>
		</contour>
		<contour>
			<point x="474" y="40" type="line"/>
			<point x="488" y="128" type="line"/>
			<point x="138" y="299" type="line"/>
			<point x="535" y="471" type="line"/>
			<point x="549" y="569" type="line"/>
			<point x="67" y="355" type="line"/>
			<point x="53" y="253" type="line"/>
		</contour>
	</outline>
</glyph>
